<svg xmlns="http://www.w3.org/2000/svg" xmlns:xlink="http://www.w3.org/1999/xlink" width="1440" height="597" viewBox="0 0 1440 597">
    <defs>
        <path id="a" d="M0 0h1440v600H0V0z"/>
        <linearGradient id="d" x1="50%" x2="50%" y1="0%" y2="64.905%">
            <stop offset="0%" stop-color="#FFF" stop-opacity="0"/>
            <stop offset="69.249%" stop-color="#839BAF" stop-opacity=".62"/>
            <stop offset="100%" stop-color="#4C6F8C"/>
        </linearGradient>
        <path id="c" d="M0 0h2880v801H0z"/>
        <linearGradient id="f" x1="50%" x2="50%" y1="5.946%" y2="103.347%">
            <stop offset="0%" stop-color="#4C6F8C"/>
            <stop offset="100%" stop-color="#A9BAC9"/>
        </linearGradient>
    </defs>
    <g fill="none" fill-rule="evenodd" transform="translate(0 -3)">
        <mask id="b" fill="#fff">
            <use xlink:href="#a"/>
        </mask>
        <use fill="#4C6F8C" xlink:href="#a"/>
        <g mask="url(#b)">
            <path fill="#4C6F8C" d="M0 0h1440v600H0V0z"/>
            <g opacity=".6">
                <path fill="#F2F5F7" d="M774 74a2 2 0 1 1 0 4 2 2 0 0 1 0-4zm80 10a2 2 0 1 1 0 4 2 2 0 0 1 0-4zm60 70a2 2 0 1 1 0 4 2 2 0 0 1 0-4zm180-180a2 2 0 1 1 0 4 2 2 0 0 1 0-4zM954 14a2 2 0 1 1 0 4 2 2 0 0 1 0-4zm40-40a2 2 0 1 1 0 4 2 2 0 0 1 0-4zm20 10a2 2 0 1 1 0 4 2 2 0 0 1 0-4zm0-70a2 2 0 1 1 0 4 2 2 0 0 1 0-4zm50 0a2 2 0 1 1 0 4 2 2 0 0 1 0-4zm60 70a2 2 0 1 1 0 4 2 2 0 0 1 0-4zm-50 40a2 2 0 1 1 0 4 2 2 0 0 1 0-4zm120 30a2 2 0 1 1 0 4 2 2 0 0 1 0-4zm-10 40a2 2 0 1 1 0 4 2 2 0 0 1 0-4zm-40-60a2 2 0 1 1 0 4 2 2 0 0 1 0-4zm60-60a2 2 0 1 1 0 4 2 2 0 0 1 0-4zm-110 170a2 2 0 1 1 0 4 2 2 0 0 1 0-4zm60 60a2 2 0 1 1 0 4 2 2 0 0 1 0-4zm-30 30a2 2 0 1 1 0 4 2 2 0 0 1 0-4zm-50-10a2 2 0 1 1 0 4 2 2 0 0 1 0-4zm-20 100a2 2 0 1 1 0 4 2 2 0 0 1 0-4zm40 50a2 2 0 1 1 0 4 2 2 0 0 1 0-4zm-30-20a2 2 0 1 1 0 4 2 2 0 0 1 0-4zm140 60a2 2 0 1 1 0 4 2 2 0 0 1 0-4zm-40-40a2 2 0 1 1 0 4 2 2 0 0 1 0-4zm24-40a2 2 0 1 1 0 4 2 2 0 0 1 0-4zm30-40a2 2 0 1 1 0 4 2 2 0 0 1 0-4zm-40-50a2 2 0 1 1 0 4 2 2 0 0 1 0-4zm10 240a2 2 0 1 1 0 4 2 2 0 0 1 0-4zm-150-10a2 2 0 1 1 0 4 2 2 0 0 1 0-4zm-50-100a2 2 0 1 1 0 4 2 2 0 0 1 0-4zm-10-50a2 2 0 1 1 0 4 2 2 0 0 1 0-4zm-100 40a2 2 0 1 1 0 4 2 2 0 0 1 0-4zm-60-60a2 2 0 1 1 0 4 2 2 0 0 1 0-4zm20-40a2 2 0 1 1 0 4 2 2 0 0 1 0-4zm20-20a2 2 0 1 1 0 4 2 2 0 0 1 0-4zm-40-24a2 2 0 1 1 0 4 2 2 0 0 1 0-4zm40-40a2 2 0 1 1 0 4 2 2 0 0 1 0-4zm-110-20a2 2 0 1 1 0 4 2 2 0 0 1 0-4zm-60 20a2 2 0 1 1 0 4 2 2 0 0 1 0-4zm-20 40a2 2 0 1 1 0 4 2 2 0 0 1 0-4zm-56-32a2 2 0 1 1 0 4 2 2 0 0 1 0-4zm20-40a2 2 0 1 1 0 4 2 2 0 0 1 0-4zM692 8a2 2 0 1 1 0 4 2 2 0 0 1 0-4zm-90 20a2 2 0 1 1 0 4 2 2 0 0 1 0-4zm-50 30a2 2 0 1 1 0 4 2 2 0 0 1 0-4zm-70-20a2 2 0 1 1 0 4 2 2 0 0 1 0-4zm-30 30a2 2 0 1 1 0 4 2 2 0 0 1 0-4zm-40-20a2 2 0 1 1 0 4 2 2 0 0 1 0-4zm0-90a2 2 0 1 1 0 4 2 2 0 0 1 0-4zm-30 30a2 2 0 1 1 0 4 2 2 0 0 1 0-4zm-39-18a1 1 0 1 1 0 2 1 1 0 0 1 0-2zm10 10a1 1 0 1 1 0 2 1 1 0 0 1 0-2zm-50-10a1 1 0 1 1 0 2 1 1 0 0 1 0-2zM263 0a1 1 0 1 1 0 2 1 1 0 0 1 0-2zm70 80a1 1 0 1 1 0 2 1 1 0 0 1 0-2zm40 20a1 1 0 1 1 0 2 1 1 0 0 1 0-2zm-110 90a1 1 0 1 1 0 2 1 1 0 0 1 0-2zm-30-10a1 1 0 1 1 0 2 1 1 0 0 1 0-2zm-20 10a1 1 0 1 1 0 2 1 1 0 0 1 0-2zm-40 10a1 1 0 1 1 0 2 1 1 0 0 1 0-2zm-16 4a1 1 0 1 1 0 2 1 1 0 0 1 0-2zm10 50a1 1 0 1 1 0 2 1 1 0 0 1 0-2zm40 20a1 1 0 1 1 0 2 1 1 0 0 1 0-2zm10-10a1 1 0 1 1 0 2 1 1 0 0 1 0-2zm39.5 6a1.5 1.5 0 1 1 0 3 1.5 1.5 0 0 1 0-3zm40 10a1.5 1.5 0 1 1 0 3 1.5 1.5 0 0 1 0-3zm20.5-27a1 1 0 1 1 0 2 1 1 0 0 1 0-2zm40 20a1 1 0 1 1 0 2 1 1 0 0 1 0-2zm30 40a1 1 0 1 1 0 2 1 1 0 0 1 0-2zm30-10a1 1 0 1 1 0 2 1 1 0 0 1 0-2zm30 20a1 1 0 1 1 0 2 1 1 0 0 1 0-2zm30-30a1 1 0 1 1 0 2 1 1 0 0 1 0-2zm60-10a1 1 0 1 1 0 2 1 1 0 0 1 0-2zm-10-10a1 1 0 1 1 0 2 1 1 0 0 1 0-2zm-4 8a1 1 0 1 1 0 2 1 1 0 0 1 0-2zm40-40a1 1 0 1 1 0 2 1 1 0 0 1 0-2zm-20-30a1 1 0 1 1 0 2 1 1 0 0 1 0-2zm10 40a1 1 0 1 1 0 2 1 1 0 0 1 0-2zm50 0a1 1 0 1 1 0 2 1 1 0 0 1 0-2zm-20 50a1 1 0 1 1 0 2 1 1 0 0 1 0-2zm170 10a1 1 0 1 1 0 2 1 1 0 0 1 0-2zm30 30a1 1 0 1 1 0 2 1 1 0 0 1 0-2zm-10-25a1 1 0 1 1 0 2 1 1 0 0 1 0-2zm30-60a1 1 0 1 1 0 2 1 1 0 0 1 0-2zm60 70a1 1 0 1 1 0 2 1 1 0 0 1 0-2zm-40 20a1 1 0 1 1 0 2 1 1 0 0 1 0-2zm90-20a1 1 0 1 1 0 2 1 1 0 0 1 0-2zm-299-56a1 1 0 1 1 0 2 1 1 0 0 1 0-2zM383 90a1 1 0 1 1 0 2 1 1 0 0 1 0-2zm-9.5-5a1.5 1.5 0 1 1 0 3 1.5 1.5 0 0 1 0-3zM434 56a1 1 0 1 1 0 2 1 1 0 0 1 0-2zm-10 10a1 1 0 1 1 0 2 1 1 0 0 1 0-2zm60-60a1 1 0 1 1 0 2 1 1 0 0 1 0-2zm-20-30a1 1 0 1 1 0 2 1 1 0 0 1 0-2zm90 130a1 1 0 1 1 0 2 1 1 0 0 1 0-2zm-2 12a1 1 0 1 1 0 2 1 1 0 0 1 0-2zm5 4a1 1 0 1 1 0 2 1 1 0 0 1 0-2zm-16-18a1 1 0 1 1 0 2 1 1 0 0 1 0-2zm80 41a1 1 0 1 1 0 2 1 1 0 0 1 0-2zm0-20a1 1 0 1 1 0 2 1 1 0 0 1 0-2zm-10 10a1 1 0 1 1 0 2 1 1 0 0 1 0-2zm45 2a1 1 0 1 1 0 2 1 1 0 0 1 0-2zm10 10a1 1 0 1 1 0 2 1 1 0 0 1 0-2zm20-21a1 1 0 1 1 0 2 1 1 0 0 1 0-2zm-10-20a1 1 0 1 1 0 2 1 1 0 0 1 0-2zm50-20a1 1 0 1 1 0 2 1 1 0 0 1 0-2zm4-10a1 1 0 1 1 0 2 1 1 0 0 1 0-2zm10-10a1 1 0 1 1 0 2 1 1 0 0 1 0-2zm-40-35a1 1 0 1 1 0 2 1 1 0 0 1 0-2zm-30 10a1 1 0 1 1 0 2 1 1 0 0 1 0-2zm-10-10a1 1 0 1 1 0 2 1 1 0 0 1 0-2zm-21-21a1 1 0 1 1 0 2 1 1 0 0 1 0-2zm10-10a1 1 0 1 1 0 2 1 1 0 0 1 0-2zm240 0a1 1 0 1 1 0 2 1 1 0 0 1 0-2zm20-10a1 1 0 1 1 0 2 1 1 0 0 1 0-2zm20 0a1 1 0 1 1 0 2 1 1 0 0 1 0-2zm60 0a1 1 0 1 1 0 2 1 1 0 0 1 0-2zm70-40a1 1 0 1 1 0 2 1 1 0 0 1 0-2zm-10 20a1 1 0 1 1 0 2 1 1 0 0 1 0-2zm20 20a1 1 0 1 1 0 2 1 1 0 0 1 0-2zm50-50a1 1 0 1 1 0 2 1 1 0 0 1 0-2zm10 10a1 1 0 1 1 0 2 1 1 0 0 1 0-2zm10 20a1 1 0 1 1 0 2 1 1 0 0 1 0-2zm20 30a1 1 0 1 1 0 2 1 1 0 0 1 0-2zm10 20a1 1 0 1 1 0 2 1 1 0 0 1 0-2zm30-10a1 1 0 1 1 0 2 1 1 0 0 1 0-2zm10 20a1 1 0 1 1 0 2 1 1 0 0 1 0-2zm-70 60a1 1 0 1 1 0 2 1 1 0 0 1 0-2zM746 80a1 1 0 1 1 0 2 1 1 0 0 1 0-2zm37-40a1 1 0 1 1 0 2 1 1 0 0 1 0-2zm30-40a1 1 0 1 1 0 2 1 1 0 0 1 0-2zm90 30a1 1 0 1 1 0 2 1 1 0 0 1 0-2zm10-10a1 1 0 1 1 0 2 1 1 0 0 1 0-2zm12 15a1 1 0 1 1 0 2 1 1 0 0 1 0-2zm0-20a1 1 0 1 1 0 2 1 1 0 0 1 0-2zm20 24a1 1 0 1 1 0 2 1 1 0 0 1 0-2zm20-20a1 1 0 1 1 0 2 1 1 0 0 1 0-2zM955 9a1 1 0 1 1 0 2 1 1 0 0 1 0-2zm80-20a1 1 0 1 1 0 2 1 1 0 0 1 0-2zm-10 40a1 1 0 1 1 0 2 1 1 0 0 1 0-2zm-30 20a1 1 0 1 1 0 2 1 1 0 0 1 0-2zm41 11a1 1 0 1 1 0 2 1 1 0 0 1 0-2zm50 10a1 1 0 1 1 0 2 1 1 0 0 1 0-2zm20 30a1 1 0 1 1 0 2 1 1 0 0 1 0-2zm40-40a1 1 0 1 1 0 2 1 1 0 0 1 0-2zm-30-30a1 1 0 1 1 0 2 1 1 0 0 1 0-2zm10 40a1 1 0 1 1 0 2 1 1 0 0 1 0-2zm-20 120a1 1 0 1 1 0 2 1 1 0 0 1 0-2zm-572-67a1 1 0 1 1 0 2 1 1 0 0 1 0-2zm16 3a1 1 0 1 1 0 2 1 1 0 0 1 0-2zm-148 42a2 2 0 1 1 0 4 2 2 0 0 1 0-4zm-50 50a2 2 0 1 1 0 4 2 2 0 0 1 0-4zm-10-30a2 2 0 1 1 0 4 2 2 0 0 1 0-4zm60 50a2 2 0 1 1 0 4 2 2 0 0 1 0-4zm30 30a2 2 0 1 1 0 4 2 2 0 0 1 0-4zm70 30a2 2 0 1 1 0 4 2 2 0 0 1 0-4zm0-60a2 2 0 1 1 0 4 2 2 0 0 1 0-4zm-170 20a2 2 0 1 1 0 4 2 2 0 0 1 0-4zm-30-60a2 2 0 1 1 0 4 2 2 0 0 1 0-4zm20-60a2 2 0 1 1 0 4 2 2 0 0 1 0-4zm-40 10a2 2 0 1 1 0 4 2 2 0 0 1 0-4zm-30 30a2 2 0 1 1 0 4 2 2 0 0 1 0-4zm-30 30a2 2 0 1 1 0 4 2 2 0 0 1 0-4zm-50-30a2 2 0 1 1 0 4 2 2 0 0 1 0-4zm20-60a2 2 0 1 1 0 4 2 2 0 0 1 0-4zm20-20a2 2 0 1 1 0 4 2 2 0 0 1 0-4zm30-20a2 2 0 1 1 0 4 2 2 0 0 1 0-4zm40-20a2 2 0 1 1 0 4 2 2 0 0 1 0-4zm-20-10a2 2 0 1 1 0 4 2 2 0 0 1 0-4zM232 8a2 2 0 1 1 0 4 2 2 0 0 1 0-4zm-50 0a2 2 0 1 1 0 4 2 2 0 0 1 0-4zm-40-35a2 2 0 1 1 0 4 2 2 0 0 1 0-4zm-40-50a2 2 0 1 1 0 4 2 2 0 0 1 0-4zM52-47a2 2 0 1 1 0 4 2 2 0 0 1 0-4zm40 60a2 2 0 1 1 0 4 2 2 0 0 1 0-4zM52 43a2 2 0 1 1 0 4 2 2 0 0 1 0-4zM32 23a2 2 0 1 1 0 4 2 2 0 0 1 0-4zM-48 3a2 2 0 1 1 0 4 2 2 0 0 1 0-4zm-60-60a2 2 0 1 1 0 4 2 2 0 0 1 0-4zm70-10a2 2 0 1 1 0 4 2 2 0 0 1 0-4zm-20-40a2 2 0 1 1 0 4 2 2 0 0 1 0-4zm10-10a2 2 0 1 1 0 4 2 2 0 0 1 0-4zM-148-7a2 2 0 1 1 0 4 2 2 0 0 1 0-4zm60 60a2 2 0 1 1 0 4 2 2 0 0 1 0-4zm40-10a2 2 0 1 1 0 4 2 2 0 0 1 0-4zm-120 0a2 2 0 1 1 0 4 2 2 0 0 1 0-4zm-10 30a2 2 0 1 1 0 4 2 2 0 0 1 0-4zm20 50a2 2 0 1 1 0 4 2 2 0 0 1 0-4zm-10 80a2 2 0 1 1 0 4 2 2 0 0 1 0-4zm50-50a2 2 0 1 1 0 4 2 2 0 0 1 0-4zm-10 20a2 2 0 1 1 0 4 2 2 0 0 1 0-4zm70 0a2 2 0 1 1 0 4 2 2 0 0 1 0-4zm40-40a2 2 0 1 1 0 4 2 2 0 0 1 0-4zm40 10a2 2 0 1 1 0 4 2 2 0 0 1 0-4zm30 30a2 2 0 1 1 0 4 2 2 0 0 1 0-4zm30 30a2 2 0 1 1 0 4 2 2 0 0 1 0-4zm10 21a2 2 0 1 1 0 4 2 2 0 0 1 0-4zm50 20a2 2 0 1 1 0 4 2 2 0 0 1 0-4zm-40-60a2 2 0 1 1 0 4 2 2 0 0 1 0-4zm20-20a2 2 0 1 1 0 4 2 2 0 0 1 0-4zM-8 254a2 2 0 1 1 0 4 2 2 0 0 1 0-4zm-10 40a2 2 0 1 1 0 4 2 2 0 0 1 0-4zm30 20a2 2 0 1 1 0 4 2 2 0 0 1 0-4zm-60 130a2 2 0 1 1 0 4 2 2 0 0 1 0-4zm80-40a2 2 0 1 1 0 4 2 2 0 0 1 0-4zM12 514a2 2 0 1 1 0 4 2 2 0 0 1 0-4zm-40 0a2 2 0 1 1 0 4 2 2 0 0 1 0-4zm-40 50a2 2 0 1 1 0 4 2 2 0 0 1 0-4zm-20 50a2 2 0 1 1 0 4 2 2 0 0 1 0-4zm-60 20a2 2 0 1 1 0 4 2 2 0 0 1 0-4zm0-70a2 2 0 1 1 0 4 2 2 0 0 1 0-4zm20-30a2 2 0 1 1 0 4 2 2 0 0 1 0-4zm-50-80a2 2 0 1 1 0 4 2 2 0 0 1 0-4zm50-50a2 2 0 1 1 0 4 2 2 0 0 1 0-4zm60-20a2 2 0 1 1 0 4 2 2 0 0 1 0-4zM232-42a2 2 0 1 1 0 4 2 2 0 0 1 0-4zm434 489a2 2 0 1 1 0-4 2 2 0 0 1 0 4zm-80-10a2 2 0 1 1 0-4 2 2 0 0 1 0 4zm-60-70a2 2 0 1 1 0-4 2 2 0 0 1 0 4zM346 547a2 2 0 1 1 0-4 2 2 0 0 1 0 4zm140-40a2 2 0 1 1 0-4 2 2 0 0 1 0 4zm-40 40a2 2 0 1 1 0-4 2 2 0 0 1 0 4zm-20-10a2 2 0 1 1 0-4 2 2 0 0 1 0 4zm0 70a2 2 0 1 1 0-4 2 2 0 0 1 0 4zm-50 0a2 2 0 1 1 0-4 2 2 0 0 1 0 4zm-60-70a2 2 0 1 1 0-4 2 2 0 0 1 0 4zm50-40a2 2 0 1 1 0-4 2 2 0 0 1 0 4zm-120-30a2 2 0 1 1 0-4 2 2 0 0 1 0 4zm10-40a2 2 0 1 1 0-4 2 2 0 0 1 0 4zm40 60a2 2 0 1 1 0-4 2 2 0 0 1 0 4zm-60 60a2 2 0 1 1 0-4 2 2 0 0 1 0 4zm110-170a2 2 0 1 1 0-4 2 2 0 0 1 0 4zm-60-60a2 2 0 1 1 0-4 2 2 0 0 1 0 4zm30-30a2 2 0 1 1 0-4 2 2 0 0 1 0 4zm50 10a2 2 0 1 1 0-4 2 2 0 0 1 0 4zm20-100a2 2 0 1 1 0-4 2 2 0 0 1 0 4zm-40-50a2 2 0 1 1 0-4 2 2 0 0 1 0 4zm30 20a2 2 0 1 1 0-4 2 2 0 0 1 0 4zm-140-60a2 2 0 1 1 0-4 2 2 0 0 1 0 4zm40 40a2 2 0 1 1 0-4 2 2 0 0 1 0 4zm-24 40a2 2 0 1 1 0-4 2 2 0 0 1 0 4zm-30 40a2 2 0 1 1 0-4 2 2 0 0 1 0 4zm40 50a2 2 0 1 1 0-4 2 2 0 0 1 0 4zM252 37a2 2 0 1 1 0-4 2 2 0 0 1 0 4zm150 10a2 2 0 1 1 0-4 2 2 0 0 1 0 4zm50 100a2 2 0 1 1 0-4 2 2 0 0 1 0 4zm10 50a2 2 0 1 1 0-4 2 2 0 0 1 0 4zm100-40a2 2 0 1 1 0-4 2 2 0 0 1 0 4zm60 60a2 2 0 1 1 0-4 2 2 0 0 1 0 4zm-20 40a2 2 0 1 1 0-4 2 2 0 0 1 0 4zm-20 20a2 2 0 1 1 0-4 2 2 0 0 1 0 4zm40 24a2 2 0 1 1 0-4 2 2 0 0 1 0 4zm-40 40a2 2 0 1 1 0-4 2 2 0 0 1 0 4zm110 20a2 2 0 1 1 0-4 2 2 0 0 1 0 4zm60-20a2 2 0 1 1 0-4 2 2 0 0 1 0 4zm20-40a2 2 0 1 1 0-4 2 2 0 0 1 0 4zm56 32a2 2 0 1 1 0-4 2 2 0 0 1 0 4zm-20 40a2 2 0 1 1 0-4 2 2 0 0 1 0 4zm-60 140a2 2 0 1 1 0-4 2 2 0 0 1 0 4zm90-20a2 2 0 1 1 0-4 2 2 0 0 1 0 4zm50-30a2 2 0 1 1 0-4 2 2 0 0 1 0 4zm70 20a2 2 0 1 1 0-4 2 2 0 0 1 0 4zm30-30a2 2 0 1 1 0-4 2 2 0 0 1 0 4zm40 20a2 2 0 1 1 0-4 2 2 0 0 1 0 4zm0 90a2 2 0 1 1 0-4 2 2 0 0 1 0 4zm30-30a2 2 0 1 1 0-4 2 2 0 0 1 0 4zm39 18a1 1 0 1 1 0-2 1 1 0 0 1 0 2zm-10-10a1 1 0 1 1 0-2 1 1 0 0 1 0 2zm50 10a1 1 0 1 1 0-2 1 1 0 0 1 0 2zm40-30a1 1 0 1 1 0-2 1 1 0 0 1 0 2zm-70-80a1 1 0 1 1 0-2 1 1 0 0 1 0 2zm-40-20a1 1 0 1 1 0-2 1 1 0 0 1 0 2zm110-90a1 1 0 1 1 0-2 1 1 0 0 1 0 2zm30 10a1 1 0 1 1 0-2 1 1 0 0 1 0 2zm20-10a1 1 0 1 1 0-2 1 1 0 0 1 0 2zm40-10a1 1 0 1 1 0-2 1 1 0 0 1 0 2zm16-4a1 1 0 1 1 0-2 1 1 0 0 1 0 2zm-10-50a1 1 0 1 1 0-2 1 1 0 0 1 0 2zm-40-20a1 1 0 1 1 0-2 1 1 0 0 1 0 2zm-10 10a1 1 0 1 1 0-2 1 1 0 0 1 0 2zm-39.5-6a1.5 1.5 0 1 1 0-3 1.5 1.5 0 0 1 0 3zm-40-10a1.5 1.5 0 1 1 0-3 1.5 1.5 0 0 1 0 3zm-20.5 27a1 1 0 1 1 0-2 1 1 0 0 1 0 2zm-40-20a1 1 0 1 1 0-2 1 1 0 0 1 0 2zm-30-40a1 1 0 1 1 0-2 1 1 0 0 1 0 2zm-30 10a1 1 0 1 1 0-2 1 1 0 0 1 0 2zm-30-20a1 1 0 1 1 0-2 1 1 0 0 1 0 2zm-30 30a1 1 0 1 1 0-2 1 1 0 0 1 0 2zm-60 10a1 1 0 1 1 0-2 1 1 0 0 1 0 2zm10 10a1 1 0 1 1 0-2 1 1 0 0 1 0 2zm4-8a1 1 0 1 1 0-2 1 1 0 0 1 0 2zm-40 40a1 1 0 1 1 0-2 1 1 0 0 1 0 2zm20 30a1 1 0 1 1 0-2 1 1 0 0 1 0 2zm-10-40a1 1 0 1 1 0-2 1 1 0 0 1 0 2zm-50 0a1 1 0 1 1 0-2 1 1 0 0 1 0 2zm20-50a1 1 0 1 1 0-2 1 1 0 0 1 0 2zm-170-10a1 1 0 1 1 0-2 1 1 0 0 1 0 2zm-30-30a1 1 0 1 1 0-2 1 1 0 0 1 0 2zm10 25a1 1 0 1 1 0-2 1 1 0 0 1 0 2zm-30 60a1 1 0 1 1 0-2 1 1 0 0 1 0 2zm-60-70a1 1 0 1 1 0-2 1 1 0 0 1 0 2zm40-20a1 1 0 1 1 0-2 1 1 0 0 1 0 2zm-90 20a1 1 0 1 1 0-2 1 1 0 0 1 0 2zm299 56a1 1 0 1 1 0-2 1 1 0 0 1 0 2zm231 180a1 1 0 1 1 0-2 1 1 0 0 1 0 2zm9.5 5a1.5 1.5 0 1 1 0-3 1.5 1.5 0 0 1 0 3zm-60.5 29a1 1 0 1 1 0-2 1 1 0 0 1 0 2zm10-10a1 1 0 1 1 0-2 1 1 0 0 1 0 2zm-60 60a1 1 0 1 1 0-2 1 1 0 0 1 0 2zm20 30a1 1 0 1 1 0-2 1 1 0 0 1 0 2zm-90-130a1 1 0 1 1 0-2 1 1 0 0 1 0 2zm2-12a1 1 0 1 1 0-2 1 1 0 0 1 0 2zm-5-4a1 1 0 1 1 0-2 1 1 0 0 1 0 2zm16 18a1 1 0 1 1 0-2 1 1 0 0 1 0 2zm-80-41a1 1 0 1 1 0-2 1 1 0 0 1 0 2zm0 20a1 1 0 1 1 0-2 1 1 0 0 1 0 2zm10-10a1 1 0 1 1 0-2 1 1 0 0 1 0 2zm-45-2a1 1 0 1 1 0-2 1 1 0 0 1 0 2zm-10-10a1 1 0 1 1 0-2 1 1 0 0 1 0 2zm-20 21a1 1 0 1 1 0-2 1 1 0 0 1 0 2zm10 20a1 1 0 1 1 0-2 1 1 0 0 1 0 2zm-50 20a1 1 0 1 1 0-2 1 1 0 0 1 0 2zm-4 10a1 1 0 1 1 0-2 1 1 0 0 1 0 2zm-10 10a1 1 0 1 1 0-2 1 1 0 0 1 0 2zm40 35a1 1 0 1 1 0-2 1 1 0 0 1 0 2zm30-10a1 1 0 1 1 0-2 1 1 0 0 1 0 2zm10 10a1 1 0 1 1 0-2 1 1 0 0 1 0 2zm21 21a1 1 0 1 1 0-2 1 1 0 0 1 0 2zm-10 10a1 1 0 1 1 0-2 1 1 0 0 1 0 2zm-240 0a1 1 0 1 1 0-2 1 1 0 0 1 0 2zm-20 10a1 1 0 1 1 0-2 1 1 0 0 1 0 2zm-20 0a1 1 0 1 1 0-2 1 1 0 0 1 0 2zm-60 0a1 1 0 1 1 0-2 1 1 0 0 1 0 2zm-70 40a1 1 0 1 1 0-2 1 1 0 0 1 0 2zm10-20a1 1 0 1 1 0-2 1 1 0 0 1 0 2zm-20-20a1 1 0 1 1 0-2 1 1 0 0 1 0 2zm-50 50a1 1 0 1 1 0-2 1 1 0 0 1 0 2zm-10-10a1 1 0 1 1 0-2 1 1 0 0 1 0 2zm-10-20a1 1 0 1 1 0-2 1 1 0 0 1 0 2zm-20-30a1 1 0 1 1 0-2 1 1 0 0 1 0 2zm-10-20a1 1 0 1 1 0-2 1 1 0 0 1 0 2zm-30 10a1 1 0 1 1 0-2 1 1 0 0 1 0 2zm-10-20a1 1 0 1 1 0-2 1 1 0 0 1 0 2zm70-60a1 1 0 1 1 0-2 1 1 0 0 1 0 2zm393 10a1 1 0 1 1 0-2 1 1 0 0 1 0 2zm-37 40a1 1 0 1 1 0-2 1 1 0 0 1 0 2zm-30 40a1 1 0 1 1 0-2 1 1 0 0 1 0 2zm-90-30a1 1 0 1 1 0-2 1 1 0 0 1 0 2zm-10 10a1 1 0 1 1 0-2 1 1 0 0 1 0 2zm-12-15a1 1 0 1 1 0-2 1 1 0 0 1 0 2zm0 20a1 1 0 1 1 0-2 1 1 0 0 1 0 2zm-20-24a1 1 0 1 1 0-2 1 1 0 0 1 0 2zm-20 20a1 1 0 1 1 0-2 1 1 0 0 1 0 2zm10 10a1 1 0 1 1 0-2 1 1 0 0 1 0 2zm-80 20a1 1 0 1 1 0-2 1 1 0 0 1 0 2zm10-40a1 1 0 1 1 0-2 1 1 0 0 1 0 2zm30-20a1 1 0 1 1 0-2 1 1 0 0 1 0 2zm-41-11a1 1 0 1 1 0-2 1 1 0 0 1 0 2zm-50-10a1 1 0 1 1 0-2 1 1 0 0 1 0 2zm-20-30a1 1 0 1 1 0-2 1 1 0 0 1 0 2zm-40 40a1 1 0 1 1 0-2 1 1 0 0 1 0 2zm30 30a1 1 0 1 1 0-2 1 1 0 0 1 0 2zm-10-40a1 1 0 1 1 0-2 1 1 0 0 1 0 2zm20-120a1 1 0 1 1 0-2 1 1 0 0 1 0 2zm572 67a1 1 0 1 1 0-2 1 1 0 0 1 0 2zm-16-3a1 1 0 1 1 0-2 1 1 0 0 1 0 2zm148-42a2 2 0 1 1 0-4 2 2 0 0 1 0 4zm50-50a2 2 0 1 1 0-4 2 2 0 0 1 0 4zm10 30a2 2 0 1 1 0-4 2 2 0 0 1 0 4zm-60-50a2 2 0 1 1 0-4 2 2 0 0 1 0 4zm-30-30a2 2 0 1 1 0-4 2 2 0 0 1 0 4zm-70-30a2 2 0 1 1 0-4 2 2 0 0 1 0 4zm0 60a2 2 0 1 1 0-4 2 2 0 0 1 0 4zm170-20a2 2 0 1 1 0-4 2 2 0 0 1 0 4zm30 60a2 2 0 1 1 0-4 2 2 0 0 1 0 4zm-20 60a2 2 0 1 1 0-4 2 2 0 0 1 0 4zm40-10a2 2 0 1 1 0-4 2 2 0 0 1 0 4zm30-30a2 2 0 1 1 0-4 2 2 0 0 1 0 4zm30-30a2 2 0 1 1 0-4 2 2 0 0 1 0 4zm50 30a2 2 0 1 1 0-4 2 2 0 0 1 0 4zm-20 60a2 2 0 1 1 0-4 2 2 0 0 1 0 4zm-20 20a2 2 0 1 1 0-4 2 2 0 0 1 0 4zm-30 20a2 2 0 1 1 0-4 2 2 0 0 1 0 4zm-40 20a2 2 0 1 1 0-4 2 2 0 0 1 0 4zm20 10a2 2 0 1 1 0-4 2 2 0 0 1 0 4zm30 40a2 2 0 1 1 0-4 2 2 0 0 1 0 4zm50 0a2 2 0 1 1 0-4 2 2 0 0 1 0 4zm40 35a2 2 0 1 1 0-4 2 2 0 0 1 0 4zm40 50a2 2 0 1 1 0-4 2 2 0 0 1 0 4zm50-30a2 2 0 1 1 0-4 2 2 0 0 1 0 4zm-40-60a2 2 0 1 1 0-4 2 2 0 0 1 0 4zm40-30a2 2 0 1 1 0-4 2 2 0 0 1 0 4zm20 20a2 2 0 1 1 0-4 2 2 0 0 1 0 4zm80 20a2 2 0 1 1 0-4 2 2 0 0 1 0 4zm60 60a2 2 0 1 1 0-4 2 2 0 0 1 0 4zm-70 10a2 2 0 1 1 0-4 2 2 0 0 1 0 4zm20 40a2 2 0 1 1 0-4 2 2 0 0 1 0 4zm-10 10a2 2 0 1 1 0-4 2 2 0 0 1 0 4zm100-110a2 2 0 1 1 0-4 2 2 0 0 1 0 4zm-60-60a2 2 0 1 1 0-4 2 2 0 0 1 0 4zm-40 10a2 2 0 1 1 0-4 2 2 0 0 1 0 4zm120 0a2 2 0 1 1 0-4 2 2 0 0 1 0 4zm10-30a2 2 0 1 1 0-4 2 2 0 0 1 0 4zm-20-50a2 2 0 1 1 0-4 2 2 0 0 1 0 4zm10-80a2 2 0 1 1 0-4 2 2 0 0 1 0 4zm-50 50a2 2 0 1 1 0-4 2 2 0 0 1 0 4zm10-20a2 2 0 1 1 0-4 2 2 0 0 1 0 4zm-70 0a2 2 0 1 1 0-4 2 2 0 0 1 0 4zm-40 40a2 2 0 1 1 0-4 2 2 0 0 1 0 4zm-40-10a2 2 0 1 1 0-4 2 2 0 0 1 0 4zm-30-30a2 2 0 1 1 0-4 2 2 0 0 1 0 4zm-30-30a2 2 0 1 1 0-4 2 2 0 0 1 0 4zm-10-21a2 2 0 1 1 0-4 2 2 0 0 1 0 4zm-50-20a2 2 0 1 1 0-4 2 2 0 0 1 0 4zm40 60a2 2 0 1 1 0-4 2 2 0 0 1 0 4zm-20 20a2 2 0 1 1 0-4 2 2 0 0 1 0 4zm130-90a2 2 0 1 1 0-4 2 2 0 0 1 0 4zm10-40a2 2 0 1 1 0-4 2 2 0 0 1 0 4zm-30-20a2 2 0 1 1 0-4 2 2 0 0 1 0 4zm60-130a2 2 0 1 1 0-4 2 2 0 0 1 0 4zm-80 40a2 2 0 1 1 0-4 2 2 0 0 1 0 4zm20-110a2 2 0 1 1 0-4 2 2 0 0 1 0 4zm40 0a2 2 0 1 1 0-4 2 2 0 0 1 0 4zm40-50a2 2 0 1 1 0-4 2 2 0 0 1 0 4zm20-50a2 2 0 1 1 0-4 2 2 0 0 1 0 4zm60-20a2 2 0 1 1 0-4 2 2 0 0 1 0 4zm0 70a2 2 0 1 1 0-4 2 2 0 0 1 0 4zm-20 30a2 2 0 1 1 0-4 2 2 0 0 1 0 4zm50 80a2 2 0 1 1 0-4 2 2 0 0 1 0 4zm-50 50a2 2 0 1 1 0-4 2 2 0 0 1 0 4zm-60 20a2 2 0 1 1 0-4 2 2 0 0 1 0 4zm-300 426a2 2 0 1 1 0-4 2 2 0 0 1 0 4z"/>
                <g transform="translate(-720 -140)">
                    <mask id="e" fill="#fff">
                        <use xlink:href="#c"/>
                    </mask>
                    <use fill="url(#d)" transform="matrix(1 0 0 -1 0 801)" xlink:href="#c"/>
                    <path fill="#144063" d="M0 0h2880v801H0z" mask="url(#e)"/>
                    <g mask="url(#e)" opacity=".5">
                        <g stroke="#FFF" stroke-linecap="round" opacity=".1">
                            <path d="M1212.5 189.5v99M1212.5 288.5l33-66M1245.5 222.5l-32-33M1213.5 189.5l88 58M1302.5 248.5l-56-27M1301.5 247.5l54-31M1301.5 247.5l40 40M1302.5 285.5l-1-37M1301.5 248.5l-44 54M1257.5 302.5l-12-80M1222.5 286.5l24-65M1341.5 287.5l13-70M1354.5 217.5l58 10M1341.5 288.5l71-61M1411.5 227.5l52 109M1463.5 337.5l-121-49M1357.5 323.5l106 14M1463.5 337.5l-76 27M1406.5 377.5l57-39M1463.5 338.5l-55 67M1464.5 337.5l20-41M1484.5 296.5l-72-68M1412.5 228.5l59 19M1471.5 247.5l2 28M1473.5 275.5l12 21M1485.5 296.5l7-9M1485.5 296.5l7-26M1492.5 270.5l-7-54M1484.5 216.5l1 82M1492.5 287.5l46-7M1538.5 280.5l-36-36M1502.5 244.5l-10 43M1493.5 270.5l9-26M1502.5 244.5l-17-27M1485.5 217.5l9-3M1494.5 214.5l33 1M1527.5 215.5l-24 29M1538.5 280.5l-10-65M1538.5 280.5l9-24M1547.5 255.5l-4-15M1543.5 240.5l-15-25M1212.5 288.5l81 31M1292.5 318.5l10-33M1302.5 284.5l39 3M1341.5 287.5l-40 24M1301.5 311.5l21 21M1292.5 318.5l-19 16M1273.5 334.5l10 11M1283.5 345.5l-61 1M1222.5 346.5l25-33M1247.5 313.5l-35-24M1212.5 289.5l-16 3M1213.5 288.5l8-2M1213.5 288.5l-61 28M1212.5 288.5l-46-26M1166.5 262.5l30 30M1196.5 292.5l-44 24M1152.5 316.5l69 30M1221.5 346.5l-8-57M1222.5 286.5l35 16M1257.5 302.5l35 16M1292.5 318.5l49 53M1341.5 371.5l-10 25M1331.5 396.5l-48-51M1283.5 345.5l-20 29M1263.5 374.5l-16 18M1247.5 392.5l49 1M1297.5 393.5l34 4M1331.5 397.5l55-14M1386.5 383.5l-9 24M1377.5 407.5l30-3M1408.5 405.5l-57 32M1351.5 437.5l-15-25M1336.5 412.5l-4-15M1332.5 397.5l-51 34M1281.5 431.5l71 6M1281.5 431.5l-34-39M1247.5 392.5l-75 49M1172.5 441.5l9-50M1181.5 391.5l65 2M1246.5 393.5l-24-46M1246.5 392.5l7 70M1274.5 479.5l-3 47M1271.5 526.5l51 31M1322.5 557.5l19-97M1341.5 460.5l-67 20M1272.5 526.5l-70 20M1202.5 546.5l-31-30M1171.5 516.5l100 11M1271.5 527.5l70-67M1272.5 526.5l-69 54M1203.5 580.5l-2-34M1201.5 546.5l-17 64M1184.5 610.5l138-54M1184.5 610.5l97 78M1281.5 688.5l41-132M1359.5 575.5l-78 113M1281.5 688.5l87-102M1412.5 576.5l-132 113M1281.5 688.5l-149-61M952.5 626.5l-49 61M903.5 687.5l-41-76M902.5 575.5v114M904.5 688.5l-81-27M902.5 688.5l-90-117M903.5 689.5l119-74M1063.5 615.5l-159 73M904.5 688.5l227-62M1184.5 610.5l19-30M1203.5 580.5l119-24M1171.5 517.5l90-36M1171.5 516.5l82-53M1170.5 517.5v-76M1352.5 437.5l-11 4M1351.5 436.5l-10 24M1341.5 460.5l-10-9M1331.5 451.5l20-14M1331.5 450.5l-50-18M1281.5 432.5l60 9M1330.5 451.5l-54 13M1276.5 464.5l5-32M1281.5 432.5l-12 27M1281.5 432.5l-27 30M1254.5 462.5l7 19M1261.5 481.5l13-1M1274.5 480.5l-2-12M1272.5 468.5l9-36M1270.5 460.5l2 8M1269.5 459.5l-15 3M1272.5 467.5l-11 14M1340.5 461.5l56 19M1351.5 436.5l25 13M1376.5 449.5l9-10M1385.5 439.5l-33-2M1376.5 448.5l20 32M1396.5 480.5l9-20M1405.5 460.5l-30-12M1405.5 460.5l2-55M1407.5 405.5l-21 33M1386.5 438.5l19 21M1296.5 393.5l-33-18M1263.5 375.5l-41-28M1222.5 347.5l-41 44M1181.5 391.5l-30-75M1182.5 391.5l-60-44M1121.5 346.5l30-30M1151.5 316.5l-65-25M1086.5 291.5l-9 21M1077.5 312.5l74 5M1151.5 317.5l-79 51M1072.5 368.5l49-21M1072.5 368.5l109 23M1181.5 391.5h-76M1105.5 392.5l16 25M1121.5 417.5l50 24M1171.5 441.5l-76-20M1095.5 421.5l27-4M1122.5 417.5l-60-21M1062.5 396.5l10-27M1072.5 369.5l34 23M1106.5 392.5l-44 4M1122.5 416.5l60-25M1073.5 368.5l4-56M1077.5 312.5l-25 14M1051.5 327.5l22 42M1072.5 367.5l-50-29M1022.5 338.5l15-6M1037.5 332.5l34 34M1037.5 332.5l14-5M1052.5 326.5l-16-24M1036.5 302.5v30M1037.5 332.5l-21-28M1016.5 304.5l7 35M1016.5 304.5l-10-33M1006.5 271.5l30 30M1036.5 301.5l49-10M1086.5 291.5l20-18M1107.5 272.5l29 10M1136.5 282.5l15 33M1151.5 316.5l15-54M1166.5 262.5l-29 20M1166.5 262.5l-100-51M1066.5 211.5l41 61M1137.5 282.5l-70-70M1066.5 211.5l-12 45M1054.5 256.5l52 16M1086.5 291.5l-32-34M1006.5 271.5l48-15M1005.5 272.5l-24 39M981.5 311.5l35-6M1022.5 338.5l-40-27M981.5 311.5l-5 4M976.5 315.5l45 24M976.5 315.5l-44-35M932.5 279.5l49 32M937.5 321.5l39-6M941.5 361.5l81-22M941.5 361.5l-4-39M937.5 322.5l-10-10M927.5 312.5l49 3M927.5 312.5l5-32M887.5 332.5l40-21M886.5 332.5l50-10M936.5 322.5l-43 63M893.5 385.5l-6-53M887.5 332.5l-25 8M862.5 340.5l31 45M893.5 385.5l49-24M942.5 361.5v16M942.5 377.5l-49 8M893.5 385.5l-2 21M877.5 381.5l16 4M893.5 385.5l-52 35M822.5 400.5l71-15M893.5 385.5l40 10M933.5 395.5l39 6M972.5 401.5l-31-25M942.5 361.5l79 25M1022.5 386.5l1-47M1023.5 339.5l39 57M1062.5 396.5l-40-10M1021.5 386.5l-38 9M983.5 395.5l-1 34M982.5 429.5l40-42M972.5 407.5l10 21M982.5 428.5l-29-22M971.5 406.5l1-5M932.5 395.5l21 11M953.5 406.5h-61M892.5 406.5l90 23M982.5 429.5l20 8M1002.5 437.5l-7 4M995.5 441.5l-13-12M972.5 401.5l10-6M982.5 395.5l-40-18M942.5 376.5l79 10M1021.5 386.5l21 60M1042.5 446.5l-40-10M1002.5 436.5l51 69M1053.5 505.5l13-64M1066.5 441.5l29-20M1095.5 421.5l-33-24M1062.5 397.5l3 44M1065.5 441.5l-23 5M1042.5 446.5l19-49M1042.5 446.5l11 59M1053.5 505.5l42-83M1093.5 486.5l3-65M1053.5 505.5l-52 21M1001.5 526.5l-6-84M1002.5 526.5v-89M1001.5 526.5l-20 10M961.5 506.5l40 20M1001.5 526.5l-19-97M982.5 429.5l-26 52M962.5 506.5l20-77M982.5 429.5l-70 37M931.5 487.5l50-57M923.5 508.5l8-21M931.5 487.5l24-6M955.5 481.5l6 25M961.5 506.5l-39 2M922.5 508.5l-11-41M911.5 467.5l21 19M932.5 486.5l30 20M962.5 506.5l20 30M982.5 536.5l-10 15M972.5 551.5l-49-42M923.5 509.5l59 27M1001.5 526.5l100 70M1102.5 596.5l-29 9M1073.5 605.5l-10 10M1063.5 615.5h-40M1023.5 615.5l-21-88M1002.5 526.5l60 89M1072.5 605.5l-70-79M1023.5 615.5l-41-30M982.5 585.5l19-58M1001.5 527.5l-29 25M972.5 552.5l10 33M982.5 585.5l-30-9M952.5 576.5l20-25M972.5 551.5l-71 25M901.5 576.5l51 50M952.5 626.5v-50M952.5 576.5h-50M922.5 508.5l-21 69M862.5 611.5l39-34M902.5 576.5l-91-5M811.5 571.5l111-62M922.5 508.5l-130-20M792.5 488.5l20 83M772.5 541.5l40 30M812.5 571.5l-40 60M772.5 631.5l50 30M771.5 632.5v-90M771.5 542.5l-20 20M772.5 541.5l20-53M792.5 488.5l-51-47M741.5 441.5l30 101M741.5 441.5l-39 10M702.5 451.5l60-63M762.5 388.5l-100 23M671.5 541.5l70-99M741.5 442.5l11 119M752.5 561.5l-80-20M672.5 542.5l100 89M771.5 631.5l-19-70M682.5 651.5l89-20M771.5 631.5l-99-49M741.5 441.5l181 67M922.5 508.5l-81-88M841.5 420.5l70 47M841.5 420.5l-19-20M822.5 400.5l-51 11M771.5 411.5l70 9M841.5 420.5l-99 21M742.5 441.5l29-30M771.5 411.5l-9-23M762.5 388.5l40-7M802.5 381.5l19 19M821.5 400.5l-57-11M802.5 382.5l10-22M812.5 360.5l64 21M876.5 381.5l-14-41M862.5 340.5l-50 20M812.5 360.5l-30-12M782.5 348.5l20 33M762.5 388.5l20-40M782.5 348.5l79-8M782.5 348.5l-70-18M711.5 330.5l51 58M702.5 291.5l29-21M732.5 270.5l70-42M802.5 228.5h81M802.5 228.5l-90 102M711.5 330.5l21-59M862.5 340.5l21-111M883.5 229.5l48 50M982.5 312.5l-86-186M896.5 126.5l36 153M882.5 228.5l14-102M896.5 126.5l-94 103M732.5 270.5l164-145M896.5 126.5l109 145M1054.5 256.5l-158-130M896.5 126.5l169 85M896.5 125.5l318 65M927.5 312.5l-45-84M882.5 228.5l4 104M783.5 348.5l99-121M711.5 330.5l171-102M1323.5 335.5l65 29M1388.5 364.5l-47 7M1341.5 371.5l-19-37M1322.5 334.5l35-11M1357.5 323.5l31 41M1388.5 364.5l19 40M1407.5 404.5l-20-21M1408.5 405.5l-1-27M1407.5 378.5l-19-14M1356.5 322.5l-15-34M1322.5 332.5l-30-13M1292.5 319.5l9-8M1301.5 311.5l32 4M1333.5 315.5l-12 17M1528.5 215.5l-25-12M1503.5 203.5l-9 10M1485.5 216.5l18-13M1527.5 215.5l11-3M1538.5 212.5l5 27M1548.5 255.5v-54M1548.5 201.5l-10 10M1527.5 215.5l11-23M1539.5 191.5l-1 20M1504.5 203.5l-20-30M1484.5 173.5l1 43M1485.5 216.5l-11-23M1538.5 191.5l-35 12M1539.5 191.5l9 10M1474.5 192.5l9-19M1549.5 201.5l48 19M1597.5 220.5l-50 35M1547.5 255.5l35 4M1582.5 259.5l16-39M1598.5 220.5l11-27M1598.5 220.5l5-31M1603.5 189.5l6 3M1609.5 192.5l16-3M1625.5 189.5l-6-19M1619.5 170.5l-11 14M1608.5 184.5l-3-11M1605.5 173.5l-2 15M1603.5 188.5l4-3M1607.5 185.5l3 8M1608.5 185.5l17 4M1625.5 189.5l-27 32M1598.5 221.5l34 38M1632.5 259.5l-6-69M1616.5 278.5l16-18M1616.5 277.5l-34-18M1617.5 277.5l-19-55M1617.5 277.5l40 28M1657.5 305.5l-60 2M1597.5 307.5l-40 10M1557.5 317.5l-19-36M1538.5 281.5l58 26M1596.5 307.5l10 10M1606.5 317.5l-48 4M1546.5 336.5l12-16M1557.5 321.5l20 19M1577.5 340.5l-31-3M1546.5 337.5l-23-7M1523.5 330.5l34-10M1522.5 330.5l15-49M1578.5 340.5l28-22M1606.5 318.5l51-12M1657.5 306.5l1 59M1658.5 365.5l-21-17M1637.5 348.5l-14 2M1623.5 350.5l9-10M1632.5 340.5l-25-22M1578.5 340.5l45 10M1633.5 340.5l24-34M1657.5 306.5l-20 41M1637.5 347.5l-4-7M1657.5 365.5l-34-15M1658.5 305.5l24 54M1682.5 359.5l-24 6M1658.5 306.5l69 7M1727.5 313.5l1 22M1728.5 335.5l-45 24M1683.5 359.5l29 30M1712.5 389.5l-55-24M1713.5 390.5l14-54M1713.5 390.5l64-27M1777.5 363.5l-35 7M1742.5 370.5l30 9M1772.5 379.5l22-18M1794.5 361.5l-17 2M1777.5 363.5l26-23M1777.5 363.5l-49-49M1728.5 314.5l75 25M1803.5 339.5l25-13M1828.5 326.5l-20-40M1808.5 286.5v-22M1807.5 264.5l-49 41M1758.5 305.5l69 20M1757.5 305.5l51-19M1827.5 326.5l16 24M1843.5 350.5l23 17M1866.5 367.5l-3-20M1863.5 347.5l24-40M1887.5 307.5l-44 12M1843.5 319.5l-15 6M1794.5 361.5l49-10M1867.5 367.5l6 13M1873.5 380.5l85 36M1958.5 416.5l-41-70M1917.5 346.5l-43 34M1874.5 380.5l24-40M1898.5 340.5l-31 27M1897.5 341.5l-10-33M1887.5 307.5l16 30M1917.5 346.5l-14-10M1917.5 346.5l21-56M1943.5 330.5l-5-39M1952.5 340.5l-9-10M1943.5 330.5l49-10M1952.5 341.5l40-21M1992.5 320.5l66 26M2058.5 346.5l-41-35M2017.5 311.5l-24 9M1993.5 320.5l-6-53M1993.5 321.5l10-50M2003.5 271.5l15 40M2018.5 311.5l49-19M2059.5 346.5l9-55M2068.5 291.5l10-20M2067.5 292.5l-9-40M2058.5 252.5l-40 59M1953.5 340.5l-36 6M1918.5 345.5l25-15M1918.5 347.5l140-2M1958.5 415.5l100-69M2059.5 347.5l58 59M2117.5 406.5l31-25M2148.5 381.5l-89-35M2059.5 346.5l119 15M2167.5 321.5l-108 25M2059.5 346.5l68 125M2127.5 471.5l-10-65M2128.5 471.5l50-110M2178.5 361.5l-30 20M2148.5 381.5l-20 90M2167.5 321.5l-29-110M2107.5 240.5l60 81M2167.5 321.5l-89-51M2068.5 291.5l99 30M2137.5 210.5l40-9M2226.5 451.5l-98 20M2128.5 471.5l79 41M2077.5 547.5l50-76M2048.5 506.5l78-34M2127.5 472.5l20 109M2098.5 595.5l29-124M2127.5 471.5l60 110M2047.5 505.5l-89-88M2047.5 507.5l11-160M2047.5 507.5l30 39M2077.5 546.5l21 50M2098.5 596.5l49-15M2147.5 581.5h40M2047.5 506.5l-80 99M1967.5 605.5l132-10M1967.5 605.5l110-58M1928.5 516.5l119-10M1967.5 606.5l-39-90M1928.5 516.5l29-100M1957.5 416.5l-53 74M1904.5 490.5l24 26M1928.5 516.5l-14 14M1929.5 556.5l-2-40M1918.5 575.5l-4-45M1914.5 530.5l-50 20M1864.5 550.5l2-25M1866.5 525.5l62-9M1928.5 516.5l-69-21M1859.5 495.5l-13 20M1846.5 515.5h81M1846.5 515.5l19 10M1864.5 550.5l-18-34M1845.5 515.5l-19-29M1826.5 486.5l32 9M1858.5 495.5l46-5M1904.5 490.5l-30-109M1874.5 381.5l-60 59M1814.5 440.5l12 45M1859.5 495.5l15-115M1874.5 380.5l-48 15M1826.5 395.5l-13 46M1813.5 441.5l-8 74M1805.5 515.5l31 41M1836.5 556.5l53 10M1889.5 566.5l-26-16M1863.5 550.5l-27 6M1889.5 566.5l29 9M1889.5 565.5l25-35M1918.5 575.5l11-20M1929.5 555.5l38 49M1924.5 611.5l5-56M1919.5 575.5l4 35M1919.5 574.5l-40 11M1879.5 585.5l-36 15M1843.5 600.5l-7-45M1836.5 555.5l-42 5M1836.5 555.5l-22 56M1838.5 645.5l6-45M1844.5 600.5l14 15M1858.5 615.5l21-30M1879.5 585.5l10-20M1814.5 610.5l-22-50M1793.5 560.5l-4 35M1794.5 560.5l-40 36M1745.5 556.5l48 4M1793.5 560.5l-38-35M1793.5 561.5l12-45M1778.5 636.5l35-25M1813.5 611.5l-24-15M1789.5 596.5l-20 19M1769.5 615.5l-14-19M1755.5 596.5l-20 4M1734.5 600.5l11-44M1734.5 600.5l59-40M1745.5 556.5l10-31M1755.5 525.5l50-9M1754.5 525.5l59-85M1755.5 525.5l17-145M1793.5 360.5l33 35M1715.5 535.5l40-10M1714.5 536.5l58-156M1772.5 380.5l-59 9M1713.5 389.5l2 147M1715.5 536.5l30 20M1709.5 596.5l5-59M1715.5 536.5l-2 73M1713.5 610.5l20-10M1713.5 611.5l-4-15M1779.5 636.5l-10-21M1713.5 610.5l-65-15M1713.5 611.5v107M1779.5 635.5l-67 82M1768.5 615.5l-55 102M1713.5 717.5l20-116M1713.5 718.5l-64-123M1712.5 719.5l102-109M1713.5 717.5l-84-121M1648.5 595.5l26-25M1674.5 570.5v6M1675.5 576.5l33 19M1708.5 595.5l-23-29M1685.5 566.5l-20-20M1665.5 546.5l9 24M1674.5 577.5l11-11M1685.5 566.5l-12 5M1673.5 571.5h-28M1645.5 570.5l-17 25M1628.5 595.5h20M1627.5 594.5l-18-8M1609.5 586.5l24-21M1633.5 565.5l12 5M1645.5 570.5v-19M1645.5 551.5l-22 5M1645.5 551.5l19-5M1574.5 501.5l90 45M1645.5 550.5l-71-49M1574.5 501.5l49 54M1665.5 546.5l48-157M1713.5 389.5l-79 41M1634.5 430.5l-60 70M1574.5 500.5l139-111M1634.5 430.5l-56-26M1578.5 404.5l-5 97M1578.5 404.5l135-15M1713.5 389.5l-136-22M1577.5 367.5l81-2M1577.5 404.5v-37M1576.5 367.5l2-27M1578.5 340.5l-40 24M1534.5 357.5l43-16M1534.5 357.5l12-20M1537.5 364.5l40 3M1537.5 364.5l40 40M1534.5 357.5l-70-19M1463.5 337.5l59-7M1522.5 330.5l-37-33M1492.5 287.5l30 42M1464.5 337.5l4 87M1468.5 424.5l65-66M1533.5 358.5l4 6M1537.5 364.5l-69 61M1468.5 425.5l109-20M1577.5 405.5l-83 105M1494.5 510.5l-26-86M1467.5 425.5l-59-20M1406.5 459.5l61-34M1467.5 425.5l-21 74M1446.5 499.5l19 6M1465.5 505.5l3-81M1465.5 505.5l28 6M1493.5 511.5l-33 8M1460.5 519.5l5-14M1465.5 505.5l-15 4M1446.5 499.5l-40-39M1406.5 460.5l5 116M1411.5 577.5l-15-98M1396.5 479.5l-7 65M1389.5 544.5l23 32M1380.5 555.5l10-11M1380.5 555.5l-58 2M1322.5 556.5l74-77M1322.5 556.5l37 19M1359.5 575.5l9 10M1369.5 586.5l42-11M1369.5 585.5l11-31M1380.5 554.5l-21 21M1379.5 555.5l33 21M1420.5 554.5l83-9M1503.5 545.5l-43-25M1503.5 545.5l-10-34M1503.5 545.5l30 40M1494.5 510.5l79-10M1411.5 576.5l9-22M1420.5 554.5l26-55M1446.5 499.5l3 10M1449.5 509.5l10 11M1459.5 519.5l-39 35M1154.5 529.5l29 80M1154.5 529.5l48 18M1154.5 529.5l17-12M1171.5 517.5l-28 2M1143.5 519.5l-12 17M1131.5 536.5l22-7M1153.5 529.5l-9-10M1144.5 519.5l-42-24M1102.5 495.5l20 46M1122.5 541.5l9-4M1131.5 537.5l-29 59M1102.5 596.5l30 31M1132.5 627.5v-91M1133.5 536.5l50 74M1121.5 541.5l-19 54M1102.5 595.5l-50-90M1052.5 505.5l69 36M1121.5 541.5l-28-41M1093.5 500.5l9-5M1102.5 495.5l-9-10M1093.5 485.5v15M1093.5 500.5l-40 5M1053.5 505.5l40-20M1093.5 485.5l78-44M1171.5 441.5l-68 54M1172.5 440.5l-29 79M1420.5 554.5l-14-95M1658.5 306.5l39-45M1697.5 261.5l-64-2M1616.5 277.5l82-16M1697.5 260.5l30 52M1727.5 312.5l31-7M1758.5 305.5l-1-69M1728.5 313.5l20-80M1727.5 314.5l30-78M1748.5 233.5l-61-20M1687.5 213.5l41 101M1698.5 260.5l-11-46M1687.5 213.5l20-3M1688.5 213.5l-56 46M1625.5 189.5l62 24M1707.5 210.5l40 22M1747.5 233.5l10 2M1757.5 235.5l26-4M1783.5 231.5l-10 30M1773.5 261.5l-16-26M1774.5 260.5l33 3M1807.5 263.5l-23-33M1784.5 230.5l34 25M1818.5 255.5l-4-45M1814.5 210.5l23-5M1814.5 211.5l-31 19M1807.5 263.5l10-7M1818.5 256.5l19-51M1837.5 205.5l20 60M1857.5 265.5l39-8M1896.5 257.5l11-7M1907.5 250.5l-30-35M1877.5 215.5l19 41M1858.5 265.5l19-50M1877.5 215.5l-39-10M1817.5 255.5l40 10M1857.5 265.5l-50-1M1877.5 215.5l7-5M1884.5 210.5l23 36M1907.5 246.5v4M1908.5 245.5l15-75M1923.5 170.5l-40 40M1923.5 171.5l44 14M1924.5 170.5l2 76M1907.5 246.5l19 1M1907.5 251.5l20-4M1927.5 247.5l20 9M1947.5 256.5l20-71M1967.5 185.5l20 11M1967.5 185.5l90-59M2057.5 126.5l-133 44M1939.5 103.5l-16 67M1736.5 132.5l49 19M1736.5 132.5l11 100M1748.5 232.5l29-75M1758.5 235.5l19-79M1757.5 235.5l30-68M1757.5 235.5l56-25M1708.5 210.5l28-78M1707.5 210.5v-74M1688.5 213.5l19-79M1688.5 213.5l-10-107M1677.5 106.5l-58 64M1619.5 170.5l-14-44M1605.5 126.5v46M1605.5 172.5l14-2M1619.5 170.5l68 43M1598.5 220.5l-98-122M1500.5 98.5l106 74M1602.5 189.5l-103-93M1420.5 132.5l5 14M1425.5 146.5l34-48M1484.5 173.5l-24-76M1484.5 172.5l6-64M1490.5 108.5l107 112M1490.5 107.5l48 84M1504.5 203.5l-14-96M1424.5 149.5l-70 67M1354.5 216.5h130M1474.5 193.5l-41-41M1433.5 152.5l-8-5M1414.5 146.5h10M1414.5 146.5l-28-5M1377.5 107.5l-22 108M1355.5 215.5l31-73M1164.5 115.5l49 73M1213.5 188.5l72-71M1214.5 105.5v83M1213.5 188.5l93-37M1213.5 188.5l141 28M1212.5 188.5l-88-61M1073.5 137.5l140 51M1033.5 137.5l177 51M976.5 162.5l-79-36M975.5 161.5l45-5M1020.5 156.5l33 10M1053.5 166.5l12 45M1065.5 211.5l-45-54M1020.5 156.5l-122-30M751.5 181.5l144-56M672.5 140.5l79 40M751.5 180.5l-100 20M752.5 180.5l-21 89M731.5 269.5l-80-69M1284.5 117.5l22 34M1306.5 151.5l48 64M1305.5 152.5l72-46M1819.5 44.5l18 120M1837.5 164.5l40-39M1897.5 115.5l20 30M1917.5 145.5l21-41M1918.5 145.5l-80 19M1838.5 164.5l85 6M1923.5 170.5l-6-24M1923.5 170.5l-86 35M1837.5 205.5v-39M1836.5 166.5l-23 44M1813.5 210.5l-26-43M1838.5 164.5l-61-8M1786.5 152.5l51 11M1837.5 163.5l-11-16M1787.5 166.5l50-2M1787.5 167.5l-10-10M1777.5 156.5l9-4M1786.5 152.5l32-108M1818.5 44.5l8 102M1786.5 152.5l-28-41M1987.5 196.5l71-71M2058.5 125.5l-21 106M2057.5 122.5l51 118M2138.5 211.5l-78-84M2178.5 201.5l-120-75M2059.5 125.5l219 95M2318.5 191.5l-260-65M1966.5 186.5l-40 61M1968.5 185.5l19 60M1988.5 196.5v49M1988.5 245.5l-41 11M1947.5 256.5l-10 20M1937.5 276.5l-10-30M1907.5 251.5l30 24M1937.5 275.5l-40-18M1887.5 307.5l50-32M1937.5 276.5v14M1938.5 290.5l50-44M1988.5 246.5l-50 29M1988.5 245.5l-1 21M1987.5 266.5l16 4M2003.5 270.5l34-38M2037.5 232.5l-49 14M1987.5 196.5l50 35M2037.5 231.5l-50 35M1987.5 266.5l-49 24M2037.5 231.5l20 20M2058.5 251.5l-55 19M2058.5 251.5l20 19M2078.5 270.5l29-30M2107.5 240.5l-49 11M2038.5 231.5l70 9M2108.5 240.5l29-29M1938.5 275.5l-81-9"/>
                        </g>
                        <path fill="url(#f)" d="M846 564a2 2 0 1 1 0-4 2 2 0 0 1 0 4zm-80-10a2 2 0 1 1 0-4 2 2 0 0 1 0 4zm-60-70a2 2 0 1 1 0-4 2 2 0 0 1 0 4zM526 664a2 2 0 1 1 0-4 2 2 0 0 1 0 4zm140-40a2 2 0 1 1 0-4 2 2 0 0 1 0 4zm-40 40a2 2 0 1 1 0-4 2 2 0 0 1 0 4zm-20-10a2 2 0 1 1 0-4 2 2 0 0 1 0 4zm0 70a2 2 0 1 1 0-4 2 2 0 0 1 0 4zm-50 0a2 2 0 1 1 0-4 2 2 0 0 1 0 4zm-60-70a2 2 0 1 1 0-4 2 2 0 0 1 0 4zm50-40a2 2 0 1 1 0-4 2 2 0 0 1 0 4zm-120-30a2 2 0 1 1 0-4 2 2 0 0 1 0 4zm10-40a2 2 0 1 1 0-4 2 2 0 0 1 0 4zm40 60a2 2 0 1 1 0-4 2 2 0 0 1 0 4zm-60 60a2 2 0 1 1 0-4 2 2 0 0 1 0 4zm110-170a2 2 0 1 1 0-4 2 2 0 0 1 0 4zm-60-60a2 2 0 1 1 0-4 2 2 0 0 1 0 4zm30-30a2 2 0 1 1 0-4 2 2 0 0 1 0 4zm50 10a2 2 0 1 1 0-4 2 2 0 0 1 0 4zm20-100a2 2 0 1 1 0-4 2 2 0 0 1 0 4zm-40-50a2 2 0 1 1 0-4 2 2 0 0 1 0 4zm30 20a2 2 0 1 1 0-4 2 2 0 0 1 0 4zm-140-60a2 2 0 1 1 0-4 2 2 0 0 1 0 4zm40 40a2 2 0 1 1 0-4 2 2 0 0 1 0 4zm-24 40a2 2 0 1 1 0-4 2 2 0 0 1 0 4zm-30 40a2 2 0 1 1 0-4 2 2 0 0 1 0 4zm40 50a2 2 0 1 1 0-4 2 2 0 0 1 0 4zm-10-240a2 2 0 1 1 0-4 2 2 0 0 1 0 4zm150 10a2 2 0 1 1 0-4 2 2 0 0 1 0 4zm50 100a2 2 0 1 1 0-4 2 2 0 0 1 0 4zm10 50a2 2 0 1 1 0-4 2 2 0 0 1 0 4zm100-40a2 2 0 1 1 0-4 2 2 0 0 1 0 4zm60 60a2 2 0 1 1 0-4 2 2 0 0 1 0 4zm-20 40a2 2 0 1 1 0-4 2 2 0 0 1 0 4zm-20 20a2 2 0 1 1 0-4 2 2 0 0 1 0 4zm40 24a2 2 0 1 1 0-4 2 2 0 0 1 0 4zm-40 40a2 2 0 1 1 0-4 2 2 0 0 1 0 4zm110 20a2 2 0 1 1 0-4 2 2 0 0 1 0 4zm60-20a2 2 0 1 1 0-4 2 2 0 0 1 0 4zm20-40a2 2 0 1 1 0-4 2 2 0 0 1 0 4zm56 32a2 2 0 1 1 0-4 2 2 0 0 1 0 4zm-20 40a2 2 0 1 1 0-4 2 2 0 0 1 0 4zm-60 140a2 2 0 1 1 0-4 2 2 0 0 1 0 4zm90-20a2 2 0 1 1 0-4 2 2 0 0 1 0 4zm50-30a2 2 0 1 1 0-4 2 2 0 0 1 0 4zm70 20a2 2 0 1 1 0-4 2 2 0 0 1 0 4zm30-30a2 2 0 1 1 0-4 2 2 0 0 1 0 4zm40 20a2 2 0 1 1 0-4 2 2 0 0 1 0 4zm0 90a2 2 0 1 1 0-4 2 2 0 0 1 0 4zm30-30a2 2 0 1 1 0-4 2 2 0 0 1 0 4zm39 18a1 1 0 1 1 0-2 1 1 0 0 1 0 2zm-10-10a1 1 0 1 1 0-2 1 1 0 0 1 0 2zm50 10a1 1 0 1 1 0-2 1 1 0 0 1 0 2zm40-30a1 1 0 1 1 0-2 1 1 0 0 1 0 2zm-70-80a1 1 0 1 1 0-2 1 1 0 0 1 0 2zm-40-20a1 1 0 1 1 0-2 1 1 0 0 1 0 2zm110-90a1 1 0 1 1 0-2 1 1 0 0 1 0 2zm30 10a1 1 0 1 1 0-2 1 1 0 0 1 0 2zm20-10a1 1 0 1 1 0-2 1 1 0 0 1 0 2zm40-10a1 1 0 1 1 0-2 1 1 0 0 1 0 2zm16-4a1 1 0 1 1 0-2 1 1 0 0 1 0 2zm-10-50a1 1 0 1 1 0-2 1 1 0 0 1 0 2zm-40-20a1 1 0 1 1 0-2 1 1 0 0 1 0 2zm-10 10a1 1 0 1 1 0-2 1 1 0 0 1 0 2zm-39.5-6a1.5 1.5 0 1 1 0-3 1.5 1.5 0 0 1 0 3zm-40-10a1.5 1.5 0 1 1 0-3 1.5 1.5 0 0 1 0 3zm-20.5 27a1 1 0 1 1 0-2 1 1 0 0 1 0 2zm-40-20a1 1 0 1 1 0-2 1 1 0 0 1 0 2zm-30-40a1 1 0 1 1 0-2 1 1 0 0 1 0 2zm-30 10a1 1 0 1 1 0-2 1 1 0 0 1 0 2zm-30-20a1 1 0 1 1 0-2 1 1 0 0 1 0 2zm-30 30a1 1 0 1 1 0-2 1 1 0 0 1 0 2zm-60 10a1 1 0 1 1 0-2 1 1 0 0 1 0 2zm10 10a1 1 0 1 1 0-2 1 1 0 0 1 0 2zm4-8a1 1 0 1 1 0-2 1 1 0 0 1 0 2zm-40 40a1 1 0 1 1 0-2 1 1 0 0 1 0 2zm20 30a1 1 0 1 1 0-2 1 1 0 0 1 0 2zm-10-40a1 1 0 1 1 0-2 1 1 0 0 1 0 2zm-50 0a1 1 0 1 1 0-2 1 1 0 0 1 0 2zm20-50a1 1 0 1 1 0-2 1 1 0 0 1 0 2zm-170-10a1 1 0 1 1 0-2 1 1 0 0 1 0 2zm-30-30a1 1 0 1 1 0-2 1 1 0 0 1 0 2zm10 25a1 1 0 1 1 0-2 1 1 0 0 1 0 2zm-30 60a1 1 0 1 1 0-2 1 1 0 0 1 0 2zm-60-70a1 1 0 1 1 0-2 1 1 0 0 1 0 2zm40-20a1 1 0 1 1 0-2 1 1 0 0 1 0 2zm-90 20a1 1 0 1 1 0-2 1 1 0 0 1 0 2zm299 56a1 1 0 1 1 0-2 1 1 0 0 1 0 2zm231 180a1 1 0 1 1 0-2 1 1 0 0 1 0 2zm9.5 5a1.5 1.5 0 1 1 0-3 1.5 1.5 0 0 1 0 3zm-60.5 29a1 1 0 1 1 0-2 1 1 0 0 1 0 2zm10-10a1 1 0 1 1 0-2 1 1 0 0 1 0 2zm-60 60a1 1 0 1 1 0-2 1 1 0 0 1 0 2zm20 30a1 1 0 1 1 0-2 1 1 0 0 1 0 2zm-90-130a1 1 0 1 1 0-2 1 1 0 0 1 0 2zm2-12a1 1 0 1 1 0-2 1 1 0 0 1 0 2zm-5-4a1 1 0 1 1 0-2 1 1 0 0 1 0 2zm16 18a1 1 0 1 1 0-2 1 1 0 0 1 0 2zm-80-41a1 1 0 1 1 0-2 1 1 0 0 1 0 2zm0 20a1 1 0 1 1 0-2 1 1 0 0 1 0 2zm10-10a1 1 0 1 1 0-2 1 1 0 0 1 0 2zm-45-2a1 1 0 1 1 0-2 1 1 0 0 1 0 2zm-10-10a1 1 0 1 1 0-2 1 1 0 0 1 0 2zm-20 21a1 1 0 1 1 0-2 1 1 0 0 1 0 2zm10 20a1 1 0 1 1 0-2 1 1 0 0 1 0 2zm-50 20a1 1 0 1 1 0-2 1 1 0 0 1 0 2zm-4 10a1 1 0 1 1 0-2 1 1 0 0 1 0 2zm-10 10a1 1 0 1 1 0-2 1 1 0 0 1 0 2zm40 35a1 1 0 1 1 0-2 1 1 0 0 1 0 2zm30-10a1 1 0 1 1 0-2 1 1 0 0 1 0 2zm10 10a1 1 0 1 1 0-2 1 1 0 0 1 0 2zm21 21a1 1 0 1 1 0-2 1 1 0 0 1 0 2zm-10 10a1 1 0 1 1 0-2 1 1 0 0 1 0 2zm-240 0a1 1 0 1 1 0-2 1 1 0 0 1 0 2zm-20 10a1 1 0 1 1 0-2 1 1 0 0 1 0 2zm-20 0a1 1 0 1 1 0-2 1 1 0 0 1 0 2zm-60 0a1 1 0 1 1 0-2 1 1 0 0 1 0 2zm-70 40a1 1 0 1 1 0-2 1 1 0 0 1 0 2zm10-20a1 1 0 1 1 0-2 1 1 0 0 1 0 2zm-20-20a1 1 0 1 1 0-2 1 1 0 0 1 0 2zm-50 50a1 1 0 1 1 0-2 1 1 0 0 1 0 2zm-10-10a1 1 0 1 1 0-2 1 1 0 0 1 0 2zm-10-20a1 1 0 1 1 0-2 1 1 0 0 1 0 2zm-20-30a1 1 0 1 1 0-2 1 1 0 0 1 0 2zm-10-20a1 1 0 1 1 0-2 1 1 0 0 1 0 2zm-30 10a1 1 0 1 1 0-2 1 1 0 0 1 0 2zm-10-20a1 1 0 1 1 0-2 1 1 0 0 1 0 2zm70-60a1 1 0 1 1 0-2 1 1 0 0 1 0 2zm393 10a1 1 0 1 1 0-2 1 1 0 0 1 0 2zm-37 40a1 1 0 1 1 0-2 1 1 0 0 1 0 2zm-30 40a1 1 0 1 1 0-2 1 1 0 0 1 0 2zm-90-30a1 1 0 1 1 0-2 1 1 0 0 1 0 2zm-10 10a1 1 0 1 1 0-2 1 1 0 0 1 0 2zm-12-15a1 1 0 1 1 0-2 1 1 0 0 1 0 2zm0 20a1 1 0 1 1 0-2 1 1 0 0 1 0 2zm-20-24a1 1 0 1 1 0-2 1 1 0 0 1 0 2zm-20 20a1 1 0 1 1 0-2 1 1 0 0 1 0 2zm10 10a1 1 0 1 1 0-2 1 1 0 0 1 0 2zm-80 20a1 1 0 1 1 0-2 1 1 0 0 1 0 2zm10-40a1 1 0 1 1 0-2 1 1 0 0 1 0 2zm30-20a1 1 0 1 1 0-2 1 1 0 0 1 0 2zm-41-11a1 1 0 1 1 0-2 1 1 0 0 1 0 2zm-50-10a1 1 0 1 1 0-2 1 1 0 0 1 0 2zm-20-30a1 1 0 1 1 0-2 1 1 0 0 1 0 2zm-40 40a1 1 0 1 1 0-2 1 1 0 0 1 0 2zm30 30a1 1 0 1 1 0-2 1 1 0 0 1 0 2zm-10-40a1 1 0 1 1 0-2 1 1 0 0 1 0 2zm20-120a1 1 0 1 1 0-2 1 1 0 0 1 0 2zm572 67a1 1 0 1 1 0-2 1 1 0 0 1 0 2zm-16-3a1 1 0 1 1 0-2 1 1 0 0 1 0 2zm148-42a2 2 0 1 1 0-4 2 2 0 0 1 0 4zm50-50a2 2 0 1 1 0-4 2 2 0 0 1 0 4zm10 30a2 2 0 1 1 0-4 2 2 0 0 1 0 4zm-60-50a2 2 0 1 1 0-4 2 2 0 0 1 0 4zm-30-30a2 2 0 1 1 0-4 2 2 0 0 1 0 4zm-70-30a2 2 0 1 1 0-4 2 2 0 0 1 0 4zm0 60a2 2 0 1 1 0-4 2 2 0 0 1 0 4zm170-20a2 2 0 1 1 0-4 2 2 0 0 1 0 4zm30 60a2 2 0 1 1 0-4 2 2 0 0 1 0 4zm-20 60a2 2 0 1 1 0-4 2 2 0 0 1 0 4zm40-10a2 2 0 1 1 0-4 2 2 0 0 1 0 4zm30-30a2 2 0 1 1 0-4 2 2 0 0 1 0 4zm30-30a2 2 0 1 1 0-4 2 2 0 0 1 0 4zm50 30a2 2 0 1 1 0-4 2 2 0 0 1 0 4zm-20 60a2 2 0 1 1 0-4 2 2 0 0 1 0 4zm-20 20a2 2 0 1 1 0-4 2 2 0 0 1 0 4zm-30 20a2 2 0 1 1 0-4 2 2 0 0 1 0 4zm-40 20a2 2 0 1 1 0-4 2 2 0 0 1 0 4zm20 10a2 2 0 1 1 0-4 2 2 0 0 1 0 4zm30 40a2 2 0 1 1 0-4 2 2 0 0 1 0 4zm50 0a2 2 0 1 1 0-4 2 2 0 0 1 0 4zm40 35a2 2 0 1 1 0-4 2 2 0 0 1 0 4zm40 50a2 2 0 1 1 0-4 2 2 0 0 1 0 4zm50-30a2 2 0 1 1 0-4 2 2 0 0 1 0 4zm-40-60a2 2 0 1 1 0-4 2 2 0 0 1 0 4zm40-30a2 2 0 1 1 0-4 2 2 0 0 1 0 4zm20 20a2 2 0 1 1 0-4 2 2 0 0 1 0 4zm80 20a2 2 0 1 1 0-4 2 2 0 0 1 0 4zm60 60a2 2 0 1 1 0-4 2 2 0 0 1 0 4zm-70 10a2 2 0 1 1 0-4 2 2 0 0 1 0 4zm20 40a2 2 0 1 1 0-4 2 2 0 0 1 0 4zm-10 10a2 2 0 1 1 0-4 2 2 0 0 1 0 4zm100-110a2 2 0 1 1 0-4 2 2 0 0 1 0 4zm-60-60a2 2 0 1 1 0-4 2 2 0 0 1 0 4zm-40 10a2 2 0 1 1 0-4 2 2 0 0 1 0 4zm120 0a2 2 0 1 1 0-4 2 2 0 0 1 0 4zm10-30a2 2 0 1 1 0-4 2 2 0 0 1 0 4zm-20-50a2 2 0 1 1 0-4 2 2 0 0 1 0 4zm10-80a2 2 0 1 1 0-4 2 2 0 0 1 0 4zm-50 50a2 2 0 1 1 0-4 2 2 0 0 1 0 4zm10-20a2 2 0 1 1 0-4 2 2 0 0 1 0 4zm-70 0a2 2 0 1 1 0-4 2 2 0 0 1 0 4zm-40 40a2 2 0 1 1 0-4 2 2 0 0 1 0 4zm-40-10a2 2 0 1 1 0-4 2 2 0 0 1 0 4zm-30-30a2 2 0 1 1 0-4 2 2 0 0 1 0 4zm-30-30a2 2 0 1 1 0-4 2 2 0 0 1 0 4zm-10-21a2 2 0 1 1 0-4 2 2 0 0 1 0 4zm-50-20a2 2 0 1 1 0-4 2 2 0 0 1 0 4zm40 60a2 2 0 1 1 0-4 2 2 0 0 1 0 4zm-20 20a2 2 0 1 1 0-4 2 2 0 0 1 0 4zm130-90a2 2 0 1 1 0-4 2 2 0 0 1 0 4zm10-40a2 2 0 1 1 0-4 2 2 0 0 1 0 4zm-30-20a2 2 0 1 1 0-4 2 2 0 0 1 0 4zm60-130a2 2 0 1 1 0-4 2 2 0 0 1 0 4zm-80 40a2 2 0 1 1 0-4 2 2 0 0 1 0 4zm20-110a2 2 0 1 1 0-4 2 2 0 0 1 0 4zm40 0a2 2 0 1 1 0-4 2 2 0 0 1 0 4zm40-50a2 2 0 1 1 0-4 2 2 0 0 1 0 4zm20-50a2 2 0 1 1 0-4 2 2 0 0 1 0 4zm60-20a2 2 0 1 1 0-4 2 2 0 0 1 0 4zm0 70a2 2 0 1 1 0-4 2 2 0 0 1 0 4zm-20 30a2 2 0 1 1 0-4 2 2 0 0 1 0 4zm50 80a2 2 0 1 1 0-4 2 2 0 0 1 0 4zm-50 50a2 2 0 1 1 0-4 2 2 0 0 1 0 4zm-60 20a2 2 0 1 1 0-4 2 2 0 0 1 0 4zm-300 426a2 2 0 1 1 0-4 2 2 0 0 1 0 4zM954 191a2 2 0 1 1 0 4 2 2 0 0 1 0-4zm80 10a2 2 0 1 1 0 4 2 2 0 0 1 0-4zm60 70a2 2 0 1 1 0 4 2 2 0 0 1 0-4zm180-180a2 2 0 1 1 0 4 2 2 0 0 1 0-4zm-140 40a2 2 0 1 1 0 4 2 2 0 0 1 0-4zm40-40a2 2 0 1 1 0 4 2 2 0 0 1 0-4zm20 10a2 2 0 1 1 0 4 2 2 0 0 1 0-4zm0-70a2 2 0 1 1 0 4 2 2 0 0 1 0-4zm50 0a2 2 0 1 1 0 4 2 2 0 0 1 0-4zm60 70a2 2 0 1 1 0 4 2 2 0 0 1 0-4zm-50 40a2 2 0 1 1 0 4 2 2 0 0 1 0-4zm120 30a2 2 0 1 1 0 4 2 2 0 0 1 0-4zm-10 40a2 2 0 1 1 0 4 2 2 0 0 1 0-4zm-40-60a2 2 0 1 1 0 4 2 2 0 0 1 0-4zm60-60a2 2 0 1 1 0 4 2 2 0 0 1 0-4zm-110 170a2 2 0 1 1 0 4 2 2 0 0 1 0-4zm60 60a2 2 0 1 1 0 4 2 2 0 0 1 0-4zm-30 30a2 2 0 1 1 0 4 2 2 0 0 1 0-4zm-50-10a2 2 0 1 1 0 4 2 2 0 0 1 0-4zm-20 100a2 2 0 1 1 0 4 2 2 0 0 1 0-4zm40 50a2 2 0 1 1 0 4 2 2 0 0 1 0-4zm-30-20a2 2 0 1 1 0 4 2 2 0 0 1 0-4zm140 60a2 2 0 1 1 0 4 2 2 0 0 1 0-4zm-40-40a2 2 0 1 1 0 4 2 2 0 0 1 0-4zm24-40a2 2 0 1 1 0 4 2 2 0 0 1 0-4zm30-40a2 2 0 1 1 0 4 2 2 0 0 1 0-4zm-40-50a2 2 0 1 1 0 4 2 2 0 0 1 0-4zm10 240a2 2 0 1 1 0 4 2 2 0 0 1 0-4zm-150-10a2 2 0 1 1 0 4 2 2 0 0 1 0-4zm-50-100a2 2 0 1 1 0 4 2 2 0 0 1 0-4zm-10-50a2 2 0 1 1 0 4 2 2 0 0 1 0-4zm-100 40a2 2 0 1 1 0 4 2 2 0 0 1 0-4zm-60-60a2 2 0 1 1 0 4 2 2 0 0 1 0-4zm20-40a2 2 0 1 1 0 4 2 2 0 0 1 0-4zm20-20a2 2 0 1 1 0 4 2 2 0 0 1 0-4zm-40-24a2 2 0 1 1 0 4 2 2 0 0 1 0-4zm40-40a2 2 0 1 1 0 4 2 2 0 0 1 0-4zm-110-20a2 2 0 1 1 0 4 2 2 0 0 1 0-4zm-60 20a2 2 0 1 1 0 4 2 2 0 0 1 0-4zm-20 40a2 2 0 1 1 0 4 2 2 0 0 1 0-4zm-56-32a2 2 0 1 1 0 4 2 2 0 0 1 0-4zm20-40a2 2 0 1 1 0 4 2 2 0 0 1 0-4zm60-140a2 2 0 1 1 0 4 2 2 0 0 1 0-4zm-90 20a2 2 0 1 1 0 4 2 2 0 0 1 0-4zm-50 30a2 2 0 1 1 0 4 2 2 0 0 1 0-4zm-70-20a2 2 0 1 1 0 4 2 2 0 0 1 0-4zm-30 30a2 2 0 1 1 0 4 2 2 0 0 1 0-4zm-40-20a2 2 0 1 1 0 4 2 2 0 0 1 0-4zm0-90a2 2 0 1 1 0 4 2 2 0 0 1 0-4zm-30 30a2 2 0 1 1 0 4 2 2 0 0 1 0-4zm-39-18a1 1 0 1 1 0 2 1 1 0 0 1 0-2zm10 10a1 1 0 1 1 0 2 1 1 0 0 1 0-2zm-50-10a1 1 0 1 1 0 2 1 1 0 0 1 0-2zm-40 30a1 1 0 1 1 0 2 1 1 0 0 1 0-2zm70 80a1 1 0 1 1 0 2 1 1 0 0 1 0-2zm40 20a1 1 0 1 1 0 2 1 1 0 0 1 0-2zm-110 90a1 1 0 1 1 0 2 1 1 0 0 1 0-2zm-30-10a1 1 0 1 1 0 2 1 1 0 0 1 0-2zm-20 10a1 1 0 1 1 0 2 1 1 0 0 1 0-2zm-40 10a1 1 0 1 1 0 2 1 1 0 0 1 0-2zm-16 4a1 1 0 1 1 0 2 1 1 0 0 1 0-2zm10 50a1 1 0 1 1 0 2 1 1 0 0 1 0-2zm40 20a1 1 0 1 1 0 2 1 1 0 0 1 0-2zm10-10a1 1 0 1 1 0 2 1 1 0 0 1 0-2zm39.5 6a1.5 1.5 0 1 1 0 3 1.5 1.5 0 0 1 0-3zm40 10a1.5 1.5 0 1 1 0 3 1.5 1.5 0 0 1 0-3zm20.5-27a1 1 0 1 1 0 2 1 1 0 0 1 0-2zm40 20a1 1 0 1 1 0 2 1 1 0 0 1 0-2zm30 40a1 1 0 1 1 0 2 1 1 0 0 1 0-2zm30-10a1 1 0 1 1 0 2 1 1 0 0 1 0-2zm30 20a1 1 0 1 1 0 2 1 1 0 0 1 0-2zm30-30a1 1 0 1 1 0 2 1 1 0 0 1 0-2zm60-10a1 1 0 1 1 0 2 1 1 0 0 1 0-2zm-10-10a1 1 0 1 1 0 2 1 1 0 0 1 0-2zm-4 8a1 1 0 1 1 0 2 1 1 0 0 1 0-2zm40-40a1 1 0 1 1 0 2 1 1 0 0 1 0-2zm-20-30a1 1 0 1 1 0 2 1 1 0 0 1 0-2zm10 40a1 1 0 1 1 0 2 1 1 0 0 1 0-2zm50 0a1 1 0 1 1 0 2 1 1 0 0 1 0-2zm-20 50a1 1 0 1 1 0 2 1 1 0 0 1 0-2zm170 10a1 1 0 1 1 0 2 1 1 0 0 1 0-2zm30 30a1 1 0 1 1 0 2 1 1 0 0 1 0-2zm-10-25a1 1 0 1 1 0 2 1 1 0 0 1 0-2zm30-60a1 1 0 1 1 0 2 1 1 0 0 1 0-2zm60 70a1 1 0 1 1 0 2 1 1 0 0 1 0-2zm-40 20a1 1 0 1 1 0 2 1 1 0 0 1 0-2zm90-20a1 1 0 1 1 0 2 1 1 0 0 1 0-2zm-299-56a1 1 0 1 1 0 2 1 1 0 0 1 0-2zM563 207a1 1 0 1 1 0 2 1 1 0 0 1 0-2zm-9.5-5a1.5 1.5 0 1 1 0 3 1.5 1.5 0 0 1 0-3zm60.5-29a1 1 0 1 1 0 2 1 1 0 0 1 0-2zm-10 10a1 1 0 1 1 0 2 1 1 0 0 1 0-2zm60-60a1 1 0 1 1 0 2 1 1 0 0 1 0-2zm-20-30a1 1 0 1 1 0 2 1 1 0 0 1 0-2zm90 130a1 1 0 1 1 0 2 1 1 0 0 1 0-2zm-2 12a1 1 0 1 1 0 2 1 1 0 0 1 0-2zm5 4a1 1 0 1 1 0 2 1 1 0 0 1 0-2zm-16-18a1 1 0 1 1 0 2 1 1 0 0 1 0-2zm80 41a1 1 0 1 1 0 2 1 1 0 0 1 0-2zm0-20a1 1 0 1 1 0 2 1 1 0 0 1 0-2zm-10 10a1 1 0 1 1 0 2 1 1 0 0 1 0-2zm45 2a1 1 0 1 1 0 2 1 1 0 0 1 0-2zm10 10a1 1 0 1 1 0 2 1 1 0 0 1 0-2zm20-21a1 1 0 1 1 0 2 1 1 0 0 1 0-2zm-10-20a1 1 0 1 1 0 2 1 1 0 0 1 0-2zm50-20a1 1 0 1 1 0 2 1 1 0 0 1 0-2zm4-10a1 1 0 1 1 0 2 1 1 0 0 1 0-2zm10-10a1 1 0 1 1 0 2 1 1 0 0 1 0-2zm-40-35a1 1 0 1 1 0 2 1 1 0 0 1 0-2zm-30 10a1 1 0 1 1 0 2 1 1 0 0 1 0-2zm-10-10a1 1 0 1 1 0 2 1 1 0 0 1 0-2zm-21-21a1 1 0 1 1 0 2 1 1 0 0 1 0-2zm10-10a1 1 0 1 1 0 2 1 1 0 0 1 0-2zm240 0a1 1 0 1 1 0 2 1 1 0 0 1 0-2zm20-10a1 1 0 1 1 0 2 1 1 0 0 1 0-2zm20 0a1 1 0 1 1 0 2 1 1 0 0 1 0-2zm60 0a1 1 0 1 1 0 2 1 1 0 0 1 0-2zm70-40a1 1 0 1 1 0 2 1 1 0 0 1 0-2zm-10 20a1 1 0 1 1 0 2 1 1 0 0 1 0-2zm20 20a1 1 0 1 1 0 2 1 1 0 0 1 0-2zm50-50a1 1 0 1 1 0 2 1 1 0 0 1 0-2zm10 10a1 1 0 1 1 0 2 1 1 0 0 1 0-2zm10 20a1 1 0 1 1 0 2 1 1 0 0 1 0-2zm20 30a1 1 0 1 1 0 2 1 1 0 0 1 0-2zm10 20a1 1 0 1 1 0 2 1 1 0 0 1 0-2zm30-10a1 1 0 1 1 0 2 1 1 0 0 1 0-2zm10 20a1 1 0 1 1 0 2 1 1 0 0 1 0-2zm-70 60a1 1 0 1 1 0 2 1 1 0 0 1 0-2zm-393-10a1 1 0 1 1 0 2 1 1 0 0 1 0-2zm37-40a1 1 0 1 1 0 2 1 1 0 0 1 0-2zm30-40a1 1 0 1 1 0 2 1 1 0 0 1 0-2zm90 30a1 1 0 1 1 0 2 1 1 0 0 1 0-2zm10-10a1 1 0 1 1 0 2 1 1 0 0 1 0-2zm12 15a1 1 0 1 1 0 2 1 1 0 0 1 0-2zm0-20a1 1 0 1 1 0 2 1 1 0 0 1 0-2zm20 24a1 1 0 1 1 0 2 1 1 0 0 1 0-2zm20-20a1 1 0 1 1 0 2 1 1 0 0 1 0-2zm-10-10a1 1 0 1 1 0 2 1 1 0 0 1 0-2zm80-20a1 1 0 1 1 0 2 1 1 0 0 1 0-2zm-10 40a1 1 0 1 1 0 2 1 1 0 0 1 0-2zm-30 20a1 1 0 1 1 0 2 1 1 0 0 1 0-2zm41 11a1 1 0 1 1 0 2 1 1 0 0 1 0-2zm50 10a1 1 0 1 1 0 2 1 1 0 0 1 0-2zm20 30a1 1 0 1 1 0 2 1 1 0 0 1 0-2zm40-40a1 1 0 1 1 0 2 1 1 0 0 1 0-2zm-30-30a1 1 0 1 1 0 2 1 1 0 0 1 0-2zm10 40a1 1 0 1 1 0 2 1 1 0 0 1 0-2zm-20 120a1 1 0 1 1 0 2 1 1 0 0 1 0-2zm-572-67a1 1 0 1 1 0 2 1 1 0 0 1 0-2zm16 3a1 1 0 1 1 0 2 1 1 0 0 1 0-2zm-148 42a2 2 0 1 1 0 4 2 2 0 0 1 0-4zm-50 50a2 2 0 1 1 0 4 2 2 0 0 1 0-4zm-10-30a2 2 0 1 1 0 4 2 2 0 0 1 0-4zm60 50a2 2 0 1 1 0 4 2 2 0 0 1 0-4zm30 30a2 2 0 1 1 0 4 2 2 0 0 1 0-4zm70 30a2 2 0 1 1 0 4 2 2 0 0 1 0-4zm0-60a2 2 0 1 1 0 4 2 2 0 0 1 0-4zm-170 20a2 2 0 1 1 0 4 2 2 0 0 1 0-4zm-30-60a2 2 0 1 1 0 4 2 2 0 0 1 0-4zm20-60a2 2 0 1 1 0 4 2 2 0 0 1 0-4zm-40 10a2 2 0 1 1 0 4 2 2 0 0 1 0-4zm-30 30a2 2 0 1 1 0 4 2 2 0 0 1 0-4zm-30 30a2 2 0 1 1 0 4 2 2 0 0 1 0-4zm-50-30a2 2 0 1 1 0 4 2 2 0 0 1 0-4zm20-60a2 2 0 1 1 0 4 2 2 0 0 1 0-4zm20-20a2 2 0 1 1 0 4 2 2 0 0 1 0-4zm30-20a2 2 0 1 1 0 4 2 2 0 0 1 0-4zm40-20a2 2 0 1 1 0 4 2 2 0 0 1 0-4zm-20-10a2 2 0 1 1 0 4 2 2 0 0 1 0-4zm-30-40a2 2 0 1 1 0 4 2 2 0 0 1 0-4zm-50 0a2 2 0 1 1 0 4 2 2 0 0 1 0-4zm-40-35a2 2 0 1 1 0 4 2 2 0 0 1 0-4zm-40-50a2 2 0 1 1 0 4 2 2 0 0 1 0-4zm-50 30a2 2 0 1 1 0 4 2 2 0 0 1 0-4zm40 60a2 2 0 1 1 0 4 2 2 0 0 1 0-4zm-40 30a2 2 0 1 1 0 4 2 2 0 0 1 0-4zm-20-20a2 2 0 1 1 0 4 2 2 0 0 1 0-4zm-80-20a2 2 0 1 1 0 4 2 2 0 0 1 0-4zM72 60a2 2 0 1 1 0 4 2 2 0 0 1 0-4zm70-10a2 2 0 1 1 0 4 2 2 0 0 1 0-4zm-20-40a2 2 0 1 1 0 4 2 2 0 0 1 0-4zm10-10a2 2 0 1 1 0 4 2 2 0 0 1 0-4zM32 110a2 2 0 1 1 0 4 2 2 0 0 1 0-4zm60 60a2 2 0 1 1 0 4 2 2 0 0 1 0-4zm40-10a2 2 0 1 1 0 4 2 2 0 0 1 0-4zm-120 0a2 2 0 1 1 0 4 2 2 0 0 1 0-4zM2 190a2 2 0 1 1 0 4 2 2 0 0 1 0-4zm20 50a2 2 0 1 1 0 4 2 2 0 0 1 0-4zm-10 80a2 2 0 1 1 0 4 2 2 0 0 1 0-4zm50-50a2 2 0 1 1 0 4 2 2 0 0 1 0-4zm-10 20a2 2 0 1 1 0 4 2 2 0 0 1 0-4zm70 0a2 2 0 1 1 0 4 2 2 0 0 1 0-4zm40-40a2 2 0 1 1 0 4 2 2 0 0 1 0-4zm40 10a2 2 0 1 1 0 4 2 2 0 0 1 0-4zm30 30a2 2 0 1 1 0 4 2 2 0 0 1 0-4zm30 30a2 2 0 1 1 0 4 2 2 0 0 1 0-4zm10 21a2 2 0 1 1 0 4 2 2 0 0 1 0-4zm50 20a2 2 0 1 1 0 4 2 2 0 0 1 0-4zm-40-60a2 2 0 1 1 0 4 2 2 0 0 1 0-4zm20-20a2 2 0 1 1 0 4 2 2 0 0 1 0-4zm-130 90a2 2 0 1 1 0 4 2 2 0 0 1 0-4zm-10 40a2 2 0 1 1 0 4 2 2 0 0 1 0-4zm30 20a2 2 0 1 1 0 4 2 2 0 0 1 0-4zm-60 130a2 2 0 1 1 0 4 2 2 0 0 1 0-4zm80-40a2 2 0 1 1 0 4 2 2 0 0 1 0-4zm-20 110a2 2 0 1 1 0 4 2 2 0 0 1 0-4zm-40 0a2 2 0 1 1 0 4 2 2 0 0 1 0-4zm-40 50a2 2 0 1 1 0 4 2 2 0 0 1 0-4zm-20 50a2 2 0 1 1 0 4 2 2 0 0 1 0-4zm-60 20a2 2 0 1 1 0 4 2 2 0 0 1 0-4zm0-70a2 2 0 1 1 0 4 2 2 0 0 1 0-4zm20-30a2 2 0 1 1 0 4 2 2 0 0 1 0-4zM2 571a2 2 0 1 1 0 4 2 2 0 0 1 0-4zm50-50a2 2 0 1 1 0 4 2 2 0 0 1 0-4zm60-20a2 2 0 1 1 0 4 2 2 0 0 1 0-4zM412 75a2 2 0 1 1 0 4 2 2 0 0 1 0-4z" transform="matrix(1 0 0 -1 540 704)"/>
                        <path fill="url(#f)" d="M314 328a6 6 0 1 1 0-12 6 6 0 0 1 0 12zm-50 29a5 5 0 1 1 0-10 5 5 0 0 1 0 10zm-40.5-92a3.5 3.5 0 1 1 0-7 3.5 3.5 0 0 1 0 7zm-86 304a4.5 4.5 0 1 1 0-9 4.5 4.5 0 0 1 0 9zM124 468a6 6 0 1 1 0-12 6 6 0 0 1 0 12zm-80-2a4 4 0 1 1 0-8 4 4 0 0 1 0 8zM24 347a5 5 0 1 1 0-10 5 5 0 0 1 0 10zM4 306a4 4 0 1 1 0-8 4 4 0 0 1 0 8zm30-98a6 6 0 1 1 0-12 6 6 0 0 1 0 12zm130-21a5 5 0 1 1 0-10 5 5 0 0 1 0 10zm10 227a3 3 0 1 1 0-6 3 3 0 0 1 0 6zm280-7a5 5 0 1 1 0-10 5 5 0 0 1 0 10zm.5 99a4.5 4.5 0 1 1 0-9 4.5 4.5 0 0 1 0 9zM534 377a5 5 0 1 1 0-10 5 5 0 0 1 0 10zm171-19a5 5 0 1 1 0-10 5 5 0 0 1 0 10zm70-22a3 3 0 1 1 0-6 3 3 0 0 1 0 6zm-49 62a4 4 0 1 1 0-8 4 4 0 0 1 0 8zm0 81a5 5 0 1 1 0-10 5 5 0 0 1 0 10zm-60 70a5 5 0 1 1 0-10 5 5 0 0 1 0 10zm-70-70a5 5 0 1 1 0-10 5 5 0 0 1 0 10zm-70 98a4 4 0 1 1 0-8 4 4 0 0 1 0 8zm100 62a5 5 0 1 1 0-10 5 5 0 0 1 0 10zm220-70a5 5 0 1 1 0-10 5 5 0 0 1 0 10zm94.5 21a3.5 3.5 0 1 1 0-7 3.5 3.5 0 0 1 0 7zm33.5 45a7 7 0 1 1 0-14 7 7 0 0 1 0 14zm-1.5 51a3.5 3.5 0 1 1 0-7 3.5 3.5 0 0 1 0 7zm88-34a5.5 5.5 0 1 1 0-11 5.5 5.5 0 0 1 0 11zm120.5-61a4 4 0 1 1 0-8 4 4 0 0 1 0 8zm10 51a5 5 0 1 1 0-10 5 5 0 0 1 0 10zm-112-112a4 4 0 1 1 0-8 4 4 0 0 1 0 8zm-30-98a5 5 0 1 1 0-10 5 5 0 0 1 0 10zm-30-100a5 5 0 1 1 0-10 5 5 0 0 1 0 10zm-50 50a5 5 0 1 1 0-10 5 5 0 0 1 0 10zm20 80a5 5 0 1 1 0-10 5 5 0 0 1 0 10zm-60 20a5 5 0 1 1 0-10 5 5 0 0 1 0 10zm199.5-94a4.5 4.5 0 1 1 0-9 4.5 4.5 0 0 1 0 9zm-20.5-62a3 3 0 1 1 0-6 3 3 0 0 1 0 6zm91-46a6 6 0 1 1 0-12 6 6 0 0 1 0 12zm-40 68a4 4 0 1 1 0-8 4 4 0 0 1 0 8zm10-169a5 5 0 1 1 0-10 5 5 0 0 1 0 10zm40-89a6 6 0 1 1 0-12 6 6 0 0 1 0 12zm80-82a4 4 0 1 1 0-8 4 4 0 0 1 0 8zm50.5 92a5.5 5.5 0 1 1 0-11 5.5 5.5 0 0 1 0 11zm-50.5 88a4 4 0 1 1 0-8 4 4 0 0 1 0 8zm29.5-40a4.5 4.5 0 1 1 0-9 4.5 4.5 0 0 1 0 9zm40.5 140a4 4 0 1 1 0-8 4 4 0 0 1 0 8zm-59 62a6 6 0 1 1 0-12 6 6 0 0 1 0 12zm-71 149a5 5 0 1 1 0-10 5 5 0 0 1 0 10zm71 71a5 5 0 1 1 0-10 5 5 0 0 1 0 10z" transform="matrix(1 0 0 -1 759 691)"/>
                    </g>
                </g>
            </g>
        </g>
    </g>
</svg>
