<svg xmlns="http://www.w3.org/2000/svg" width="167" height="30" viewBox="0 0 167 30"><g fill="#FFF" fill-rule="evenodd"><path d="M3.945 19.05L0 19.155v-2.726l3.95.013M3.945 24.968L0 25.26l.012-3.084 3.933-.137M24.65 8.167l.02-3.43L0 2.566v3.962M24.65 10.686V13.9l-19.226-.417V9.82M24.66 16.467v2.35l-19.23.28-.006-2.67M24.647 21.32l-.013 2.518-19.205.998-.015-2.84M24.66 29.318L17.676 30l-.002-2.855 6.996-.536"/><g><path d="M33 12.003V8.358h3.12V5.474C36.12 1.867 38.11 0 41.973 0c.703 0 1.366.082 2.027.285v3.647c-.31-.04-.66-.077-1.05-.077-2.302 0-2.614.89-2.614 3.082v1.42h3.392v3.646h-3.393V29H36.12V12.003H33zM44 18.98C44 12.348 47.897 8 53.502 8 59.108 8 63 12.305 63 18.98 63 25.618 59.108 30 53.502 30 47.897 30 44 25.66 44 18.98zm9.502 6.758c2.982 0 5.007-2.576 5.007-6.757 0-4.22-2.026-6.756-5.008-6.756-2.98 0-5.013 2.622-5.013 6.757 0 4.18 2.03 6.758 5.012 6.758zM66 8.445h4.455v2.986C71.853 9.09 73.69 8 76.188 8c.284 0 .532 0 .812.04v4.928c-.278-.04-.574-.04-.857-.04-3.513 0-5.69 1.896-5.69 4.844V29H66V8.445zM79 8.367h4.382v1.943c1.51-1.54 3.29-2.31 5.32-2.31 2.436 0 4.38 1.054 5.52 3.003C96.007 9.013 98.16 8 100.51 8c3.94 0 6.49 2.634 6.49 7.216V29h-4.383V16.026c0-2.673-1.096-4.054-3.202-4.054-2.31 0-4.264 1.947-4.264 4.78v12.243h-4.258V16.023c0-2.673-1.096-4.055-3.21-4.055-2.31 0-4.298 1.948-4.298 4.782v12.242H79V8.367zM112.402 22.658c1.914 1.848 3.514 2.442 5.925 2.442 2.534 0 4.088-1.103 4.088-2.563 0-1.85-1.632-1.97-5.193-2.48-4.74-.673-7.398-1.895-7.398-5.673 0-3.55 3.266-6.384 8.55-6.384 3.188 0 5.676.907 8.004 3.034l-2.654 2.757c-1.555-1.34-3.47-2.088-5.476-2.088-2.535 0-3.93.87-3.93 2.17 0 1.97 2.578 1.77 6.836 2.558 3.92.71 5.846 2.52 5.846 5.712 0 3.944-3.397 6.858-8.63 6.858-4.01 0-7.116-1.145-9.37-3.55l3.402-2.792zM130 0h4v4.84h-4V0zm0 7.818h4V28h-4V7.818zM145.908 25.04c.383 0 .783-.038 1.092-.08v3.757c-.74.2-1.474.283-2.183.283-5.124 0-5.703-2.264-5.703-6.747V11.785H136v-3.63h3.114V1h4.228v7.154h3.655v3.63h-3.655V21.97c.003 2.182.28 3.07 2.566 3.07zM157.94 30c-5.755 0-9.94-4.35-9.94-11.202C148 12.433 152.06 8 157.378 8 162.98 8 167 12.518 167 20.11v.246h-14.246c.323 3.323 2.55 5.338 5.478 5.338 1.947 0 3.858-1.108 4.987-3.082l3.656 2.094c-2.274 3.49-5.28 5.294-8.936 5.294zm3.942-13.504c-.238-2.625-2.153-4.47-4.42-4.47-2.237 0-4.306 1.763-4.708 4.47h9.128z"/></g></g></svg>
