<svg xmlns="http://www.w3.org/2000/svg" width="24" height="24" viewBox="0 0 24 24">
    <g fill="none" fill-rule="nonzero">
        <path fill="#4285F4" d="M21.99 12.187c0-.82-.068-1.417-.215-2.037H12.2v3.698h5.621c-.113.92-.725 2.303-2.085 3.233l-.02.124 3.029 2.292.21.02c1.926-1.738 3.036-4.296 3.036-7.33"/>
        <path fill="#34A853" d="M12.2 21.931c2.753 0 5.065-.886 6.753-2.414l-3.218-2.436c-.861.587-2.017.997-3.536.997a6.127 6.127 0 0 1-5.802-4.141l-.12.01-3.148 2.38-.041.112c1.677 3.256 5.122 5.492 9.111 5.492"/>
        <path fill="#FBBC05" d="M6.397 13.937a6.008 6.008 0 0 1-.34-1.971c0-.687.125-1.351.329-1.971l-.006-.132-3.188-2.42-.104.05A9.79 9.79 0 0 0 2 11.965a9.79 9.79 0 0 0 1.088 4.473l3.309-2.502"/>
        <path fill="#EB4335" d="M12.2 5.853c1.914 0 3.206.809 3.943 1.484l2.878-2.746C17.254 2.985 14.953 2 12.2 2 8.21 2 4.765 4.237 3.088 7.492l3.298 2.503a6.153 6.153 0 0 1 5.813-4.142"/>
    </g>
</svg>
