<svg xmlns="http://www.w3.org/2000/svg" width="81" height="25" viewBox="0 0 81 25">
    <g fill="none" fill-rule="nonzero">
        <path stroke="#4C6F8C" d="M80 21.69c0 1.276-1.018 2.31-2.276 2.31H3.232c-1.258 0-2.28-1.034-2.28-2.31V3.273C.952 1.997 1.974.96 3.232.96h74.491C78.983.96 80 1.997 80 3.273L80 21.69z"/>
        <g fill="#4C6F8C">
            <path d="M17.653 11.983c-.017-1.904 1.6-2.83 1.674-2.873-.916-1.302-2.335-1.48-2.834-1.494-1.192-.122-2.349.696-2.956.696-.62 0-1.555-.684-2.562-.664-1.297.02-2.51.752-3.176 1.888-1.374 2.318-.35 5.724.966 7.597.659.917 1.428 1.942 2.434 1.906.985-.04 1.353-.612 2.542-.612 1.177 0 1.523.612 2.55.589 1.056-.017 1.722-.922 2.357-1.848.76-1.051 1.066-2.087 1.078-2.14-.025-.008-2.053-.763-2.073-3.045zM15.714 6.384c.53-.646.892-1.524.791-2.416-.766.033-1.725.517-2.277 1.149-.489.556-.925 1.468-.812 2.326.861.063 1.745-.423 2.298-1.06z"/>
        </g>
        <path fill="#4C6F8C" d="M31.608 18.482h-1.335l-.732-2.293H27l-.696 2.293h-1.3l2.518-7.807h1.556l2.53 7.807zm-2.287-3.255l-.661-2.039c-.07-.208-.201-.698-.395-1.47h-.023c-.077.332-.201.822-.372 1.47l-.65 2.039h2.101zM38.085 15.598c0 .958-.26 1.715-.778 2.27a2.276 2.276 0 0 1-1.73.742c-.743 0-1.277-.267-1.602-.8h-.023v2.966h-1.254v-6.07c0-.602-.015-1.22-.046-1.853h1.102l.07.892h.024c.418-.672 1.052-1.008 1.903-1.008.666 0 1.221.262 1.666.787.445.526.668 1.217.668 2.074zm-1.277.046c0-.548-.124-1-.372-1.355a1.284 1.284 0 0 0-1.09-.556c-.31 0-.591.103-.842.307a1.423 1.423 0 0 0-.493.805 1.634 1.634 0 0 0-.059.381v.939c0 .41.126.755.378 1.037.251.282.578.423.98.423.472 0 .84-.182 1.103-.544.263-.363.395-.842.395-1.437zM44.573 15.598c0 .958-.26 1.715-.778 2.27a2.274 2.274 0 0 1-1.73.742c-.742 0-1.276-.267-1.6-.8h-.024v2.966h-1.253v-6.07c0-.602-.016-1.22-.047-1.853h1.102l.07.892h.024c.417-.672 1.052-1.008 1.903-1.008.665 0 1.22.262 1.667.787.443.526.666 1.217.666 2.074zm-1.277.046c0-.548-.124-1-.372-1.355a1.282 1.282 0 0 0-1.09-.556c-.31 0-.59.103-.842.307a1.422 1.422 0 0 0-.493.805 1.666 1.666 0 0 0-.058.381v.939c0 .41.126.755.376 1.037.252.282.579.423.982.423.472 0 .84-.182 1.102-.544.264-.363.395-.842.395-1.437zM51.828 16.293c0 .664-.231 1.204-.695 1.621-.51.456-1.22.684-2.131.684-.842 0-1.517-.162-2.028-.486l.29-1.043c.55.332 1.155.499 1.812.499.473 0 .84-.107 1.104-.32.263-.212.394-.497.394-.852 0-.317-.108-.584-.325-.8-.216-.217-.576-.418-1.08-.604-1.37-.51-2.054-1.257-2.054-2.239 0-.642.24-1.168.72-1.578.479-.41 1.117-.614 1.916-.614.712 0 1.303.123 1.775.37l-.313 1.02c-.441-.24-.94-.36-1.498-.36-.44 0-.785.11-1.032.325a.926.926 0 0 0-.313.707c0 .309.12.564.359.765.209.185.588.386 1.138.602.673.27 1.168.587 1.486.95.317.36.475.813.475 1.353zM55.972 13.791H54.59v2.734c0 .695.244 1.042.732 1.042.224 0 .41-.02.556-.058l.035.95c-.247.092-.572.138-.975.138-.495 0-.882-.15-1.16-.451-.279-.302-.419-.808-.419-1.518V13.79h-.823v-.938h.823V11.82l1.231-.371v1.402h1.382v.94zM62.205 15.621c0 .866-.248 1.576-.743 2.132-.519.572-1.208.857-2.067.857-.828 0-1.487-.274-1.978-.822-.492-.548-.737-1.24-.737-2.074 0-.872.252-1.586.76-2.142.506-.556 1.189-.834 2.048-.834.828 0 1.494.274 1.996.822.481.532.721 1.22.721 2.061zm-1.3.04c0-.519-.111-.964-.337-1.335-.262-.45-.638-.674-1.125-.674-.504 0-.886.225-1.15.674-.224.372-.335.824-.335 1.36 0 .518.11.964.336 1.334.271.45.65.674 1.138.674.479 0 .854-.229 1.125-.685.231-.379.348-.829.348-1.347zM66.28 13.953a2.18 2.18 0 0 0-.396-.035c-.44 0-.782.166-1.022.499-.208.293-.313.664-.313 1.111v2.954h-1.253l.012-3.856c0-.65-.016-1.24-.047-1.773h1.092l.046 1.077h.034c.133-.37.341-.668.627-.891.28-.202.58-.302.906-.302.116 0 .22.008.313.023v1.193zM71.885 15.401c0 .224-.015.413-.046.567h-3.76c.014.557.196.982.545 1.275.317.263.727.394 1.23.394.557 0 1.065-.089 1.522-.266l.196.868c-.534.232-1.164.348-1.891.348-.875 0-1.562-.257-2.061-.77-.499-.514-.749-1.203-.749-2.068 0-.849.232-1.556.697-2.12.487-.601 1.145-.902 1.973-.902.813 0 1.428.3 1.846.902.331.479.498 1.07.498 1.772zm-1.195-.324a1.696 1.696 0 0 0-.244-.962c-.217-.348-.55-.521-.999-.521-.41 0-.743.17-.997.51-.209.27-.333.594-.371.972h2.61zM29.288 6.245c0 .707-.208 1.238-.625 1.595-.386.33-.934.495-1.644.495-.352 0-.653-.016-.905-.047V4.429a6.581 6.581 0 0 1 1.066-.081c.676 0 1.186.149 1.53.448.385.338.578.82.578 1.45zm-.653.018c0-.458-.119-.809-.358-1.054-.238-.244-.587-.366-1.046-.366-.195 0-.36.013-.498.04v2.934c.076.012.215.017.418.017.474 0 .84-.134 1.097-.401.257-.268.387-.658.387-1.17zM32.75 6.862c0 .435-.123.792-.368 1.071-.256.288-.596.431-1.02.431-.409 0-.734-.137-.977-.413-.242-.276-.363-.623-.363-1.042 0-.438.124-.797.375-1.076.25-.28.587-.42 1.011-.42.409 0 .737.138.986.414.236.267.355.613.355 1.035zm-.643.02c0-.26-.055-.484-.166-.67-.13-.226-.315-.34-.555-.34a.62.62 0 0 0-.568.34 1.312 1.312 0 0 0-.166.682c0 .261.056.485.166.671.134.226.32.339.562.339.236 0 .422-.115.555-.345.115-.19.172-.415.172-.676zM37.39 5.471L36.519 8.3h-.568l-.36-1.228a9.311 9.311 0 0 1-.224-.914h-.012c-.053.31-.128.615-.223.914L34.748 8.3h-.573l-.82-2.829h.636l.315 1.345c.076.318.14.621.19.908h.01c.047-.237.123-.538.23-.902l.396-1.35h.504l.379 1.321c.091.322.166.633.223.931h.017a9.02 9.02 0 0 1 .19-.93l.337-1.322h.608zM40.6 8.3h-.62V6.68c0-.5-.187-.749-.561-.749a.555.555 0 0 0-.447.206.737.737 0 0 0-.172.485v1.677h-.62V6.28c0-.248-.007-.517-.022-.809h.544l.03.442h.016a.903.903 0 0 1 .321-.341c.168-.106.356-.159.561-.159.26 0 .477.085.648.256.214.21.321.522.321.937V8.3zM42.306 8.3h-.618V4.174h.618zM45.951 6.862c0 .435-.122.792-.367 1.071-.256.288-.596.431-1.02.431-.41 0-.735-.137-.977-.413-.242-.276-.363-.623-.363-1.042 0-.438.124-.797.375-1.076.25-.28.587-.42 1.01-.42.41 0 .738.138.987.414.236.267.355.613.355 1.035zm-.643.02c0-.26-.055-.484-.166-.67-.129-.226-.314-.34-.554-.34a.618.618 0 0 0-.568.34 1.312 1.312 0 0 0-.166.682c0 .261.056.485.166.671.134.226.32.339.562.339.236 0 .421-.115.554-.345.116-.19.172-.415.172-.676zM48.947 8.3h-.556l-.046-.326h-.017c-.19.26-.461.39-.813.39a.833.833 0 0 1-.636-.256.81.81 0 0 1-.218-.576c0-.346.142-.61.427-.792.285-.182.685-.271 1.201-.267V6.42c0-.373-.192-.559-.578-.559-.275 0-.517.07-.726.21l-.126-.413c.259-.163.578-.244.955-.244.728 0 1.093.39 1.093 1.17v1.041c0 .283.014.508.04.675zm-.643-.972v-.436c-.682-.012-1.024.178-1.024.57 0 .147.04.258.119.331a.43.43 0 0 0 .302.11.619.619 0 0 0 .379-.13.536.536 0 0 0 .224-.445zM52.465 8.3h-.55l-.028-.454h-.018c-.175.345-.474.518-.894.518-.335 0-.615-.134-.836-.401-.222-.268-.332-.615-.332-1.042 0-.458.12-.829.36-1.112.234-.264.52-.396.86-.396.374 0 .636.128.785.384h.011V4.174h.62v3.364c0 .275.007.529.022.762zm-.642-1.193v-.472a.718.718 0 0 0-.241-.579.603.603 0 0 0-.414-.154.632.632 0 0 0-.544.28c-.132.186-.199.425-.199.716 0 .28.063.506.19.68a.634.634 0 0 0 .541.28.593.593 0 0 0 .49-.233.783.783 0 0 0 .177-.518zM57.76 6.862c0 .435-.123.792-.367 1.071-.257.288-.596.431-1.02.431-.409 0-.734-.137-.978-.413-.242-.276-.363-.623-.363-1.042 0-.438.125-.797.375-1.076.25-.28.587-.42 1.012-.42.408 0 .737.138.985.414.237.267.356.613.356 1.035zm-.642.02c0-.26-.056-.484-.166-.67-.13-.226-.315-.34-.556-.34a.62.62 0 0 0-.568.34 1.312 1.312 0 0 0-.166.682c0 .261.056.485.166.671.135.226.321.339.562.339.237 0 .423-.115.556-.345.114-.19.172-.415.172-.676zM61.088 8.3h-.618V6.68c0-.5-.187-.749-.562-.749a.553.553 0 0 0-.447.206.734.734 0 0 0-.172.485v1.677h-.62V6.28c0-.248-.006-.517-.021-.809h.543l.03.442h.016a.912.912 0 0 1 .321-.341c.169-.106.356-.159.562-.159a.88.88 0 0 1 .647.256c.215.21.321.522.321.937V8.3zM65.255 5.942h-.682v1.374c0 .35.12.524.36.524.112 0 .204-.01.277-.03l.016.478c-.123.047-.283.07-.481.07-.245 0-.435-.076-.573-.227-.138-.151-.206-.405-.206-.762V5.942h-.407v-.47h.407v-.519l.606-.186v.704h.682v.471zM68.532 8.3h-.62V6.692c0-.507-.186-.761-.56-.761-.288 0-.484.147-.591.441a.802.802 0 0 0-.03.226V8.3h-.618V4.174h.619v1.704h.012a.933.933 0 0 1 .836-.465c.257 0 .469.085.637.256.21.213.315.53.315.949V8.3zM71.913 6.752c0 .113-.009.207-.024.285h-1.856c.008.28.097.492.269.64.157.132.36.198.607.198.275 0 .526-.044.751-.134l.097.437a2.3 2.3 0 0 1-.934.175c-.432 0-.771-.13-1.017-.387-.247-.258-.37-.605-.37-1.039 0-.427.115-.782.345-1.065.24-.302.564-.454.973-.454.4 0 .705.152.91.454.166.24.249.537.249.89zm-.591-.163a.857.857 0 0 0-.12-.483.539.539 0 0 0-.493-.262.585.585 0 0 0-.492.256.96.96 0 0 0-.184.49h1.289z"/>
    </g>
</svg>
