<svg xmlns="http://www.w3.org/2000/svg" width="144" height="48" viewBox="0 0 144 48">
    <g fill="none" fill-rule="evenodd">
        <rect width="144" height="48" fill="#4C6F8C" rx="5.76"/>
        <path fill="#FFF" d="M23.46 26.247l.01.006s4.63 2.612 5.135 2.875c.504.265.562.724-.036 1.06l-4.92 2.755-3.442-3.443 3.253-3.253zm-.907-.507L19.5 28.793 8.668 17.96l9.498 5.321 4.387 2.458zM7.994 41.713L19.5 30.207l3.243 3.243-2.544 1.425-2.033 1.139-10.172 5.699zm-1.193-.222a.879.879 0 0 1-.001-.05V18.09a.77.77 0 0 1 .127-.455L18.793 29.5 6.8 41.491z"/>
        <g fill="#FFF">
            <path d="M97.964 33.555l-1.038 1.014c-.24.136-.479.295-.717.407-.72.339-1.454.424-2.106.424-.693 0-1.78-.047-2.889-.876C89.674 33.4 89 31.47 89 29.789c0-3.481 2.74-5.189 4.974-5.189.78 0 1.583.202 2.235.629 1.085.742 1.365 1.706 1.52 2.223l-5.102 2.132-1.671.135c.541 2.855 2.408 4.515 4.47 4.515 1.03 0 1.796-.348 2.497-.707 0 0 .141-.076.04.028zm-3.014-5.884c.427-.152.65-.282.65-.587 0-.874-1.013-1.884-2.223-1.884-.895 0-2.577.68-2.577 3.045 0 .37.045.762.068 1.155l4.082-1.729zM86.937 33.145c0 .859.157.992.903 1.06.39.044.777.064 1.16.108l-.84.487h-4c.525-.663.615-.729.615-1.17v-.493l-.009-13.14H83l1.7-.797h3.247c-.704.397-.914.638-1.005 1.412l-.005 12.533"/>
            <path d="M80.87 25.397c.497.416 1.534 1.3 1.534 2.975 0 1.632-.904 2.402-1.815 3.13-.28.287-.607.598-.607 1.08 0 .487.327.752.563.95l.781.614c.95.817 1.817 1.567 1.817 3.089 0 2.074-1.97 4.165-5.692 4.165-3.135 0-4.651-1.522-4.651-3.153 0-.794.388-1.918 1.668-2.689 1.341-.835 3.158-.947 4.131-1.012-.303-.4-.65-.819-.65-1.502 0-.374.11-.597.216-.86-.236.023-.475.047-.691.047-2.295 0-3.592-1.744-3.592-3.463 0-1.014.454-2.14 1.386-2.955 1.234-1.035 2.704-1.213 3.873-1.213H83.6l-1.386.797H80.87zm-1.497 10.027c-.183-.024-.293-.024-.513-.024-.202 0-1.407.044-2.34.358-.493.182-1.92.717-1.92 2.309 0 1.588 1.54 2.733 3.923 2.733 2.14 0 3.277-1.031 3.277-2.42 0-1.142-.735-1.745-2.427-2.956zm.674-4.814c.509-.485.553-1.157.553-1.538 0-1.514-.944-3.872-2.775-3.872-.571 0-1.19.274-1.54.697-.373.439-.485 1.008-.485 1.555 0 1.41.86 3.748 2.752 3.748.552 0 1.146-.256 1.495-.59zM67.29 35.4c-3.446 0-5.29-2.792-5.29-5.32 0-2.953 2.318-5.48 5.616-5.48 3.188 0 5.184 2.596 5.184 5.321 0 2.663-1.973 5.479-5.51 5.479zm2.454-1.77c.528-.734.656-1.652.656-2.547 0-2.024-.917-5.883-3.626-5.883-.72 0-1.446.296-1.969.78-.853.804-1.005 1.814-1.005 2.806 0 2.27 1.067 6.014 3.714 6.014a2.75 2.75 0 0 0 2.23-1.17zM55.29 35.4c-3.448 0-5.29-2.792-5.29-5.32 0-2.953 2.32-5.48 5.618-5.48 3.187 0 5.182 2.596 5.182 5.321 0 2.663-1.972 5.479-5.51 5.479zm2.455-1.77c.524-.734.655-1.652.655-2.547 0-2.024-.92-5.883-3.627-5.883-.724 0-1.442.296-1.967.78-.854.804-1.006 1.814-1.006 2.806 0 2.27 1.072 6.014 3.716 6.014.853 0 1.724-.435 2.229-1.17zM48.62 34.342l-2.952.694c-1.196.194-2.27.364-3.407.364-5.692 0-7.861-4.304-7.861-7.672 0-4.114 3.073-7.928 8.336-7.928 1.114 0 2.185.168 3.16.442 1.548.446 2.271.996 2.723 1.318l-1.714 1.673-.723.166.515-.844c-.698-.7-1.98-1.992-4.416-1.992-3.256 0-5.712 2.542-5.712 6.253 0 3.987 2.804 7.736 7.302 7.736 1.322 0 2.002-.272 2.62-.527v-3.417l-3.116.172 1.652-.911H49.4l-.535.528c-.144.126-.164.17-.204.338-.022.193-.042.807-.042 1.022v2.585M104.546 33.441V39H103.4V24.855h1.146v1.611c.747-1.04 2.112-1.866 3.697-1.866 2.842 0 4.757 2.077 4.757 5.364 0 3.265-1.915 5.385-4.757 5.385-1.497 0-2.837-.743-3.697-1.908zm7.254-3.151c0-2.547-1.337-4.49-3.708-4.49-1.472 0-2.88 1.149-3.492 2.15v4.655c.612 1.004 2.02 2.195 3.492 2.195 2.371 0 3.708-1.96 3.708-4.51zM114.2 20.4h1.2v14.4h-1.2zM127.914 37.833c.243.105.658.17.92.17.696 0 1.18-.276 1.615-1.252l.83-1.824L126.8 24.6h1.268l3.842 8.949 3.804-8.949H137l-5.462 12.494c-.567 1.287-1.459 1.906-2.683 1.906a4.62 4.62 0 0 1-1.137-.148l.196-1.019M124.888 35.196a18.91 18.91 0 0 1-.176-.94 6.192 6.192 0 0 1-.055-.808c-.39.562-.943 1.03-1.65 1.399-.707.371-1.38.553-2.3.553-1.11 0-1.972-.268-2.586-.811-.613-.543-.921-1.278-.921-2.208 0-.929.446-1.683 1.337-2.26.89-.58 2.04-.867 3.464-.867h2.656v-1.288c0-.742-.257-1.325-.772-1.748-.516-.423-1.24-.637-2.18-.637-.86 0-1.556.195-2.086.576-.526.39-.79.871-.79 1.452h-1.167l-.024-.056c-.042-.783.323-1.47 1.1-2.063.772-.592 1.784-.89 3.03-.89 1.242 0 2.247.293 3.004.879.757.579 1.136 1.416 1.136 2.51v5.113c0 .368.018.722.065 1.068.048.346.125.692.227 1.026h-1.313zm-4.177-.996c.936 0 1.61-.21 2.297-.626.683-.412 1.149-.951 1.392-1.603V30h-2.583c-.987 0-1.804.22-2.447.661-.644.441-.97.975-.97 1.595 0 .585.207 1.053.617 1.408.412.358.976.536 1.694.536z"/>
        </g>
        <g fill="#FFF">
            <path d="M33.8 11.096c0-2.006 1.65-3.296 3.702-3.296 1.375 0 2.274.593 2.835 1.318l-1.005.526c-.38-.478-1.047-.85-1.83-.85-1.396 0-2.433.955-2.433 2.302 0 1.327 1.037 2.301 2.433 2.301.72 0 1.354-.296 1.67-.573v-.984h-2.114v-.984H40.4v2.379c-.687.697-1.682 1.165-2.898 1.165-2.052 0-3.702-1.308-3.702-3.304M42.2 14.4V7.8H47v1.02h-3.571v1.701h3.498v1.02h-3.498v1.84H47V14.4h-4.8M50.294 14.4V8.82H48.2V7.8h5.4v1.02h-2.094v5.58h-1.212M57.8 7.8H59v6.6h-1.2zM62.294 14.4V8.82H60.2V7.8h5.4v1.02h-2.093v5.58h-1.213M69.8 11.1c0-1.904 1.489-3.3 3.6-3.3 2.1 0 3.6 1.396 3.6 3.3s-1.5 3.3-3.6 3.3c-2.111 0-3.6-1.396-3.6-3.3zm6 .3c0-1.375-.944-2.4-2.4-2.4-1.466 0-2.4 1.025-2.4 2.4 0 1.364.934 2.4 2.4 2.4 1.456 0 2.4-1.036 2.4-2.4zM83.627 14.4l-3.613-4.72v4.72H78.8V7.8h1.246l3.54 4.572V7.8H84.8v6.6h-1.173"/>
        </g>
    </g>
</svg>
