<svg xmlns="http://www.w3.org/2000/svg" width="144" height="48" viewBox="0 0 144 48">
    <g fill="none" fill-rule="evenodd">
        <rect width="144" height="48" fill="#4C6F8C" rx="5.854"/>
        <g fill="#FFF">
            <path d="M31.273 22.901c-.03-3.433 2.76-5.104 2.888-5.181-1.58-2.347-4.03-2.668-4.89-2.694-2.058-.22-4.053 1.254-5.101 1.254-1.069 0-2.683-1.232-4.422-1.196-2.238.035-4.332 1.355-5.48 3.405-2.37 4.179-.602 10.32 1.668 13.698 1.136 1.656 2.463 3.502 4.2 3.437 1.7-.07 2.335-1.104 4.385-1.104 2.032 0 2.629 1.104 4.4 1.062 1.824-.028 2.972-1.661 4.068-3.332 1.313-1.894 1.84-3.763 1.861-3.86-.042-.013-3.541-1.374-3.577-5.489M27.927 12.804c.914-1.164 1.54-2.748 1.365-4.356-1.322.06-2.977.932-3.93 2.071-.843 1.004-1.596 2.649-1.401 4.195 1.486.113 3.012-.763 3.966-1.91"/>
        </g>
        <g fill="#FFF">
            <path d="M55.889 35.289h-2.375l-1.301-4.164H47.69l-1.24 4.164H44.14l4.481-14.177h2.768l4.501 14.177zm-4.068-5.911l-1.177-3.701c-.124-.38-.359-1.27-.702-2.672h-.041c-.138.603-.36 1.494-.661 2.672l-1.157 3.7h3.738zM67.391 30.052c0 1.739-.463 3.113-1.39 4.122-.831.898-1.864 1.346-3.094 1.346-1.33 0-2.286-.482-2.866-1.45v5.363h-2.23V28.426c0-1.092-.028-2.211-.082-3.36h1.96l.125 1.622h.042c.743-1.222 1.872-1.833 3.386-1.833 1.184 0 2.172.477 2.963 1.43.79.956 1.186 2.21 1.186 3.767zm-2.272.083c0-.995-.22-1.815-.66-2.46-.483-.673-1.13-1.01-1.942-1.01-.55 0-1.05.187-1.496.558-.448.371-.74.858-.878 1.462-.069.28-.103.51-.103.69v1.707c0 .742.224 1.369.671 1.883.448.51 1.03.768 1.745.768.84 0 1.493-.332 1.96-.989.47-.66.703-1.529.703-2.609zM78.934 30.052c0 1.739-.463 3.113-1.391 4.122-.832.898-1.863 1.346-3.095 1.346-1.328 0-2.284-.482-2.865-1.45v5.363h-2.23V28.426c0-1.092-.028-2.211-.083-3.36h1.961l.125 1.622h.042c.742-1.222 1.87-1.833 3.386-1.833 1.183 0 2.172.477 2.964 1.43.788.956 1.186 2.21 1.186 3.767zm-2.273.083c0-.995-.22-1.815-.662-2.46-.48-.673-1.127-1.01-1.939-1.01-.55 0-1.05.187-1.498.558a2.59 2.59 0 0 0-.877 1.462 3.07 3.07 0 0 0-.104.69v1.707c0 .742.224 1.369.67 1.883.448.51 1.03.768 1.747.768.84 0 1.494-.332 1.96-.989.469-.66.703-1.529.703-2.609zM91.84 31.313c0 1.206-.414 2.187-1.238 2.945-.906.826-2.17 1.24-3.791 1.24-1.498 0-2.698-.293-3.604-.882l.516-1.893c.978.589 2.052.884 3.22.884.842 0 1.495-.194 1.962-.579.468-.386.704-.9.704-1.544 0-.577-.195-1.06-.58-1.453-.386-.391-1.024-.758-1.919-1.092-2.437-.926-3.656-2.281-3.656-4.061 0-1.164.43-2.116 1.29-2.86.86-.744 2-1.116 3.417-1.116 1.267 0 2.322.225 3.16.673l-.56 1.852c-.788-.435-1.678-.652-2.674-.652-.787 0-1.405.197-1.845.589-.371.35-.56.778-.56 1.285 0 .559.214 1.024.642 1.387.37.336 1.046.702 2.022 1.094 1.199.492 2.078 1.065 2.643 1.724.568.658.85 1.48.85 2.46M99.23 26.77h-2.457v4.964c0 1.262.433 1.892 1.3 1.892.4 0 .73-.034.991-.105l.062 1.724c-.44.168-1.018.252-1.733.252-.882 0-1.569-.275-2.067-.822-.496-.547-.743-1.464-.743-2.756v-5.152h-1.464v-1.705h1.464V23.19l2.19-.673v2.545h2.457v1.709M110.297 30.094c0 1.57-.44 2.86-1.322 3.87-.921 1.037-2.147 1.556-3.675 1.556-1.474 0-2.647-.497-3.521-1.492-.874-.995-1.312-2.25-1.312-3.764 0-1.584.453-2.882 1.353-3.89.901-1.01 2.117-1.515 3.644-1.515 1.474 0 2.656.5 3.552 1.493.856.966 1.281 2.212 1.281 3.742zm-2.311.052c0-.937-.199-1.74-.597-2.412-.468-.812-1.138-1.217-2.004-1.217-.892 0-1.58.405-2.045 1.217-.4.672-.598 1.49-.598 2.454 0 .938.198 1.743.598 2.412.483.813 1.155 1.219 2.027 1.219.852 0 1.52-.416 2.004-1.238.409-.688.615-1.497.615-2.435zM117.548 27.064a3.813 3.813 0 0 0-.703-.062c-.784 0-1.39.3-1.817.904-.372.533-.557 1.206-.557 2.02v5.363h-2.23v-7.003c0-1.177-.022-2.252-.064-3.219h1.942l.081 1.956h.062c.236-.672.607-1.214 1.115-1.619.498-.366 1.033-.549 1.611-.549.207 0 .393.016.558.042l.002 2.167M127.52 29.694c0 .407-.026.75-.082 1.03h-6.688c.024 1.01.35 1.784.97 2.316.564.475 1.294.714 2.188.714.99 0 1.894-.16 2.706-.484l.35 1.577c-.95.42-2.072.632-3.365.632-1.556 0-2.778-.467-3.667-1.398-.885-.932-1.33-2.186-1.33-3.754 0-1.54.411-2.824 1.24-3.848.865-1.093 2.036-1.64 3.508-1.64 1.447 0 2.542.547 3.284 1.64.59.866.886 1.94.886 3.215zm-2.126-.59c.016-.673-.13-1.253-.433-1.745-.386-.633-.98-.948-1.776-.948-.73 0-1.323.308-1.775.926-.371.49-.592 1.082-.66 1.766l4.644.002z"/>
        </g>
        <g fill="#FFF">
            <path d="M50.746 16.135h-1.169l-.639-2.046h-2.222l-.61 2.046H44.97l2.203-6.968h1.36l2.214 6.968zm-2-2.905l-.578-1.82c-.061-.186-.173-.62-.346-1.312h-.02c-.072.3-.173.734-.326 1.313l-.568 1.82h1.838zM56.253 11.111l-1.868 5.024H53.32l-1.807-5.024h1.178l.843 2.657c.142.445.263.869.354 1.271h.03c.082-.36.203-.785.355-1.27l.833-2.658h1.148M60.23 16.135l-.082-.578h-.03c-.335.466-.823.692-1.442.692-.883 0-1.512-.63-1.512-1.478 0-1.24 1.055-1.882 2.882-1.882v-.092c0-.662-.345-.993-1.025-.993-.487 0-.914.125-1.288.373l-.223-.734c.457-.29 1.025-.435 1.695-.435 1.289 0 1.94.693 1.94 2.079v1.85c0 .507.02.9.07 1.2l-.986-.002zm-.154-2.502c-1.218 0-1.827.3-1.827 1.013 0 .527.315.785.751.785.559 0 1.076-.433 1.076-1.022v-.776zM63.585 10.284c-.365 0-.65-.29-.65-.672 0-.383.295-.662.671-.662.376 0 .68.28.67.662 0 .403-.284.672-.69.672zm-.527.827h1.096v5.024h-1.096v-5.024zM66.102 8.806h1.096v7.33h-1.096zM71.856 16.135l-.083-.578h-.03c-.334.466-.821.692-1.44.692-.883 0-1.513-.63-1.513-1.478 0-1.24 1.056-1.882 2.883-1.882v-.092c0-.662-.345-.993-1.025-.993-.488 0-.914.125-1.289.373l-.224-.735c.457-.29 1.025-.435 1.696-.435 1.288 0 1.94.693 1.94 2.078v1.85c0 .508.02.901.069 1.2h-.984zm-.153-2.502c-1.218 0-1.827.3-1.827 1.013 0 .527.315.785.75.785.56 0 1.077-.433 1.077-1.022v-.776zM77.21 16.25c-.7 0-1.216-.301-1.552-.89h-.02l-.063.775h-.933c.03-.402.04-.858.04-1.354V8.806h1.098v3.04h.02c.325-.558.852-.837 1.572-.837 1.188 0 2.021 1.035 2.021 2.543 0 1.56-.925 2.697-2.183 2.697zm-.222-4.364c-.631 0-1.208.558-1.208 1.334v.879c0 .692.518 1.26 1.188 1.26.82 0 1.31-.68 1.31-1.766 0-1.014-.51-1.707-1.29-1.707zM81.015 8.806h1.095v7.33h-1.095zM88.075 13.892h-3.29c.022.951.64 1.488 1.552 1.488.489 0 .935-.083 1.33-.237l.171.775c-.466.207-1.014.31-1.653.31-1.544 0-2.457-.993-2.457-2.532 0-1.54.935-2.699 2.334-2.699 1.257 0 2.051.952 2.051 2.389.003.196-.006.372-.038.506zm-1.004-.796c0-.775-.386-1.323-1.087-1.323-.63 0-1.126.558-1.199 1.323h2.286zM94.719 16.25c-1.442 0-2.376-1.097-2.376-2.585 0-1.551.954-2.657 2.458-2.657 1.42 0 2.375 1.044 2.375 2.575 0 1.57-.985 2.666-2.457 2.666zm.041-4.426c-.791 0-1.299.754-1.299 1.81 0 1.033.518 1.788 1.289 1.788.77 0 1.288-.807 1.288-1.81 0-1.023-.507-1.788-1.278-1.788zM103.068 16.135h-1.093v-2.884c0-.889-.336-1.334-.996-1.334-.65 0-1.097.569-1.097 1.23v2.988h-1.094v-3.587c0-.445-.013-.92-.042-1.438h.964l.052.776h.03c.293-.537.893-.879 1.563-.879 1.034 0 1.713.807 1.713 2.119v3.01M110.24 11.949h-1.206v2.44c0 .62.212.93.638.93.192 0 .356-.02.487-.052l.03.848c-.213.083-.498.125-.85.125-.866 0-1.38-.486-1.38-1.758V11.95h-.719v-.838h.719v-.92l1.075-.331v1.25h1.206v.839M116.044 16.135h-1.097v-2.863c0-.9-.336-1.354-.995-1.354-.567 0-1.095.393-1.095 1.189v3.028h-1.097V8.806h1.097v3.018h.021c.344-.547.843-.817 1.482-.817 1.045 0 1.684.827 1.684 2.14v2.988M121.645 13.892h-3.29c.021.951.638 1.488 1.552 1.488.49 0 .935-.083 1.329-.237l.171.775c-.465.207-1.014.31-1.654.31-1.543 0-2.456-.993-2.456-2.532 0-1.54.934-2.699 2.333-2.699 1.258 0 2.051.952 2.051 2.389.004.196-.006.372-.036.506zm-1.006-.796c0-.775-.384-1.323-1.085-1.323-.63 0-1.126.558-1.199 1.323h2.284z"/>
        </g>
    </g>
</svg>
