<svg xmlns="http://www.w3.org/2000/svg" width="120" height="23" viewBox="0 0 120 23">
    <g fill="none" fill-rule="nonzero">
        <path fill="#86BC25" d="M113.455 19.636a3.273 3.273 0 0 1 6.545 0c0 1.773-1.5 3.273-3.273 3.273a3.273 3.273 0 0 1-3.272-3.273"/>
        <path fill="#000" d="M18.545 10.483c0 3.67-.94 6.421-2.956 8.387-2.016 1.965-4.838 2.948-8.466 2.948H0V0h7.526c3.561 0 6.249.852 8.13 2.686 1.949 1.77 2.89 4.39 2.89 7.797m-6.182.197c0-2.031-.404-3.473-1.21-4.456-.739-.917-2.016-1.441-3.628-1.441H5.913V16.97h1.344c1.814 0 3.09-.524 3.964-1.573.74-1.048 1.143-2.62 1.143-4.717M38.182 0h5.455v22.909h-5.455zM61.09 14.148c0 2.717-.672 4.89-2.154 6.452-1.481 1.562-3.502 2.31-6.06 2.31-2.492 0-4.445-.748-5.927-2.378-1.481-1.63-2.222-3.735-2.222-6.384 0-2.717.674-4.89 2.155-6.384 1.482-1.562 3.502-2.31 6.06-2.31 1.617 0 3.031.34 4.243 1.02 1.28.678 2.155 1.697 2.828 2.988.809 1.426 1.078 2.92 1.078 4.686m-10.572 0c0 1.494.202 2.513.538 3.26.337.747.943 1.087 1.886 1.087s1.481-.34 1.885-1.087c.337-.747.539-1.902.539-3.26 0-1.494-.202-2.513-.539-3.26-.336-.68-.942-1.087-1.885-1.087-.808 0-1.482.34-1.886 1.087-.336.747-.538 1.766-.538 3.26M63.273 5.455h5.455v16.364h-5.455zM63.273 0h5.455v3.273h-5.455zM81.288 18.4c.746 0 1.695-.2 2.712-.531v4.178a10.08 10.08 0 0 1-2.17.663c-.677.133-1.491.2-2.44.2-1.898 0-3.254-.465-4.136-1.46-.813-.928-1.288-2.387-1.288-4.31v-6.765H72V6.131h1.966V2.019l5.695-.928v5.173h3.661v4.178h-3.661v6.366c.136 1.127.61 1.592 1.627 1.592M93.288 18.4c.746 0 1.695-.2 2.712-.531v4.178a10.08 10.08 0 0 1-2.17.663c-.677.133-1.491.2-2.44.2-1.898 0-3.254-.465-4.136-1.46-.813-.928-1.288-2.387-1.288-4.31v-6.765H84V6.131h1.966V1.953l5.695-.862v5.173h3.661v4.178h-3.661v6.366c.068 1.127.61 1.592 1.627 1.592M111.296 7.416c-1.393-1.353-3.342-1.961-5.85-1.961-2.645 0-4.734.744-6.196 2.3-1.463 1.556-2.16 3.72-2.16 6.562 0 2.706.767 4.871 2.299 6.36 1.601 1.488 3.76 2.232 6.545 2.232 1.393 0 2.507-.068 3.482-.27.905-.203 1.95-.474 2.785-.948l-.835-3.788c-.627.27-1.323.473-1.88.609-.836.203-1.811.27-2.786.27-1.114 0-2.02-.27-2.646-.744-.627-.541-.975-1.285-.975-2.233h10.376v-2.638c-.07-2.503-.836-4.397-2.16-5.75zm-8.217 4.669c.07-.88.348-1.624.766-2.03.418-.406.975-.609 1.741-.609.696 0 1.393.203 1.81.677.418.473.627 1.082.697 1.962h-5.014zM34.932 7.416c-1.462-1.353-3.342-1.961-5.849-1.961-2.646 0-4.735.744-6.197 2.3-1.462 1.556-2.159 3.72-2.159 6.562 0 2.706.766 4.871 2.298 6.36 1.602 1.488 3.76 2.232 6.546 2.232 1.392 0 2.506-.068 3.481-.27.905-.203 1.95-.474 2.786-.948l-.836-3.856c-.627.27-1.323.474-1.88.609-.836.203-1.81.27-2.785.27-1.115 0-2.02-.27-2.646-.744-.627-.54-.975-1.285-.975-2.232H37.09v-2.571c-.07-2.503-.836-4.397-2.159-5.75zm-8.286 4.669c.07-.88.348-1.624.766-2.03.418-.406.975-.609 1.74-.609.767 0 1.393.203 1.811.677.418.473.627 1.082.697 1.962h-5.014z"/>
    </g>
</svg>
