<svg xmlns="http://www.w3.org/2000/svg" width="120" height="120" viewBox="0 0 120 120">
    <g fill="none" fill-rule="evenodd">
        <path fill="#4C6F8C" fill-rule="nonzero" d="M60 119c32.585 0 59-26.415 59-59S92.585 1 60 1 1 27.415 1 60s26.415 59 59 59zm0 1C26.863 120 0 93.137 0 60S26.863 0 60 0s60 26.863 60 60-26.863 60-60 60z"/>
        <path fill="#F2F8FC" d="M66.484 40.767l21.85 36.165A4 4 0 0 1 84.91 83H41.964a4 4 0 0 1-3.455-6.015L59.605 40.82a4 4 0 0 1 6.879-.053z"/>
        <path stroke="#4C6F8C" d="M63.011 35.062a3.5 3.5 0 0 0-6.022 0l-24.98 42.154A3.5 3.5 0 0 0 35.02 82.5h49.96a3.5 3.5 0 0 0 3.011-5.284l-24.98-42.154z"/>
        <path fill="#4C6F8C" d="M60.73 67.916h-1.845l-.897-18.615h3.639l-.897 18.615zm-3.058 5.22c0-1.593.703-2.39 2.11-2.39.679 0 1.203.205 1.572.615.37.41.554 1.002.554 1.776 0 .75-.187 1.333-.562 1.749-.375.416-.897.624-1.565.624-.61 0-1.113-.185-1.511-.554-.399-.37-.598-.976-.598-1.82z"/>
    </g>
</svg>
