<svg width="120" height="120" viewBox="0 0 120 120" xmlns="http://www.w3.org/2000/svg"><title>67AAE111-5AE6-495A-8F8B-93160A5BDEE8</title><g fill="none" fill-rule="evenodd"><path d="M60 119c32.585 0 59-26.415 59-59S92.585 1 60 1 1 27.415 1 60s26.415 59 59 59zm0 1C26.863 120 0 93.137 0 60S26.863 0 60 0s60 26.863 60 60-26.863 60-60 60z" fill="#E2644E" fill-rule="nonzero"/><path d="M32 53h60v35.993A5.006 5.006 0 0 1 87 94H32V53z" fill="#FDF4F3"/><path d="M30.327 92.378l27.247-23.557c1.955-1.76 3.977-1.76 5.925-.006l26.166 23.557a.5.5 0 1 0 .67-.744L64.168 68.071c-2.328-2.095-4.928-2.095-7.255 0l-27.24 23.55a.5.5 0 0 0 .654.757z" fill="#E2644E" fill-rule="nonzero"/><path d="M29 89c0 2.336 1.807 4 4 4h54c2.194 0 4-1.663 4-4V50H29v39zm4 5c-2.727 0-5-2.092-5-5V50c0-.733.271-1 1-1h62c.728 0 1 .267 1 1v39c0 2.908-2.272 5-5 5H33z" fill="#E2644E" fill-rule="nonzero"/><path d="M28.175 49.879L56 73.437c2.431 2.084 6.568 2.084 9 0l26.826-23.558a.5.5 0 0 0 .053-.705c-.18-.21-.705-.054-.705-.054s-62.874-.155-63.054.055a.5.5 0 0 0 .055.704z" fill="#E2644E" fill-rule="nonzero"/><path d="M91.498 50H28.502a.5.5 0 0 1-.327-.878l27.502-23.559c2.436-2.084 6.195-2.084 8.63 0l27.517 23.559a.5.5 0 0 1-.326.878z" fill="#E2644E" fill-rule="nonzero"/><path d="M32 51.6l24.4 20.852c2.388 2.064 5.812 2.064 8.2 0L87 52.6V26H32v25.6z" fill="#E2644E" fill-rule="nonzero"/><path d="M33 52.47l23.513 19.81c2.3 2.02 5.6 2.021 7.902 0L86 53.45V27H33v25.47z" fill="#FFF" fill-rule="nonzero"/><path d="M36 55.034L56.513 72.28c2.3 2.02 5.6 2.021 7.902 0L86 53.45V30H36v25.034z" fill="#FDF4F3" fill-rule="nonzero"/><path d="M52.368 39.09c0 .943-.262 1.663-.785 2.162-.524.499-1.278.748-2.262.748h-1.598v-5.71h1.766c.909 0 1.616.244 2.121.733.505.49.758 1.179.758 2.067zm-.984.031c0-1.367-.64-2.05-1.918-2.05h-.809v4.144h.664c1.375 0 2.063-.698 2.063-2.094zM54.214 42h-.917v-4.32h.918V42zm-.972-5.465c0-.164.045-.29.135-.379.09-.088.218-.133.385-.133.161 0 .287.045.377.133.09.089.134.215.134.38 0 .155-.044.278-.134.368a.51.51 0 0 1-.377.135c-.167 0-.295-.045-.385-.135a.499.499 0 0 1-.135-.369zm4.988 4.235c0 .421-.154.745-.461.97-.308.225-.748.338-1.32.338-.576 0-1.038-.087-1.387-.262v-.793c.508.235.98.352 1.418.352.565 0 .847-.17.847-.512 0-.11-.03-.2-.093-.273a1.11 1.11 0 0 0-.309-.227 5.31 5.31 0 0 0-.598-.265c-.497-.193-.834-.386-1.01-.578-.175-.193-.263-.443-.263-.75 0-.37.149-.657.447-.862.298-.204.704-.306 1.217-.306.508 0 .988.102 1.441.308l-.297.692c-.466-.193-.858-.29-1.175-.29-.485 0-.727.139-.727.415 0 .135.063.25.19.343.126.094.401.223.826.387.357.138.616.264.777.379.162.115.281.247.36.396.078.15.117.33.117.538zM61.725 42l-.184-.602h-.03c-.21.263-.419.442-.63.538-.21.095-.482.142-.812.142-.425 0-.756-.114-.994-.344-.239-.229-.358-.553-.358-.972 0-.446.166-.782.496-1.008.331-.227.835-.35 1.512-.371l.746-.024v-.23c0-.276-.064-.483-.193-.62-.13-.136-.329-.204-.6-.204-.221 0-.433.032-.637.097a4.805 4.805 0 0 0-.586.23l-.296-.655c.234-.123.49-.216.77-.28.278-.064.54-.095.788-.095.55 0 .964.12 1.244.359.28.24.42.616.42 1.129V42h-.656zm-1.367-.625c.333 0 .6-.093.803-.28.201-.185.302-.447.302-.782v-.376l-.554.024c-.433.016-.747.088-.944.217-.196.129-.295.326-.295.592 0 .192.058.341.172.447.115.105.287.158.516.158zm5.312-3.773c.539 0 .959.195 1.26.586.3.39.45.938.45 1.644 0 .708-.152 1.26-.457 1.654-.304.395-.727.592-1.27.592-.546 0-.97-.196-1.273-.59h-.062L64.15 42h-.688v-6.078h.918v1.445c0 .107-.005.266-.015.477-.01.21-.018.345-.024.402h.04c.291-.43.72-.644 1.289-.644zm-.239.75c-.37 0-.636.108-.799.326-.162.217-.246.581-.252 1.092v.062c0 .526.084.907.25 1.143.167.235.44.353.817.353.325 0 .572-.129.74-.387.168-.257.252-.63.252-1.117 0-.982-.336-1.472-1.008-1.472zM69.165 42h-.918v-6.078h.918V42zm3 .078c-.673 0-1.198-.196-1.577-.588-.379-.392-.568-.931-.568-1.619 0-.706.175-1.26.527-1.664.351-.404.835-.605 1.45-.605.57 0 1.02.173 1.35.52.331.345.497.822.497 1.429v.496h-2.88c.014.42.127.741.34.967.214.225.515.338.903.338.255 0 .493-.025.713-.073.22-.048.456-.128.709-.24v.746c-.224.107-.45.182-.68.227-.229.044-.49.066-.785.066zm-.169-3.781c-.292 0-.525.092-.701.277-.176.185-.28.455-.315.809h1.961c-.005-.357-.09-.627-.257-.81-.167-.184-.396-.276-.688-.276zM58.046 53h-3.871v-.695l1.473-1.48c.435-.446.723-.762.865-.948.142-.186.245-.361.31-.525.066-.165.098-.34.098-.528 0-.258-.077-.46-.232-.61-.155-.148-.37-.222-.643-.222-.219 0-.43.04-.635.121-.204.081-.44.227-.709.438l-.496-.606a3.2 3.2 0 0 1 .926-.57c.3-.112.619-.168.957-.168.531 0 .957.139 1.277.416.32.277.48.65.48 1.12 0 .257-.045.502-.138.734-.092.231-.234.47-.426.716-.191.246-.51.58-.955.998l-.992.961v.04h2.711V53zm1.824 0h-.926v-5.71h3.222v.788H59.87v1.785h2.152v.793H59.87V53zm6.514 0l-.57-1.586H63.63L63.072 53h-.984l2.136-5.734h1.016L67.377 53h-.993zm-.816-2.39l-.535-1.555a9.6 9.6 0 0 1-.162-.492 10.643 10.643 0 0 1-.143-.493c-.07.32-.173.67-.308 1.051l-.516 1.488h1.664z" fill="#E2644E"/></g></svg>