<svg width="120" height="120" viewBox="0 0 120 120" xmlns="http://www.w3.org/2000/svg"><title>FE9C049A-23D1-4AFD-8C89-4C4F3C95804C</title><g fill="none" fill-rule="evenodd"><path d="M60 119c32.585 0 59-26.415 59-59S92.585 1 60 1 1 27.415 1 60s26.415 59 59 59zm0 1C26.863 120 0 93.137 0 60S26.863 0 60 0s60 26.863 60 60-26.863 60-60 60z" fill="#4C6F8C" fill-rule="nonzero"/><path d="M32 53h60v35.993A5.006 5.006 0 0 1 87 94H32V53z" fill="#F2F8FC"/><path d="M30.327 92.378l27.247-23.557c1.955-1.76 3.977-1.76 5.925-.006l26.166 23.557a.5.5 0 1 0 .67-.744L64.168 68.071c-2.328-2.095-4.928-2.095-7.255 0l-27.24 23.55a.5.5 0 0 0 .654.757z" fill="#4C6F8C" fill-rule="nonzero"/><path d="M29 89c0 2.336 1.807 4 4 4h54c2.194 0 4-1.663 4-4V50H29v39zm4 5c-2.727 0-5-2.092-5-5V50c0-.733.271-1 1-1h62c.728 0 1 .267 1 1v39c0 2.908-2.272 5-5 5H33z" fill="#4C6F8C" fill-rule="nonzero"/><path d="M28.175 49.879L56 73.437c2.431 2.084 6.568 2.084 9 0l26.826-23.558a.5.5 0 0 0 .053-.705c-.18-.21-.705-.054-.705-.054s-62.874-.155-63.054.055a.5.5 0 0 0 .055.704z" fill="#4C6F8C" fill-rule="nonzero"/><path d="M91.498 50H28.502a.5.5 0 0 1-.327-.878l27.502-23.559c2.436-2.084 6.195-2.084 8.63 0l27.517 23.559a.5.5 0 0 1-.326.878z" fill="#4C6F8C" fill-rule="nonzero"/><path d="M32 51.6l24.4 20.852c2.388 2.064 5.812 2.064 8.2 0L87 52.6V26H32v25.6z" fill="#4C6F8C" fill-rule="nonzero"/><path d="M33 52.47l23.513 19.81c2.3 2.02 5.6 2.021 7.902 0L86 53.45V27H33v25.47z" fill="#FFF" fill-rule="nonzero"/><path d="M36 55.034L56.513 72.28c2.3 2.02 5.6 2.021 7.902 0L86 53.45V30H36v25.034z" fill="#F2F8FC" fill-rule="nonzero"/><path d="M52.08 42h-3.23v-5.71h3.23v.788h-2.296v1.555h2.152v.781h-2.152v1.793h2.296V42zm4.738 0h-.922v-2.656c0-.334-.067-.582-.201-.746-.134-.164-.347-.246-.639-.246-.388 0-.672.114-.851.343-.18.23-.27.614-.27 1.153V42h-.918v-4.32h.719l.129.566h.047c.13-.206.315-.364.554-.476.24-.112.506-.168.797-.168 1.037 0 1.555.527 1.555 1.582V42zm3.78 0l-.183-.602h-.031c-.209.263-.418.442-.63.538-.21.095-.481.142-.812.142-.424 0-.756-.114-.994-.344-.238-.229-.357-.553-.357-.972 0-.446.165-.782.496-1.008.33-.227.834-.35 1.511-.371l.747-.024v-.23c0-.276-.065-.483-.194-.62-.129-.136-.329-.204-.6-.204-.22 0-.433.032-.636.097a4.805 4.805 0 0 0-.586.23l-.297-.655c.234-.123.49-.216.77-.28.278-.064.541-.095.789-.095.55 0 .964.12 1.244.359.28.24.42.616.42 1.129V42h-.657zm-1.367-.625c.334 0 .601-.093.803-.28.202-.185.303-.447.303-.782v-.376l-.555.024c-.432.016-.747.088-.943.217-.197.129-.295.326-.295.592 0 .192.057.341.172.447.114.105.286.158.515.158zm5.312-3.773c.539 0 .959.195 1.26.586.3.39.45.938.45 1.644 0 .708-.151 1.26-.456 1.654-.305.395-.728.592-1.27.592-.547 0-.971-.196-1.273-.59h-.063l-.168.512h-.687v-6.078h.918v1.445c0 .107-.005.266-.016.477-.01.21-.018.345-.023.402h.039c.292-.43.721-.644 1.289-.644zm-.238.75c-.37 0-.636.108-.8.326-.162.217-.246.581-.251 1.092v.062c0 .526.083.907.25 1.143.167.235.439.353.816.353.326 0 .573-.129.74-.387.169-.257.252-.63.252-1.117 0-.982-.335-1.472-1.007-1.472zM68.038 42h-.918v-6.078h.918V42zm3 .078c-.672 0-1.198-.196-1.577-.588-.379-.392-.568-.931-.568-1.619 0-.706.176-1.26.527-1.664.352-.404.835-.605 1.45-.605.57 0 1.02.173 1.351.52.33.345.496.822.496 1.429v.496h-2.879c.013.42.127.741.34.967.214.225.514.338.902.338.256 0 .493-.025.713-.073.22-.048.457-.128.71-.24v.746c-.225.107-.451.182-.68.227-.23.044-.491.066-.786.066zm-.168-3.781c-.292 0-.526.092-.702.277-.175.185-.28.455-.314.809h1.96c-.004-.357-.09-.627-.257-.81-.167-.184-.396-.276-.687-.276zM58.046 53h-3.871v-.695l1.473-1.48c.435-.446.723-.762.865-.948.142-.186.245-.361.31-.525.066-.165.098-.34.098-.528 0-.258-.077-.46-.232-.61-.155-.148-.37-.222-.643-.222-.219 0-.43.04-.635.121-.204.081-.44.227-.709.438l-.496-.606a3.2 3.2 0 0 1 .926-.57c.3-.112.619-.168.957-.168.531 0 .957.139 1.277.416.32.277.48.65.48 1.12 0 .257-.045.502-.138.734-.092.231-.234.47-.426.716-.191.246-.51.58-.955.998l-.992.961v.04h2.711V53zm1.824 0h-.926v-5.71h3.222v.788H59.87v1.785h2.152v.793H59.87V53zm6.514 0l-.57-1.586H63.63L63.072 53h-.985l2.137-5.734h1.016L67.377 53h-.993zm-.816-2.39l-.535-1.555a9.6 9.6 0 0 1-.162-.492 10.643 10.643 0 0 1-.143-.493c-.07.32-.173.67-.308 1.051l-.516 1.488h1.664z" fill="#4C6F8C"/></g></svg>