<svg xmlns="http://www.w3.org/2000/svg" xmlns:xlink="http://www.w3.org/1999/xlink" width="20" height="17" viewBox="0 0 20 17">
    <defs>
        <path id="a" d="M0 0h17.956v16.78H0V0z"/>
    </defs>
    <g fill="none" fill-rule="evenodd" opacity="1">
        <path fill="#4C6F8C" d="M19.851 8.45c-.567-.757-1.998-2.376-4.206-3.596l-2.062 2.061c.316.568.484 1.241.484 1.935 0 2.251-1.809 4.06-4.06 4.06a4.001 4.001 0 0 1-1.935-.484l-1.388 1.389c1.01.294 2.103.483 3.323.483 5.511 0 8.877-3.786 9.865-5.048a.735.735 0 0 0-.02-.8"/>
        <path fill="#4C6F8C" d="M9.986 11.795a2.953 2.953 0 0 0 2.945-2.945 3.16 3.16 0 0 0-.21-1.093l-3.829 3.828c.337.126.716.21 1.094.21"/>
        <mask id="b" fill="#fff">
            <use xlink:href="#a"/>
        </mask>
        <path fill="#4C6F8C" d="M5.927 8.85c0-2.25 1.83-4.06 4.06-4.06.63 0 1.24.148 1.787.421l-.862.863a3.279 3.279 0 0 0-.926-.147A2.953 2.953 0 0 0 7.041 8.87c0 .316.063.631.148.926l-.863.862a4.448 4.448 0 0 1-.4-1.809M17.749.205a.698.698 0 0 0-.989 0l-3.618 3.618a11.28 11.28 0 0 0-3.134-.442c-5.51 0-8.876 3.787-9.865 5.049a.633.633 0 0 0 0 .799 13.89 13.89 0 0 0 4.06 3.513l-2.84 2.84a.698.698 0 0 0 0 .988c.147.147.316.21.505.21.19 0 .357-.063.505-.21L17.769 1.173c.252-.232.252-.694-.021-.968" mask="url(#b)"/>
    </g>
</svg>
