<svg width="120" height="120" viewBox="0 0 120 120" xmlns="http://www.w3.org/2000/svg"><title>7B3F7832-B05B-455C-BCFF-699573A1E427</title><g fill="none" fill-rule="evenodd"><path d="M60 119c32.585 0 59-26.415 59-59S92.585 1 60 1 1 27.415 1 60s26.415 59 59 59zm0 1C26.863 120 0 93.137 0 60S26.863 0 60 0s60 26.863 60 60-26.863 60-60 60z" fill="#4C6F8C" fill-rule="nonzero"/><path d="M32 53h60v35.993A5.006 5.006 0 0 1 87 94H32V53z" fill="#F2F8FC"/><path d="M30.327 92.378l27.247-23.557c1.955-1.76 3.977-1.76 5.925-.006l26.166 23.557a.5.5 0 1 0 .67-.744L64.168 68.071c-2.328-2.095-4.928-2.095-7.255 0l-27.24 23.55a.5.5 0 0 0 .654.757z" fill="#4C6F8C" fill-rule="nonzero"/><path d="M29 89c0 2.336 1.807 4 4 4h54c2.194 0 4-1.663 4-4V50H29v39zm4 5c-2.727 0-5-2.092-5-5V50c0-.733.271-1 1-1h62c.728 0 1 .267 1 1v39c0 2.908-2.272 5-5 5H33z" fill="#4C6F8C" fill-rule="nonzero"/><path d="M28.175 49.879L56 73.437c2.431 2.084 6.568 2.084 9 0l26.826-23.558a.5.5 0 0 0 .053-.705c-.18-.21-.705-.054-.705-.054s-62.874-.155-63.054.055a.5.5 0 0 0 .055.704z" fill="#4C6F8C" fill-rule="nonzero"/><path d="M91.498 50H28.502a.5.5 0 0 1-.327-.878l27.502-23.559c2.436-2.084 6.195-2.084 8.63 0l27.517 23.559a.5.5 0 0 1-.326.878z" fill="#4C6F8C" fill-rule="nonzero"/><path d="M32 51.6l24.4 20.852c2.388 2.064 5.812 2.064 8.2 0L87 52.6V26H32v25.6z" fill="#4C6F8C" fill-rule="nonzero"/><path d="M33 52.47l23.513 19.81c2.3 2.02 5.6 2.021 7.902 0L86 53.45V27H33v25.47z" fill="#FFF" fill-rule="nonzero"/><path d="M36 55.034L56.513 72.28c2.3 2.02 5.6 2.021 7.902 0L86 53.45V30H36v25.034z" fill="#F2F8FC" fill-rule="nonzero"/><path d="M47.312 38.016c0 .596-.196 1.053-.586 1.37-.39.318-.947.477-1.668.477h-.594V42h-.934v-5.71h1.645c.714 0 1.248.145 1.604.437.355.291.533.72.533 1.289zm-2.848 1.062h.496c.48 0 .83-.083 1.055-.25.224-.167.336-.427.336-.781 0-.328-.1-.573-.301-.734-.2-.162-.513-.243-.938-.243h-.648v2.008zM50.858 42l-.184-.602h-.031c-.208.263-.418.442-.629.538-.21.095-.482.142-.812.142-.425 0-.756-.114-.995-.344-.238-.229-.357-.553-.357-.972 0-.446.165-.782.496-1.008.33-.227.835-.35 1.512-.371l.746-.024v-.23c0-.276-.065-.483-.193-.62-.13-.136-.33-.204-.6-.204-.221 0-.434.032-.637.097a4.805 4.805 0 0 0-.586.23l-.297-.655c.235-.123.491-.216.77-.28.279-.064.542-.095.789-.095.55 0 .964.12 1.244.359.28.24.42.616.42 1.129V42h-.656zm-1.367-.625c.333 0 .6-.093.802-.28.202-.185.303-.447.303-.782v-.376l-.555.024c-.432.016-.746.088-.943.217-.197.129-.295.326-.295.592 0 .192.057.341.172.447.115.105.286.158.516.158zm6.007-.605c0 .421-.154.745-.461.97-.308.225-.748.338-1.32.338-.576 0-1.038-.087-1.387-.262v-.793c.508.235.98.352 1.418.352.565 0 .847-.17.847-.512 0-.11-.03-.2-.093-.273a1.11 1.11 0 0 0-.309-.227 5.31 5.31 0 0 0-.598-.265c-.497-.193-.834-.386-1.01-.578-.175-.193-.263-.443-.263-.75 0-.37.149-.657.447-.862.298-.204.704-.306 1.217-.306.508 0 .988.102 1.441.308l-.297.692c-.466-.193-.858-.29-1.175-.29-.485 0-.727.139-.727.415 0 .135.063.25.19.343.126.094.401.223.826.387.357.138.616.264.777.379.162.115.281.247.36.396.078.15.117.33.117.538zm3.694 0c0 .421-.153.745-.46.97-.308.225-.748.338-1.321.338-.576 0-1.038-.087-1.387-.262v-.793c.508.235.98.352 1.418.352.565 0 .848-.17.848-.512 0-.11-.031-.2-.094-.273a1.11 1.11 0 0 0-.309-.227 5.31 5.31 0 0 0-.597-.265c-.498-.193-.834-.386-1.01-.578-.176-.193-.264-.443-.264-.75 0-.37.15-.657.448-.862.298-.204.703-.306 1.216-.306.508 0 .989.102 1.442.308l-.297.692c-.466-.193-.858-.29-1.176-.29-.484 0-.726.139-.726.415 0 .135.063.25.19.343.125.094.4.223.825.387.357.138.616.264.778.379.161.115.28.247.359.396.078.15.117.33.117.538zM63.527 42l-.558-2.016c-.068-.213-.19-.71-.367-1.488h-.036c-.15.703-.27 1.202-.359 1.496L61.633 42h-1.016l-1.21-4.32h.937l.55 2.129c.126.526.214.976.266 1.351h.024c.026-.19.065-.408.119-.654.053-.246.1-.43.138-.553l.657-2.273h1.007l.637 2.273c.04.128.088.323.147.586.058.263.093.468.103.613h.031c.04-.32.13-.768.274-1.343l.558-2.13h.922L64.56 42h-1.032zm6.625-2.168c0 .706-.181 1.257-.543 1.652-.362.396-.866.594-1.512.594-.404 0-.76-.091-1.07-.273a1.805 1.805 0 0 1-.715-.785c-.167-.342-.25-.737-.25-1.188 0-.7.18-1.247.539-1.64.36-.394.866-.59 1.52-.59.624 0 1.12.2 1.484.603.364.402.547.945.547 1.627zm-3.145 0c0 .997.369 1.496 1.105 1.496.73 0 1.094-.499 1.094-1.496 0-.987-.367-1.48-1.101-1.48-.386 0-.665.127-.838.382-.173.256-.26.621-.26 1.098zm6.19-2.23c.186 0 .338.013.458.039l-.09.855a1.735 1.735 0 0 0-.406-.047c-.368 0-.665.12-.893.36-.228.24-.342.55-.342.933V42h-.918v-4.32h.719l.121.761h.047c.143-.257.33-.462.56-.613.231-.15.479-.226.745-.226zm2.355 4.476c-.539 0-.96-.195-1.261-.586-.302-.39-.454-.939-.454-1.644 0-.709.153-1.26.46-1.655.305-.394.73-.591 1.271-.591.568 0 1 .21 1.297.628h.047a5.503 5.503 0 0 1-.067-.734v-1.574h.922V42h-.719l-.16-.566h-.043c-.294.43-.725.644-1.293.644zm.246-.742c.378 0 .653-.106.825-.318.172-.213.26-.557.265-1.034v-.129c0-.544-.088-.93-.265-1.16-.177-.229-.455-.343-.832-.343a.844.844 0 0 0-.746.392c-.175.262-.262.635-.262 1.12 0 .478.084.844.254 1.095.169.251.423.377.761.377zm-23.796 8.61h.648c.435 0 .75-.081.946-.243.195-.161.293-.4.293-.719 0-.323-.106-.554-.317-.695-.21-.14-.528-.21-.953-.21h-.617v1.866zm0 .773V53h-.934v-5.71h1.614c.737 0 1.282.137 1.636.413.355.276.532.693.532 1.25 0 .711-.37 1.218-1.11 1.52L55.354 53H54.29l-1.367-2.281h-.922zm5.769 2.36c-.672 0-1.198-.197-1.576-.589-.38-.392-.569-.931-.569-1.619 0-.706.176-1.26.528-1.664.351-.404.834-.605 1.449-.605.57 0 1.02.173 1.351.52.331.345.496.822.496 1.429v.496h-2.879c.014.42.127.741.34.967.214.225.515.338.903.338.255 0 .493-.025.713-.073.22-.048.456-.128.709-.24v.746c-.224.107-.451.182-.68.227-.23.044-.491.066-.785.066zm-.168-3.782c-.292 0-.526.092-.701.277-.176.185-.281.455-.315.809h1.961c-.005-.357-.091-.627-.258-.81-.166-.184-.396-.276-.687-.276zm5.593 2.473c0 .421-.154.745-.461.97-.308.225-.748.338-1.32.338-.576 0-1.038-.087-1.387-.262v-.793c.508.235.98.352 1.418.352.565 0 .847-.17.847-.512 0-.11-.03-.2-.093-.273a1.11 1.11 0 0 0-.309-.227 5.31 5.31 0 0 0-.598-.265c-.497-.193-.834-.386-1.01-.578-.175-.193-.263-.443-.263-.75 0-.37.149-.657.447-.862.298-.204.704-.306 1.217-.306.508 0 .988.102 1.441.308l-.296.692c-.467-.193-.859-.29-1.176-.29-.485 0-.727.139-.727.415 0 .135.063.25.19.343.126.094.401.223.826.387.357.138.616.264.777.379.162.115.281.247.36.396.078.15.117.33.117.538zm2.679 1.308c-.672 0-1.198-.196-1.577-.588-.378-.392-.568-.931-.568-1.619 0-.706.176-1.26.527-1.664.352-.404.835-.605 1.45-.605.57 0 1.02.173 1.351.52.33.345.496.822.496 1.429v.496h-2.879c.013.42.127.741.34.967.214.225.515.338.903.338.255 0 .492-.025.712-.073.22-.048.457-.128.71-.24v.746c-.225.107-.451.182-.68.227-.23.044-.491.066-.785.066zm-.168-3.781c-.292 0-.526.092-.702.277-.175.185-.28.455-.314.809h1.961c-.005-.357-.091-.627-.258-.81-.167-.184-.396-.276-.687-.276zm4.3 3.039c.224 0 .448-.035.672-.106v.692a1.853 1.853 0 0 1-.393.111c-.16.03-.326.045-.498.045-.87 0-1.305-.458-1.305-1.375v-2.328h-.59v-.406l.633-.336.313-.914h.566v.96h1.23v.696h-1.23v2.313c0 .22.055.384.166.49.11.105.256.158.436.158z" fill="#4C6F8C"/></g></svg>