<svg width="120" height="120" viewBox="0 0 120 120" xmlns="http://www.w3.org/2000/svg"><title>615FB936-FB43-436E-8D25-616C77999F46</title><g fill="none" fill-rule="evenodd"><path d="M60 119c32.585 0 59-26.415 59-59S92.585 1 60 1 1 27.415 1 60s26.415 59 59 59zm0 1C26.863 120 0 93.137 0 60S26.863 0 60 0s60 26.863 60 60-26.863 60-60 60z" fill="#4C6F8C" fill-rule="nonzero"/><path d="M32 53h60v35.993A5.006 5.006 0 0 1 87 94H32V53z" fill="#F2F8FC"/><path d="M30.327 92.378l27.247-23.557c1.955-1.76 3.977-1.76 5.925-.006l26.166 23.557a.5.5 0 1 0 .67-.744L64.168 68.071c-2.328-2.095-4.928-2.095-7.255 0l-27.24 23.55a.5.5 0 0 0 .654.757z" fill="#4C6F8C" fill-rule="nonzero"/><path d="M29 89c0 2.336 1.807 4 4 4h54c2.194 0 4-1.663 4-4V50H29v39zm4 5c-2.727 0-5-2.092-5-5V50c0-.733.271-1 1-1h62c.728 0 1 .267 1 1v39c0 2.908-2.272 5-5 5H33z" fill="#4C6F8C" fill-rule="nonzero"/><path d="M28.175 49.879L56 73.437c2.431 2.084 6.568 2.084 9 0l26.826-23.558a.5.5 0 0 0 .053-.705c-.18-.21-.705-.054-.705-.054s-62.874-.155-63.054.055a.5.5 0 0 0 .055.704z" fill="#4C6F8C" fill-rule="nonzero"/><path d="M91.498 50H28.502a.5.5 0 0 1-.327-.878l27.502-23.559c2.436-2.084 6.195-2.084 8.63 0l27.517 23.559a.5.5 0 0 1-.326.878z" fill="#4C6F8C" fill-rule="nonzero"/><path d="M32 51.6l24.4 20.852c2.388 2.064 5.812 2.064 8.2 0L87 52.6V26H32v25.6z" fill="#4C6F8C" fill-rule="nonzero"/><path d="M33 52.47l23.513 19.81c2.3 2.02 5.6 2.021 7.902 0L86 53.45V27H33v25.47z" fill="#FFF" fill-rule="nonzero"/><path d="M36 55.034L56.513 72.28c2.3 2.02 5.6 2.021 7.902 0L86 53.45V30H36v25.034z" fill="#F2F8FC" fill-rule="nonzero"/><path d="M48.649 37.008c-.537 0-.959.19-1.266.57-.307.38-.46.905-.46 1.574 0 .7.147 1.23.443 1.59.295.36.723.54 1.283.54.242 0 .476-.025.703-.073.227-.048.462-.11.707-.186v.801c-.448.17-.956.254-1.523.254-.836 0-1.478-.253-1.926-.76-.448-.506-.672-1.23-.672-2.173 0-.594.109-1.114.326-1.56.218-.444.532-.786.943-1.023.412-.236.895-.355 1.45-.355.583 0 1.122.122 1.617.367l-.336.778a5.016 5.016 0 0 0-.611-.24 2.203 2.203 0 0 0-.678-.104zm6.175 2.824c0 .706-.181 1.257-.543 1.652-.362.396-.866.594-1.512.594-.404 0-.76-.091-1.07-.273a1.805 1.805 0 0 1-.715-.785c-.167-.342-.25-.737-.25-1.188 0-.7.18-1.247.539-1.64.36-.394.866-.59 1.52-.59.625 0 1.12.2 1.484.603.365.402.547.945.547 1.627zm-3.145 0c0 .997.369 1.496 1.106 1.496.729 0 1.094-.499 1.094-1.496 0-.987-.368-1.48-1.102-1.48-.385 0-.665.127-.838.382-.173.256-.26.621-.26 1.098zM59.48 42h-.922v-2.656c0-.334-.067-.582-.2-.746-.135-.164-.348-.246-.64-.246-.387 0-.671.114-.851.343-.18.23-.27.614-.27 1.153V42h-.917v-4.32h.718l.13.566h.046c.13-.206.315-.364.555-.476.24-.112.505-.168.797-.168 1.036 0 1.554.527 1.554 1.582V42zm3.246-3.625H61.67V42h-.922v-3.625h-.71v-.43l.71-.28v-.282c0-.51.12-.889.36-1.135.239-.246.605-.37 1.097-.37.323 0 .64.054.953.161l-.242.695a2.116 2.116 0 0 0-.648-.109c-.209 0-.36.064-.456.193-.095.13-.142.323-.142.58v.282h1.055v.695zM64.377 42h-.918v-4.32h.918V42zm-.973-5.465c0-.164.045-.29.135-.379.09-.088.218-.133.385-.133.161 0 .287.045.377.133.09.089.135.215.135.38 0 .155-.045.278-.135.368a.51.51 0 0 1-.377.135c-.167 0-.295-.045-.385-.135a.499.499 0 0 1-.135-.369zm4.28 1.067c.186 0 .338.013.458.039l-.09.855a1.735 1.735 0 0 0-.406-.047c-.367 0-.665.12-.893.36-.228.24-.342.55-.342.933V42h-.918v-4.32h.72l.12.761h.047c.143-.257.33-.462.56-.613.231-.15.48-.226.745-.226zm4.7 4.398h-.923v-2.664c0-.33-.062-.578-.187-.74-.125-.163-.32-.244-.586-.244-.354 0-.614.115-.78.345-.165.23-.247.614-.247 1.15V42h-.918v-4.32h.718l.13.566h.046c.12-.206.294-.364.522-.476.227-.112.478-.168.752-.168.664 0 1.104.226 1.32.68h.062c.128-.214.308-.381.54-.5.231-.12.497-.18.796-.18.516 0 .892.13 1.127.39.236.26.354.658.354 1.192V42h-.918v-2.664c0-.33-.063-.578-.19-.74-.126-.163-.322-.244-.588-.244-.356 0-.617.11-.783.334-.165.222-.248.564-.248 1.025V42zm-31.382 6.68h1l.879 2.449c.133.349.221.677.265.984h.032c.023-.143.066-.317.129-.521.062-.205.393-1.175.992-2.912h.992l-1.848 4.894c-.336.899-.895 1.348-1.68 1.348-.202 0-.4-.022-.593-.067v-.726c.138.031.295.047.473.047.442 0 .753-.257.933-.77l.16-.406-1.734-4.32zm8.577 2.152c0 .706-.18 1.257-.543 1.652-.362.396-.866.594-1.511.594-.404 0-.76-.091-1.07-.273a1.805 1.805 0 0 1-.716-.785c-.166-.342-.25-.737-.25-1.188 0-.7.18-1.247.54-1.64.359-.394.865-.59 1.519-.59.625 0 1.12.2 1.484.603.365.402.547.945.547 1.627zm-3.144 0c0 .997.368 1.496 1.105 1.496.73 0 1.094-.499 1.094-1.496 0-.987-.367-1.48-1.102-1.48-.385 0-.664.127-.837.382-.174.256-.26.621-.26 1.098zM53.48 53l-.129-.566h-.047c-.128.2-.31.358-.545.472a1.822 1.822 0 0 1-.806.172c-.524 0-.915-.13-1.172-.39-.258-.26-.387-.655-.387-1.184V48.68h.926v2.664c0 .33.067.579.203.744.135.165.347.248.637.248.385 0 .668-.115.85-.346.18-.23.27-.616.27-1.158V48.68h.923V53h-.723zm4.023-4.398c.184 0 .337.013.457.039l-.09.855a1.735 1.735 0 0 0-.407-.047c-.367 0-.664.12-.892.36-.228.24-.342.55-.342.933V53h-.918v-4.32h.719l.121.761h.047c.143-.257.33-.462.56-.613.23-.15.479-.226.745-.226zM63.768 53h-3.23v-5.71h3.23v.788H61.47v1.555h2.152v.781h-2.152v1.793h2.297V53zm4.577 0h-.922v-2.664c0-.33-.062-.578-.187-.74-.125-.163-.32-.244-.586-.244-.355 0-.614.115-.78.345-.165.23-.248.614-.248 1.15V53h-.918v-4.32h.719l.129.566h.047c.12-.206.293-.364.521-.476.228-.112.479-.168.752-.168.664 0 1.104.226 1.32.68h.063c.128-.214.307-.381.54-.5.23-.12.497-.18.796-.18.516 0 .891.13 1.127.39s.353.658.353 1.192V53h-.917v-2.664c0-.33-.064-.578-.19-.74-.126-.163-.322-.244-.588-.244-.357 0-.618.11-.783.334-.165.222-.248.564-.248 1.025V53zm6.51 0l-.183-.602h-.031c-.208.263-.418.442-.629.538-.21.095-.482.142-.812.142-.425 0-.756-.114-.995-.344-.238-.229-.357-.553-.357-.972 0-.446.165-.782.496-1.008.33-.227.835-.35 1.512-.371l.746-.024v-.23c0-.276-.064-.483-.193-.62-.13-.136-.33-.204-.6-.204-.221 0-.434.032-.637.097a4.805 4.805 0 0 0-.586.23l-.297-.655c.235-.123.491-.216.77-.28.279-.064.542-.095.789-.095.55 0 .964.12 1.244.359.28.24.42.616.42 1.129V53h-.656zm-1.366-.625c.333 0 .6-.093.802-.28.202-.185.303-.447.303-.782v-.376l-.555.024c-.432.016-.746.088-.943.217-.197.129-.295.326-.295.592 0 .192.057.341.172.447.115.105.287.158.516.158zM77.51 53h-.918v-4.32h.918V53zm-.972-5.465c0-.164.045-.29.134-.379.09-.088.219-.133.385-.133.162 0 .287.045.377.133.09.089.135.215.135.38 0 .155-.045.278-.135.368a.51.51 0 0 1-.377.135c-.166 0-.295-.045-.385-.135a.499.499 0 0 1-.134-.369zM79.542 53h-.918v-6.078h.918V53z" fill="#4C6F8C"/></g></svg>