<svg xmlns="http://www.w3.org/2000/svg" width="20" height="11" viewBox="0 0 20 11">
    <g fill="#4C6F8C" fill-rule="evenodd" opacity="1">
        <path d="M10.007 9.508a4.049 4.049 0 0 1-4.06-4.06c0-2.25 1.81-4.06 4.06-4.06 2.25 0 4.06 1.81 4.06 4.06 0 2.25-1.81 4.06-4.06 4.06m9.865-4.46C18.905 3.786 15.518 0 10.007 0 4.497 0 1.131 3.786.142 5.048a.633.633 0 0 0 0 .8c.968 1.262 4.354 5.048 9.865 5.048s8.877-3.786 9.865-5.048a.696.696 0 0 0 0-.8"/>
        <path d="M9.993 2.827a2.608 2.608 0 1 1 0 5.216 2.608 2.608 0 0 1 0-5.216"/>
    </g>
</svg>
