<svg xmlns="http://www.w3.org/2000/svg" xmlns:xlink="http://www.w3.org/1999/xlink" width="120" height="120" viewBox="0 0 120 120">
    <defs>
        <path id="a" d="M32.023 16c0 8.837-7.163 16-16 16-8.836 0-16-7.163-16-16s7.164-16 16-16c8.837 0 16 7.163 16 16z"/>
    </defs>
    <g fill="none" fill-rule="evenodd">
        <path fill="#4C6F8C" fill-rule="nonzero" d="M60 119c32.585 0 59-26.415 59-59S92.585 1 60 1 1 27.415 1 60s26.415 59 59 59zm0 1C26.863 120 0 93.137 0 60S26.863 0 60 0s60 26.863 60 60-26.863 60-60 60z"/>
        <path fill="#34809E" fill-rule="nonzero" d="M33 31.996c0-1.102.897-1.996 1.998-1.996h51.004c1.103 0 1.998.895 1.998 1.996v56.008A1.999 1.999 0 0 1 86.002 90H34.998A1.998 1.998 0 0 1 33 88.004V31.996z"/>
        <path fill="#FFF" fill-rule="nonzero" d="M34 31.996v56.008c0 .55.447.996.998.996h51.004c.55 0 .998-.447.998-.996V31.996a.998.998 0 0 0-.998-.996H34.998a.999.999 0 0 0-.998.996z"/>
        <path fill="#34809E" fill-rule="nonzero" d="M39.75 40h6a.25.25 0 1 0 0-.5h-6a.25.25 0 1 0 0 .5zM47.75 40h9a.25.25 0 1 0 0-.5h-9a.25.25 0 1 0 0 .5zM39.75 43h4.5a.25.25 0 1 0 0-.5h-4.5a.25.25 0 1 0 0 .5zM46.25 43h9a.25.25 0 1 0 0-.5h-9a.25.25 0 1 0 0 .5zM39.75 46h7.5a.25.25 0 1 0 0-.5h-7.5a.25.25 0 1 0 0 .5zM39.75 67.5h6a.25.25 0 1 0 0-.5h-6a.25.25 0 1 0 0 .5zM39.75 70.5h8a.25.25 0 1 0 0-.5h-8a.25.25 0 1 0 0 .5zM39.75 73.5h5.5a.25.25 0 1 0 0-.5h-5.5a.25.25 0 1 0 0 .5zM63.75 67.5h6a.25.25 0 1 0 0-.5h-6a.25.25 0 1 0 0 .5zM63.75 70.5h6a.25.25 0 1 0 0-.5h-6a.25.25 0 1 0 0 .5zM63.75 73.5h6a.25.25 0 1 0 0-.5h-6a.25.25 0 1 0 0 .5zM77.25 67.5h4a.25.25 0 1 0 0-.5h-4a.25.25 0 1 0 0 .5zM77.25 70.5h4a.25.25 0 1 0 0-.5h-4a.25.25 0 1 0 0 .5zM77.25 73.5h4a.25.25 0 1 0 0-.5h-4a.25.25 0 1 0 0 .5zM39.75 52.5h40a.25.25 0 1 0 0-.5h-40a.25.25 0 1 0 0 .5zM39.75 58.5h41a.25.25 0 1 0 0-.5h-41a.25.25 0 1 0 0 .5zM39.75 61.5h38.5a.25.25 0 1 0 0-.5h-38.5a.25.25 0 1 0 0 .5zM39.75 80.5h41a.25.25 0 1 0 0-.5h-41a.25.25 0 1 0 0 .5zM39.75 83.5h38.5a.25.25 0 1 0 0-.5h-38.5a.25.25 0 1 0 0 .5zM39.75 55.5h42a.25.25 0 1 0 0-.5h-42a.25.25 0 1 0 0 .5zM49.25 46h4a.25.25 0 1 0 0-.5h-4a.25.25 0 1 0 0 .5z"/>
        <g transform="translate(42.8 34.05)">
            <mask id="b" fill="#fff">
                <use xlink:href="#a"/>
            </mask>
            <use fill="#F2F8FC" xlink:href="#a"/>
            <path fill="#34809E" fill-rule="nonzero" d="M-4.4 10.4h9.6a.8.8 0 1 0 0-1.6h-9.6a.8.8 0 1 0 0 1.6zM8.4 10.4h14.4a.8.8 0 1 0 0-1.6H8.4a.8.8 0 1 0 0 1.6zM-4.4 15.2h7.2a.8.8 0 1 0 0-1.6h-7.2a.8.8 0 1 0 0 1.6zM6 15.2h14.4a.8.8 0 1 0 0-1.6H6a.8.8 0 1 0 0 1.6zM-4.4 20h12a.8.8 0 1 0 0-1.6h-12a.8.8 0 1 0 0 1.6zM10.8 20h6.4a.8.8 0 1 0 0-1.6h-6.4a.8.8 0 1 0 0 1.6z" mask="url(#b)"/>
        </g>
        <path fill="#F2F8FC" fill-rule="nonzero" d="M75.223 50.05c0-9.058-7.342-16.4-16.4-16.4-9.057 0-16.4 7.343-16.4 16.4 0 9.057 7.343 16.4 16.4 16.4 9.058 0 16.4-7.342 16.4-16.4zm-4 0c0 6.849-5.551 12.4-12.4 12.4-6.848 0-12.4-5.552-12.4-12.4 0-6.848 5.552-12.4 12.4-12.4 6.849 0 12.4 5.551 12.4 12.4z"/>
        <path fill="#34809E" fill-rule="nonzero" d="M74.423 50.05c0 8.616-6.984 15.6-15.6 15.6-8.615 0-15.6-6.984-15.6-15.6s6.985-15.6 15.6-15.6c8.616 0 15.6 6.984 15.6 15.6zm.8 0c0-9.058-7.342-16.4-16.4-16.4-9.057 0-16.4 7.343-16.4 16.4 0 9.057 7.343 16.4 16.4 16.4 9.058 0 16.4-7.342 16.4-16.4zm-4 0c0 6.849-5.551 12.4-12.4 12.4-6.848 0-12.4-5.552-12.4-12.4 0-6.848 5.552-12.4 12.4-12.4 6.849 0 12.4 5.551 12.4 12.4zm.8 0c0-7.29-5.91-13.2-13.2-13.2-7.29 0-13.2 5.91-13.2 13.2 0 7.29 5.91 13.2 13.2 13.2 7.29 0 13.2-5.91 13.2-13.2z"/>
        <path fill="#F2F8FC" d="M85.862 71.958l-8.388-8.389-1.13 1.132-4.947-4.777a16.13 16.13 0 0 1-2.216 2.31l4.9 4.73-1.132 1.132 8.389 8.388a3.2 3.2 0 1 0 4.524-4.526z"/>
        <path fill="#34809E" fill-rule="nonzero" d="M86.145 71.675l-8.388-8.389a.4.4 0 0 0-.566 0l-1.13 1.132.56-.005-4.946-4.776a.4.4 0 0 0-.593.04 15.729 15.729 0 0 1-2.16 2.252.4.4 0 0 0-.019.592l4.9 4.73-.005-.57-1.132 1.132a.4.4 0 0 0 0 .565l8.389 8.388a3.6 3.6 0 1 0 5.09-5.09zm-.565.566a2.799 2.799 0 1 1-3.96 3.96l-8.388-8.388v.565l1.132-1.132a.4.4 0 0 0-.005-.57l-4.9-4.73-.019.592a16.528 16.528 0 0 0 2.271-2.366l-.592.04 4.946 4.777a.4.4 0 0 0 .561-.005l1.131-1.132h-.565l8.388 8.389z"/>
    </g>
</svg>
