<svg xmlns="http://www.w3.org/2000/svg" width="120" height="120" viewBox="0 0 120 120">
    <g fill="none" fill-rule="evenodd">
        <path fill="#4C6F8C" fill-rule="nonzero" d="M60 119c32.585 0 59-26.415 59-59S92.585 1 60 1 1 27.415 1 60s26.415 59 59 59zm0 1C26.863 120 0 93.137 0 60S26.863 0 60 0s60 26.863 60 60-26.863 60-60 60z"/>
        <path fill="#F2F8FC" d="M32 53h60v35.993A5.006 5.006 0 0 1 87 94H32V53z"/>
        <path fill="#4C6F8C" fill-rule="nonzero" d="M30.327 92.378l27.247-23.557c1.955-1.76 3.977-1.76 5.925-.006l26.166 23.557a.5.5 0 1 0 .67-.744L64.168 68.071c-2.328-2.095-4.928-2.095-7.255 0l-27.24 23.55a.5.5 0 0 0 .654.757z"/>
        <path fill="#4C6F8C" fill-rule="nonzero" d="M29 89c0 2.336 1.807 4 4 4h54c2.194 0 4-1.663 4-4V50H29v39zm4 5c-2.727 0-5-2.092-5-5V50c0-.733.271-1 1-1h62c.728 0 1 .267 1 1v39c0 2.908-2.272 5-5 5H33z"/>
        <path fill="#4C6F8C" fill-rule="nonzero" d="M28.175 49.879L56 73.437c2.431 2.084 6.568 2.084 9 0l26.826-23.558a.5.5 0 0 0 .053-.705c-.18-.21-.705-.054-.705-.054s-62.874-.155-63.054.055a.5.5 0 0 0 .055.704z"/>
        <path fill="#4C6F8C" fill-rule="nonzero" d="M91.498 50H28.502a.5.5 0 0 1-.327-.878l27.502-23.559c2.436-2.084 6.195-2.084 8.63 0l27.517 23.559a.5.5 0 0 1-.326.878z"/>
        <path fill="#4C6F8C" fill-rule="nonzero" d="M32 51.6l24.4 20.852c2.388 2.064 5.812 2.064 8.2 0L87 52.6V26H32v25.6z"/>
        <path fill="#FFF" fill-rule="nonzero" d="M33 52.47l23.513 19.81c2.3 2.02 5.6 2.021 7.902 0L86 53.45V27H33v25.47z"/>
        <path fill="#F2F8FC" fill-rule="nonzero" d="M36 55.034L56.513 72.28c2.3 2.02 5.6 2.021 7.902 0L86 53.45V30H36v25.034z"/>
        <path fill="#4C6F8C" d="M49.32 37.008c-.536 0-.958.19-1.265.57-.307.38-.46.905-.46 1.574 0 .7.147 1.23.443 1.59.295.36.723.54 1.283.54.242 0 .476-.025.703-.073.226-.048.462-.11.707-.186v.801c-.448.17-.956.254-1.524.254-.836 0-1.477-.253-1.925-.76-.448-.506-.672-1.23-.672-2.173 0-.594.108-1.114.326-1.56.217-.444.532-.786.943-1.023.412-.236.895-.355 1.45-.355.583 0 1.122.122 1.617.367l-.336.778a5.016 5.016 0 0 0-.612-.24 2.203 2.203 0 0 0-.677-.104zM55.465 42h-.921v-2.656c0-.334-.067-.582-.202-.746-.134-.164-.347-.246-.638-.246-.386 0-.669.115-.85.345-.18.23-.271.617-.271 1.158V42h-.918v-6.078h.918v1.543c0 .247-.016.512-.047.793h.058c.125-.209.3-.37.522-.485a1.68 1.68 0 0 1 .78-.171c1.046 0 1.57.527 1.57 1.582V42zm3.78 0l-.183-.602h-.03c-.21.263-.419.442-.63.538-.21.095-.482.142-.812.142-.425 0-.756-.114-.994-.344-.239-.229-.358-.553-.358-.972 0-.446.165-.782.496-1.008.33-.227.835-.35 1.512-.371l.746-.024v-.23c0-.276-.064-.483-.193-.62-.13-.136-.33-.204-.6-.204-.221 0-.434.032-.637.097a4.805 4.805 0 0 0-.586.23l-.296-.655c.234-.123.49-.216.769-.28.279-.064.542-.095.79-.095.549 0 .963.12 1.243.359.28.24.42.616.42 1.129V42h-.656zm-1.366-.625c.333 0 .6-.093.802-.28.202-.185.303-.447.303-.782v-.376l-.554.024c-.433.016-.747.088-.944.217-.196.129-.295.326-.295.592 0 .192.058.341.172.447.115.105.287.158.516.158zm6.905.625h-.922v-2.656c0-.334-.067-.582-.2-.746-.135-.164-.348-.246-.64-.246-.388 0-.671.114-.851.343-.18.23-.27.614-.27 1.153V42h-.918v-4.32h.72l.128.566h.047c.13-.206.315-.364.555-.476.24-.112.505-.168.797-.168 1.036 0 1.554.527 1.554 1.582V42zm4.726-4.32v.504l-.738.136a1.325 1.325 0 0 1 .234.758c0 .445-.154.796-.46 1.05-.308.256-.731.384-1.27.384-.138 0-.263-.01-.375-.032-.198.123-.297.266-.297.43 0 .1.046.173.138.223.093.05.263.074.51.074h.754c.477 0 .839.102 1.086.305.247.203.371.496.371.879 0 .49-.202.867-.605 1.132-.404.266-.987.399-1.75.399-.589 0-1.038-.104-1.348-.313-.31-.208-.465-.505-.465-.89 0-.266.084-.49.252-.67.168-.181.403-.307.705-.377a.69.69 0 0 1-.303-.252.636.636 0 0 1-.119-.365c0-.162.046-.298.137-.41.091-.112.227-.223.406-.332a1.203 1.203 0 0 1-.545-.471 1.385 1.385 0 0 1-.209-.764c0-.469.148-.832.444-1.09.295-.258.717-.386 1.263-.386.123 0 .251.008.385.025s.235.034.303.053h1.496zm-3.395 4.992c0 .198.09.35.268.457.178.107.43.16.752.16.5 0 .872-.072 1.117-.215.245-.143.367-.333.367-.57 0-.188-.067-.321-.2-.4-.135-.08-.384-.12-.749-.12h-.695c-.263 0-.472.062-.627.186a.608.608 0 0 0-.233.502zm.395-3.594c0 .271.07.48.209.625.14.146.34.219.6.219.53 0 .796-.284.796-.852 0-.28-.065-.498-.197-.65-.131-.152-.331-.229-.6-.229-.265 0-.466.076-.603.227-.137.151-.205.371-.205.66zm5.487 3c-.671 0-1.197-.196-1.576-.588-.379-.392-.568-.931-.568-1.619 0-.706.176-1.26.527-1.664.352-.404.835-.605 1.45-.605.57 0 1.02.173 1.351.52.33.345.496.822.496 1.429v.496h-2.879c.013.42.127.741.34.967.214.225.514.338.902.338.256 0 .493-.025.713-.073.22-.048.457-.128.71-.24v.746c-.225.107-.451.182-.68.227-.23.044-.491.066-.786.066zm-.167-3.781c-.292 0-.526.092-.702.277-.175.185-.28.455-.314.809h1.96c-.004-.357-.09-.627-.257-.81-.167-.184-.396-.276-.687-.276zM44.406 53h-3.871v-.695l1.472-1.48c.435-.446.724-.762.866-.948.142-.186.245-.361.31-.525.065-.165.098-.34.098-.528 0-.258-.078-.46-.233-.61-.155-.148-.369-.222-.642-.222-.219 0-.43.04-.635.121-.204.081-.44.227-.709.438l-.496-.606a3.2 3.2 0 0 1 .926-.57c.3-.112.618-.168.957-.168.531 0 .957.139 1.277.416.32.277.48.65.48 1.12 0 .257-.046.502-.138.734-.092.231-.234.47-.426.716-.191.246-.51.58-.955.998l-.992.961v.04h2.71V53zm1.823 0h-.925v-5.71h3.222v.788H46.23v1.785h2.153v.793h-2.153V53zm6.515 0l-.57-1.586H49.99L49.432 53h-.985l2.137-5.734H51.6L53.736 53h-.992zm-.816-2.39l-.535-1.555a9.6 9.6 0 0 1-.163-.492 10.643 10.643 0 0 1-.142-.493c-.07.32-.173.67-.309 1.051l-.515 1.488h1.664zm8.885-.52c0 .943-.262 1.663-.785 2.162-.524.499-1.278.748-2.262.748h-1.598v-5.71h1.766c.909 0 1.616.244 2.121.733.505.49.758 1.179.758 2.067zm-.984.031c0-1.367-.64-2.05-1.918-2.05h-.809v4.144h.664c1.375 0 2.063-.698 2.063-2.094zm3.8 2.957c-.672 0-1.198-.196-1.577-.588-.379-.392-.568-.931-.568-1.619 0-.706.176-1.26.527-1.664.352-.404.835-.605 1.45-.605.57 0 1.02.173 1.351.52.33.345.496.822.496 1.429v.496H62.43c.013.42.127.741.34.967.214.225.514.338.902.338.256 0 .493-.025.713-.073.22-.048.457-.128.71-.24v.746c-.225.107-.451.182-.68.227-.23.044-.491.066-.785.066zm-.168-3.781c-.292 0-.526.092-.702.277-.175.185-.28.455-.314.809h1.96c-.004-.357-.09-.627-.257-.81-.167-.184-.396-.276-.687-.276zM66.975 53l-1.64-4.32h.969l.878 2.511c.151.422.243.763.274 1.024h.031c.024-.188.115-.529.274-1.024l.878-2.511h.977L67.968 53h-.993zm4.015 0h-.918v-4.32h.918V53zm-.972-5.465c0-.164.044-.29.134-.379.09-.088.218-.133.385-.133.162 0 .287.045.377.133.09.089.135.215.135.38 0 .155-.045.278-.135.368a.51.51 0 0 1-.377.135c-.167 0-.295-.045-.385-.135a.499.499 0 0 1-.134-.369zm3.827 5.543c-.654 0-1.15-.19-1.49-.572-.34-.382-.51-.93-.51-1.643 0-.726.178-1.285.533-1.675.356-.391.87-.586 1.541-.586.456 0 .866.084 1.23.253l-.277.739c-.388-.151-.708-.227-.96-.227-.748 0-1.122.496-1.122 1.488 0 .485.093.849.28 1.092.186.244.459.365.818.365.409 0 .795-.101 1.16-.304v.8c-.164.097-.34.166-.525.208a3.153 3.153 0 0 1-.678.062zm3.905 0c-.671 0-1.197-.196-1.576-.588-.379-.392-.568-.931-.568-1.619 0-.706.176-1.26.527-1.664.352-.404.835-.605 1.45-.605.57 0 1.02.173 1.351.52.33.345.496.822.496 1.429v.496h-2.879c.013.42.126.741.34.967.214.225.514.338.902.338.256 0 .493-.025.713-.073.22-.048.457-.128.71-.24v.746c-.225.107-.451.182-.68.227-.23.044-.491.066-.786.066zm-.168-3.781c-.291 0-.525.092-.7.277-.177.185-.281.455-.315.809h1.96c-.004-.357-.09-.627-.257-.81-.167-.184-.396-.276-.688-.276z"/>
    </g>
</svg>
