<svg xmlns="http://www.w3.org/2000/svg" width="120" height="120" viewBox="0 0 120 120">
    <g fill="none" fill-rule="evenodd">
        <path fill="#4C6F8C" fill-rule="nonzero" d="M60 119c32.585 0 59-26.415 59-59S92.585 1 60 1 1 27.415 1 60s26.415 59 59 59zm0 1C26.863 120 0 93.137 0 60S26.863 0 60 0s60 26.863 60 60-26.863 60-60 60z"/>
        <path fill="#F2F8FC" d="M62.883 45.116H42l3.913 42.723 16.97 4.84 16.964-4.84 3.92-42.723z"/>
        <path fill="#F2F8FC" d="M33.841 93.592l59.75-59.751a2.25 2.25 0 0 0-3.181-3.182l-59.751 59.75a2.25 2.25 0 1 0 3.182 3.183z"/>
        <path fill="#4C6F8C" d="M76.472 51.06l3.826-3.826-3.45 37.605-16.965 4.84-16.97-4.84-.018-.202 6.901-6.902 10.088 2.877v-5.45l-5.815-1.686-.001-.012 5.816-5.816v7.515L65.61 73.5l.585-6.766h-5.4l5.23-5.23h6.016l-1.47 16.06-10.688 3.053v5.444l13.741-3.92 2.847-31.082zm-8.8-5.464h-7.788v5.243h2.546l-2.546 2.546v-2.546H49.68l-1.29 14.039-6.692 6.693L39 42.116h32.153l-3.48 3.48zM71.532 56l.445 3.215h-3.66L71.531 56zm-14.414.15l-3.3 3.3.15-3.3h3.15zM55.82 30.521h2.662v7.977H52.105v-2.684h3.714v-5.293zm11.843.041v2.794h-2.587l2.587 2.552v2.55h-6.478v-2.55l2.572-.002c-1.253-1.261-1.706-1.679-2.572-2.55v-2.794h6.478zM31.841 91.592l59.75-59.751a2.25 2.25 0 0 0-3.181-3.182l-59.751 59.75a2.25 2.25 0 1 0 3.182 3.183z"/>
    </g>
</svg>
