<svg xmlns="http://www.w3.org/2000/svg" width="120" height="120" viewBox="0 0 120 120">
    <g fill="none" fill-rule="evenodd">
        <path fill="#4C6F8C" fill-rule="nonzero" d="M60 119c32.585 0 59-26.415 59-59S92.585 1 60 1 1 27.415 1 60s26.415 59 59 59zm0 1C26.863 120 0 93.137 0 60S26.863 0 60 0s60 26.863 60 60-26.863 60-60 60z"/>
        <path fill="#F2F8FC" d="M32 53h60v35.993A5.006 5.006 0 0 1 87 94H32V53z"/>
        <path fill="#4C6F8C" fill-rule="nonzero" d="M30.327 92.378l27.247-23.557c1.955-1.76 3.977-1.76 5.925-.006l26.166 23.557a.5.5 0 1 0 .67-.744L64.168 68.071c-2.328-2.095-4.928-2.095-7.255 0l-27.24 23.55a.5.5 0 0 0 .654.757z"/>
        <path fill="#4C6F8C" fill-rule="nonzero" d="M29 89c0 2.336 1.807 4 4 4h54c2.194 0 4-1.663 4-4V50H29v39zm4 5c-2.727 0-5-2.092-5-5V50c0-.733.271-1 1-1h62c.728 0 1 .267 1 1v39c0 2.908-2.272 5-5 5H33z"/>
        <path fill="#4C6F8C" fill-rule="nonzero" d="M28.175 49.879L56 73.437c2.431 2.084 6.568 2.084 9 0l26.826-23.558a.5.5 0 0 0 .053-.705c-.18-.21-.705-.054-.705-.054s-62.874-.155-63.054.055a.5.5 0 0 0 .055.704z"/>
        <path fill="#4C6F8C" fill-rule="nonzero" d="M91.498 50H28.502a.5.5 0 0 1-.327-.878l27.502-23.559c2.436-2.084 6.195-2.084 8.63 0l27.517 23.559a.5.5 0 0 1-.326.878z"/>
        <path fill="#4C6F8C" fill-rule="nonzero" d="M32 51.6l24.4 20.852c2.388 2.064 5.812 2.064 8.2 0L87 52.6V26H32v25.6z"/>
        <path fill="#FFF" fill-rule="nonzero" d="M33 52.47l23.513 19.81c2.3 2.02 5.6 2.021 7.902 0L86 53.45V27H33v25.47z"/>
        <path fill="#F2F8FC" fill-rule="nonzero" d="M36 55.034L56.513 72.28c2.3 2.02 5.6 2.021 7.902 0L86 53.45V30H36v25.034z"/>
        <path fill="#4C6F8C" d="M43.008 36.29h.969l-2 5.71h-.985L39 36.29h.96l1.192 3.55c.063.17.13.387.2.654s.115.466.136.596c.034-.198.086-.427.157-.688.07-.26.127-.453.171-.578l1.192-3.535zm3.151 5.788c-.672 0-1.197-.196-1.576-.588-.379-.392-.568-.931-.568-1.619 0-.706.176-1.26.527-1.664.352-.404.835-.605 1.45-.605.57 0 1.02.173 1.351.52.33.345.496.822.496 1.429v.496H44.96c.013.42.126.741.34.967.214.225.514.338.902.338.256 0 .493-.025.713-.073.22-.048.457-.128.71-.24v.746c-.225.107-.451.182-.68.227-.23.044-.491.066-.786.066zm-.168-3.781c-.291 0-.525.092-.7.277-.177.185-.281.455-.315.809h1.96c-.004-.357-.09-.627-.257-.81-.167-.184-.396-.276-.688-.276zm4.882-.695c.185 0 .338.013.457.039l-.09.855a1.735 1.735 0 0 0-.406-.047c-.367 0-.664.12-.892.36-.228.24-.342.55-.342.933V42h-.918v-4.32h.719l.12.761h.048c.143-.257.33-.462.56-.613.23-.15.479-.226.744-.226zM52.85 42h-.918v-4.32h.918V42zm-.972-5.465c0-.164.044-.29.134-.379.09-.088.218-.133.385-.133.162 0 .287.045.377.133.09.089.135.215.135.38 0 .155-.045.278-.135.368a.51.51 0 0 1-.377.135c-.167 0-.295-.045-.385-.135a.499.499 0 0 1-.134-.369zm4.253 1.84h-1.055V42h-.922v-3.625h-.71v-.43l.71-.28v-.282c0-.51.12-.889.36-1.135s.605-.37 1.097-.37c.323 0 .64.054.953.161l-.242.695a2.116 2.116 0 0 0-.648-.109c-.209 0-.36.064-.455.193-.095.13-.143.323-.143.58v.282h1.055v.695zM57.782 42h-.918v-4.32h.918V42zm-.973-5.465c0-.164.045-.29.135-.379.09-.088.218-.133.385-.133.161 0 .287.045.377.133.09.089.135.215.135.38 0 .155-.045.278-.135.368a.51.51 0 0 1-.377.135c-.167 0-.295-.045-.385-.135a.499.499 0 0 1-.135-.369zm3.832 5.543c-.654 0-1.15-.19-1.49-.572-.34-.382-.51-.93-.51-1.643 0-.726.177-1.285.533-1.675.355-.391.869-.586 1.54-.586.457 0 .867.084 1.231.253l-.277.739c-.388-.151-.708-.227-.961-.227-.747 0-1.121.496-1.121 1.488 0 .485.093.849.28 1.092.185.244.458.365.818.365.408 0 .795-.101 1.16-.304v.8c-.164.097-.34.166-.526.208a3.153 3.153 0 0 1-.677.062zM65.362 42l-.183-.602h-.031c-.209.263-.418.442-.63.538-.21.095-.481.142-.812.142-.424 0-.756-.114-.994-.344-.238-.229-.357-.553-.357-.972 0-.446.165-.782.496-1.008.33-.227.834-.35 1.511-.371l.747-.024v-.23c0-.276-.065-.483-.194-.62-.129-.136-.329-.204-.6-.204-.22 0-.433.032-.636.097a4.805 4.805 0 0 0-.586.23l-.297-.655c.234-.123.491-.216.77-.28.278-.064.541-.095.789-.095.55 0 .964.12 1.244.359.28.24.42.616.42 1.129V42h-.657zm-1.367-.625c.334 0 .601-.093.803-.28.202-.185.303-.447.303-.782v-.376l-.555.024c-.432.016-.747.088-.943.217-.197.129-.295.326-.295.592 0 .192.057.341.172.447.114.105.286.158.515.158zm4.714-.04c.224 0 .448-.034.672-.105v.692a1.853 1.853 0 0 1-.392.111c-.16.03-.326.045-.498.045-.87 0-1.305-.458-1.305-1.375v-2.328h-.59v-.406l.633-.336.312-.914h.567v.96h1.23v.696h-1.23v2.313c0 .22.055.384.166.49.11.105.256.158.435.158zm2.253.665h-.917v-4.32h.917V42zm-.972-5.465c0-.164.045-.29.135-.379.09-.088.218-.133.384-.133.162 0 .287.045.377.133.09.089.135.215.135.38 0 .155-.045.278-.135.368a.51.51 0 0 1-.377.135c-.166 0-.295-.045-.384-.135a.499.499 0 0 1-.135-.369zm5.917 3.297c0 .706-.181 1.257-.543 1.652-.362.396-.866.594-1.512.594-.403 0-.76-.091-1.07-.273a1.805 1.805 0 0 1-.715-.785c-.166-.342-.25-.737-.25-1.188 0-.7.18-1.247.54-1.64.359-.394.865-.59 1.519-.59.625 0 1.12.2 1.484.603.365.402.547.945.547 1.627zm-3.145 0c0 .997.369 1.496 1.106 1.496.73 0 1.094-.499 1.094-1.496 0-.987-.367-1.48-1.102-1.48-.385 0-.665.127-.838.382-.173.256-.26.621-.26 1.098zm7.8 2.168h-.921v-2.656c0-.334-.067-.582-.202-.746-.134-.164-.347-.246-.638-.246-.388 0-.672.114-.852.343-.18.23-.27.614-.27 1.153V42h-.917v-4.32h.718l.13.566h.046c.13-.206.315-.364.555-.476.24-.112.505-.168.797-.168 1.036 0 1.554.527 1.554 1.582V42z"/>
    </g>
</svg>
