<svg xmlns="http://www.w3.org/2000/svg" width="81" height="25" viewBox="0 0 81 25">
    <g fill="none" fill-rule="evenodd">
        <path fill-rule="nonzero" stroke="#4C6F8C" d="M80.048 21.73c0 1.276-1.018 2.31-2.277 2.31H3.28C2.021 24.04 1 23.006 1 21.73V3.313C1 2.037 2.021 1 3.28 1h74.49c1.26 0 2.277 1.037 2.277 2.313V21.73z"/>
        <path fill="#4C6F8C" d="M28.766 6.515c0 .496-.147.891-.441 1.187-.335.35-.77.526-1.306.526-.513 0-.95-.178-1.309-.534-.36-.356-.538-.797-.538-1.323 0-.527.179-.968.538-1.324a1.79 1.79 0 0 1 1.309-.534c.254 0 .498.05.73.15.231.099.417.23.556.396l-.313.313c-.235-.28-.56-.422-.973-.422-.375 0-.698.132-.971.395-.274.263-.41.605-.41 1.026 0 .42.136.762.41 1.025.273.263.596.394.97.394.398 0 .729-.132.994-.397.172-.172.271-.411.298-.72h-1.291v-.427h1.723c.016.093.024.182.024.269"/>
        <path d="M28.766 6.515c0 .496-.147.891-.441 1.187-.335.35-.77.526-1.306.526-.513 0-.95-.178-1.309-.534-.36-.356-.538-.797-.538-1.323 0-.527.179-.968.538-1.324a1.79 1.79 0 0 1 1.309-.534c.254 0 .498.05.73.15.231.099.417.23.556.396l-.313.313c-.235-.28-.56-.422-.973-.422-.375 0-.698.132-.971.395-.274.263-.41.605-.41 1.026 0 .42.136.762.41 1.025.273.263.596.394.97.394.398 0 .729-.132.994-.397.172-.172.271-.411.298-.72h-1.291v-.427h1.723c.016.093.024.182.024.269z"/>
        <path fill="#4C6F8C" d="M31.498 5.03h-1.62v1.127h1.461v.427h-1.46V7.71h1.619v.437h-2.076V4.593h2.076z"/>
        <path d="M31.498 5.03h-1.62v1.127h1.461v.427h-1.46V7.71h1.619v.437h-2.076V4.593h2.076z"/>
        <path fill="#4C6F8C" d="M33.424 8.148h-.456V5.03h-.994v-.436h2.444v.436h-.994z"/>
        <path d="M33.424 8.148h-.456V5.03h-.994v-.436h2.444v.436h-.994z"/>
        <path fill="#4C6F8C" d="M36.185 8.148h.457V4.593h-.457z"/>
        <path d="M36.185 8.148h.457V4.593h-.457z"/>
        <path fill="#4C6F8C" d="M38.669 8.148h-.458V5.03h-.992v-.436h2.443v.436h-.993z"/>
        <path d="M38.669 8.148h-.458V5.03h-.992v-.436h2.443v.436h-.993z"/>
        <path fill="#4C6F8C" d="M42.017 7.391c.263.267.585.4.966.4.38 0 .703-.133.966-.4s.395-.607.395-1.02c0-.414-.132-.755-.395-1.02a1.305 1.305 0 0 0-.966-.4c-.38 0-.703.132-.966.4-.262.265-.394.606-.394 1.02 0 .413.132.753.394 1.02m2.27.297c-.35.36-.784.54-1.304.54s-.954-.18-1.303-.54a1.817 1.817 0 0 1-.524-1.317c0-.52.174-.96.524-1.319.35-.36.784-.54 1.303-.54.517 0 .95.182 1.302.542.35.361.526.8.526 1.317 0 .52-.175.958-.524 1.317"/>
        <path d="M42.017 7.391c.263.267.585.4.966.4.38 0 .703-.133.966-.4s.395-.607.395-1.02c0-.414-.132-.755-.395-1.02a1.305 1.305 0 0 0-.966-.4c-.38 0-.703.132-.966.4-.262.265-.394.606-.394 1.02 0 .413.132.753.394 1.02zm2.27.297c-.35.36-.784.54-1.304.54s-.954-.18-1.303-.54a1.817 1.817 0 0 1-.524-1.317c0-.52.174-.96.524-1.319.35-.36.784-.54 1.303-.54.517 0 .95.182 1.302.542.35.361.526.8.526 1.317 0 .52-.175.958-.524 1.317z"/>
        <path fill="#4C6F8C" d="M45.452 8.148V4.593h.556l1.728 2.766h.02l-.02-.686v-2.08h.457v3.555h-.477l-1.808-2.9h-.02l.02.686v2.214z"/>
        <path d="M45.452 8.148V4.593h.556l1.728 2.766h.02l-.02-.686v-2.08h.457v3.555h-.477l-1.808-2.9h-.02l.02.686v2.214z"/>
        <path fill="#4C6F8C" d="M64.036 18.222h1.106v-7.408h-1.106v7.408zm9.96-4.74l-1.268 3.213h-.038l-1.315-3.212h-1.191l1.972 4.489-1.124 2.497h1.153l3.04-6.986h-1.23zm-6.271 3.899c-.363 0-.868-.181-.868-.629 0-.572.63-.791 1.173-.791.486 0 .714.105 1.01.248a1.34 1.34 0 0 1-1.315 1.172zm.133-4.06c-.8 0-1.63.352-1.973 1.134l.982.41c.21-.41.6-.544 1.01-.544.572 0 1.154.343 1.163.954v.076c-.2-.115-.63-.286-1.153-.286-1.058 0-2.135.581-2.135 1.667 0 .992.867 1.63 1.84 1.63.743 0 1.152-.333 1.41-.724h.038v.572h1.067v-2.84c0-1.315-.981-2.05-2.249-2.05zm-6.833 1.064h-1.573v-2.54h1.573c.826 0 1.296.685 1.296 1.27 0 .574-.47 1.27-1.296 1.27zm-.029-3.57h-2.65v7.407h1.106v-2.806h1.544c1.226 0 2.43-.888 2.43-2.301 0-1.414-1.204-2.3-2.43-2.3zm-14.448 6.568c-.764 0-1.403-.64-1.403-1.519 0-.887.64-1.537 1.403-1.537.755 0 1.346.65 1.346 1.537 0 .879-.591 1.519-1.346 1.519zm1.27-3.486h-.038c-.249-.295-.726-.562-1.327-.562-1.26 0-2.416 1.106-2.416 2.53 0 1.412 1.155 2.51 2.416 2.51.601 0 1.078-.267 1.327-.573h.037v.363c0 .964-.514 1.48-1.345 1.48-.678 0-1.098-.487-1.27-.898l-.964.401c.276.669 1.012 1.49 2.234 1.49 1.298 0 2.396-.764 2.396-2.626v-4.525h-1.05v.41zm1.813 4.325h1.108v-7.408h-1.108v7.408zm2.74-2.444c-.028-.973.755-1.47 1.318-1.47.44 0 .812.22.936.535l-2.253.935zm3.438-.84c-.21-.563-.85-1.603-2.158-1.603-1.298 0-2.377 1.02-2.377 2.52 0 1.413 1.07 2.52 2.5 2.52a2.508 2.508 0 0 0 2.102-1.117l-.86-.573c-.287.42-.678.698-1.241.698-.563 0-.964-.258-1.222-.764l3.37-1.394-.114-.287zm-26.85-.83v1.069h2.559c-.077.601-.277 1.04-.582 1.346-.373.372-.956.783-1.977.783-1.575 0-2.807-1.27-2.807-2.845 0-1.576 1.232-2.845 2.807-2.845.85 0 1.47.334 1.929.764l.754-.755c-.64-.61-1.49-1.079-2.683-1.079-2.157 0-3.971 1.757-3.971 3.915 0 2.158 1.814 3.914 3.971 3.914 1.165 0 2.043-.382 2.73-1.098.707-.706.927-1.699.927-2.501 0-.248-.02-.477-.058-.668H28.96zm6.565 3.275c-.763 0-1.422-.631-1.422-1.528 0-.907.659-1.528 1.422-1.528.764 0 1.423.62 1.423 1.528 0 .897-.659 1.528-1.423 1.528zm0-4.048c-1.394 0-2.53 1.06-2.53 2.52 0 1.451 1.136 2.52 2.53 2.52s2.53-1.069 2.53-2.52c0-1.46-1.136-2.52-2.53-2.52zm5.52 4.048c-.764 0-1.423-.631-1.423-1.528 0-.907.659-1.528 1.423-1.528.763 0 1.422.62 1.422 1.528 0 .897-.659 1.528-1.422 1.528zm0-4.048c-1.394 0-2.53 1.06-2.53 2.52 0 1.451 1.136 2.52 2.53 2.52 1.393 0 2.53-1.069 2.53-2.52 0-1.46-1.137-2.52-2.53-2.52zM6.85 19.596c-.172-.182-.274-.466-.274-.833v.087c0 .367.102.65.275.833l.043-.044-.043-.043z"/>
        <path fill="#4C6F8C" d="M6.85 4.911c-.172.183-.274.466-.274.833V18.85c0 .367.102.65.275.832l.043.043 7.342-7.342v-.173L6.894 4.868l-.043.043z"/>
        <path fill="#4C6F8C" fill-opacity=".75" d="M16.683 14.832l-2.447-2.448v-.174l2.448-2.447.055.031 2.9 1.648c.828.47.828 1.24 0 1.71l-2.9 1.648-.056.032z"/>
        <path fill="#4C6F8C" fill-opacity=".65" d="M16.739 14.8l-2.503-2.503-7.385 7.385c.272.29.723.325 1.231.037L16.74 14.8M16.739 9.794L8.082 4.875c-.508-.288-.959-.253-1.231.036l7.385 7.386 2.503-2.503z"/>
    </g>
</svg>
