<svg xmlns="http://www.w3.org/2000/svg" width="22" height="22" viewBox="0 0 22 22">
    <path fill="#4C6F8C" fill-rule="evenodd" d="M10.224 22c-.265-.03-.53-.056-.794-.09a10.207 10.207 0 0 1-4.047-1.433c-.02-.011-.036-.026-.073-.053l6.49-5.192.653.68c.363.38.729.756 1.085 1.143.088.094.152.093.256.037a7.191 7.191 0 0 0 2.678-2.512l.105-.166c.03.038.059.068.082.102.754 1.073 1.506 2.148 2.262 3.219.065.092.057.147-.012.232-1.751 2.128-3.926 3.44-6.548 3.89-.33.056-.666.077-.999.116-.044.005-.088.018-.131.027h-1.007zM0 10.218c.03-.274.055-.548.09-.822.18-1.43.65-2.771 1.406-4.025.01-.015.022-.029.047-.06l5.228 6.418-.912.877c-.31.298-.62.598-.935.893-.073.068-.085.121-.038.21a7.181 7.181 0 0 0 2.554 2.73c.039.024.077.05.146.096l-3.46 2.43c-.396-.37-.797-.713-1.157-1.09C1.364 16.197.408 14.236.096 12.003c-.033-.242-.045-.487-.069-.73-.004-.044-.018-.087-.027-.13v-.925zm9.346-3.575L8.291 5.54c-.194-.203-.391-.402-.58-.61-.072-.081-.13-.087-.22-.038A7.167 7.167 0 0 0 4.782 7.44l-.06.097-.045.05-2.402-3.438C3.949 2.064 6.015.724 8.52.212c2.612-.534 5.072-.05 7.41 1.358L9.346 6.643zm11.14 9.288l-5.162-6.41c.039-.041.075-.081.114-.12.55-.537 1.1-1.076 1.655-1.608.085-.082.083-.14.033-.235a7.191 7.191 0 0 0-2.57-2.76c-.04-.025-.077-.052-.142-.095l3.44-2.427c1.984 1.6 3.288 3.572 3.865 5.955.699 2.887.023 5.725-1.233 7.7z"/>
</svg>
