<svg xmlns="http://www.w3.org/2000/svg" width="48" height="48" viewBox="0 0 48 48">
    <g fill="#000" fill-rule="evenodd">
        <path fill-rule="nonzero" d="M7.192 6.868A23.926 23.926 0 0 0 0 24c0 13.255 10.745 24 24 24s24-10.745 24-24S37.255 0 24 0a1 1 0 0 0 0 2c12.15 0 22 9.85 22 22s-9.85 22-22 22S2 36.15 2 24A21.926 21.926 0 0 1 8.593 8.296a1 1 0 0 0-1.4-1.428z"/>
        <path d="M12.378 10.748l8.989 14.686c.866 1.416 2.6 1.698 3.867.635 1.27-1.065 1.292-2.817.046-3.919L12.378 10.748z"/>
        <path fill-rule="nonzero" d="M23 1.2v10a1 1 0 1 0 2 0v-10a1 1 0 0 0-2 0z"/>
    </g>
</svg>
