<svg xmlns="http://www.w3.org/2000/svg" width="48" height="44" viewBox="0 0 48 44">
    <g fill="#000" fill-rule="evenodd">
        <path fill-rule="nonzero" d="M2 3.982v36.036C2 41.11 2.895 42 4.01 42h39.98c1.114 0 2.01-.89 2.01-1.982V3.982C46 2.89 45.105 2 43.99 2H4.01C2.896 2 2 2.89 2 3.982zm-2 0C0 1.782 1.794 0 4.01 0h39.98C46.205 0 48 1.78 48 3.982v36.036c0 2.2-1.794 3.982-4.01 3.982H4.01C1.795 44 0 42.22 0 40.018V3.982z"/>
        <circle cx="12" cy="16" r="2"/>
        <circle cx="18" cy="16" r="2"/>
        <circle cx="24" cy="16" r="2"/>
        <circle cx="30" cy="16" r="2"/>
        <circle cx="36" cy="16" r="2"/>
        <circle cx="42" cy="16" r="2"/>
        <circle cx="6" cy="22" r="2"/>
        <circle cx="12" cy="22" r="2"/>
        <circle cx="18" cy="22" r="2"/>
        <circle cx="24" cy="22" r="2"/>
        <circle cx="30" cy="22" r="2"/>
        <circle cx="36" cy="22" r="2"/>
        <circle cx="42" cy="22" r="2"/>
        <circle cx="6" cy="28" r="2"/>
        <circle cx="12" cy="28" r="2"/>
        <circle cx="18" cy="28" r="2"/>
        <circle cx="24" cy="28" r="2"/>
        <circle cx="30" cy="28" r="2"/>
        <circle cx="36" cy="28" r="2"/>
        <circle cx="42" cy="28" r="2"/>
        <circle cx="6" cy="34" r="2"/>
        <circle cx="12" cy="34" r="2"/>
        <circle cx="18" cy="34" r="2"/>
        <circle cx="24" cy="34" r="2"/>
        <circle cx="30" cy="34" r="2"/>
        <path fill-rule="nonzero" d="M2 8h44V4.01C46 2.896 45.103 2 43.99 2H4.01C2.9 2 2 2.9 2 4.01V8zM0 4.01A4.009 4.009 0 0 1 4.01 0h39.98A4.005 4.005 0 0 1 48 4.01V10H0V4.01z"/>
    </g>
</svg>
