<svg xmlns="http://www.w3.org/2000/svg" width="48" height="48" viewBox="0 0 48 48">
    <g fill="#000" fill-rule="nonzero">
        <path d="M24 46c12.15 0 22-9.85 22-22S36.15 2 24 2 2 11.85 2 24s9.85 22 22 22zm0 2C10.745 48 0 37.255 0 24S10.745 0 24 0s24 10.745 24 24-10.745 24-24 24z"/>
        <path d="M7.12 39.294l1.487-1.486a1 1 0 1 0-1.415-1.415L6.025 37.56c-.553.554.648 2.182 1.095 1.734zm5.73-5.729l2.828-2.828a1 1 0 1 0-1.415-1.415l-2.828 2.829a1 1 0 0 0 1.414 1.414zm7.07-7.071l2.829-2.829a1 1 0 1 0-1.414-1.414l-2.829 2.829a1 1 0 1 0 1.414 1.414zm7.071-7.071l2.829-2.829a1 1 0 0 0-1.414-1.414l-2.829 2.829a1 1 0 1 0 1.414 1.414zm7.071-7.071l2.829-2.829a1 1 0 1 0-1.414-1.414l-2.829 2.829a1 1 0 1 0 1.414 1.414zM6.85 33.565l2.828-2.828a1 1 0 1 0-1.415-1.415l-2.828 2.829a1 1 0 0 0 1.414 1.414zm7.07-7.071l2.829-2.829a1 1 0 1 0-1.414-1.414l-2.829 2.829a1 1 0 1 0 1.414 1.414zm7.071-7.071l2.829-2.829a1 1 0 0 0-1.414-1.414l-2.829 2.829a1 1 0 1 0 1.414 1.414zm7.071-7.071l2.829-2.829a1 1 0 1 0-1.414-1.414l-2.829 2.829a1 1 0 1 0 1.414 1.414zm7.072-7.071l1-1.001c.61-.61-.916-1.912-1.58-1.248l-.835.834a1 1 0 1 0 1.415 1.415zM2.643 31.772l1.035-1.035a1 1 0 1 0-1.415-1.415l-.68.68c-.716.717.462 2.367 1.06 1.77zm5.277-5.278l2.829-2.829a1 1 0 1 0-1.414-1.414L6.506 25.08a1 1 0 1 0 1.414 1.414zm7.071-7.071l2.829-2.829a1 1 0 0 0-1.414-1.414l-2.829 2.829a1 1 0 1 0 1.414 1.414zm7.071-7.071l2.829-2.829a1 1 0 1 0-1.414-1.414l-2.829 2.829a1 1 0 1 0 1.414 1.414zm7.072-7.071l2.828-2.829c.39-.39-1.936-.893-2.196-.632l-2.047 2.046a1 1 0 1 0 1.415 1.415zM1.92 26.494l2.829-2.829a1 1 0 1 0-1.414-1.414L.506 25.08a1 1 0 1 0 1.414 1.414zm7.071-7.071l2.829-2.829a1 1 0 0 0-1.414-1.414L7.577 18.01a1 1 0 1 0 1.414 1.414zm7.071-7.071l2.829-2.829a1 1 0 1 0-1.414-1.414l-2.829 2.829a1 1 0 1 0 1.414 1.414zm7.072-7.071l2.828-2.829a1 1 0 1 0-1.414-1.414l-2.829 2.828a1 1 0 1 0 1.415 1.415zM2.991 19.423l2.829-2.829a1 1 0 0 0-1.414-1.414L1.577 18.01a1 1 0 1 0 1.414 1.414zm7.071-7.071l2.829-2.829a1 1 0 1 0-1.414-1.414l-2.829 2.829a1 1 0 1 0 1.414 1.414zm7.072-7.071l2.828-2.829a1 1 0 1 0-1.414-1.414l-2.829 2.828a1 1 0 1 0 1.415 1.415zM11.778 40.636l2.829-2.828a1 1 0 1 0-1.415-1.415l-2.828 2.829a1 1 0 0 0 1.414 1.414zm7.071-7.071l2.829-2.828a1 1 0 1 0-1.415-1.415l-2.828 2.829a1 1 0 0 0 1.414 1.414zm7.071-7.071l2.829-2.829a1 1 0 1 0-1.414-1.414l-2.829 2.829a1 1 0 1 0 1.414 1.414zm7.071-7.071l2.829-2.829a1 1 0 0 0-1.414-1.414l-2.829 2.829a1 1 0 1 0 1.414 1.414zm7.071-7.071l2.829-2.829-1.414-1.414-2.829 2.829a1 1 0 1 0 1.414 1.414zM17.778 40.636l2.829-2.828a1 1 0 1 0-1.415-1.415l-2.828 2.829a1 1 0 0 0 1.414 1.414zm7.071-7.071l2.829-2.828a1 1 0 1 0-1.415-1.415l-2.828 2.829a1 1 0 0 0 1.414 1.414zm7.071-7.071l2.829-2.829a1 1 0 1 0-1.414-1.414l-2.829 2.829a1 1 0 1 0 1.414 1.414zm7.071-7.071l2.829-2.829a1 1 0 0 0-1.414-1.414l-2.829 2.829a1 1 0 1 0 1.414 1.414zM18.34 46.075l1.196-1.196a1 1 0 0 0-1.415-1.415l-1.93 1.932c-.3.299 1.604 1.223 2.148.68zm5.438-5.439l2.829-2.828a1 1 0 1 0-1.415-1.415l-2.828 2.829a1 1 0 0 0 1.414 1.414zm7.071-7.071l2.829-2.828a1 1 0 1 0-1.415-1.415l-2.828 2.829a1 1 0 0 0 1.414 1.414zm7.071-7.071l2.829-2.829a1 1 0 1 0-1.414-1.414l-2.829 2.829a1 1 0 1 0 1.414 1.414zm7.071-7.071l1.325-1.325c.502-.501-.485-2.343-.772-2.056l-1.967 1.967a1 1 0 1 0 1.414 1.414zM23.718 46.696l1.818-1.817a1 1 0 0 0-1.415-1.415l-2.828 2.829c-.39.39 2.088.74 2.425.403zm6.06-6.06l2.829-2.828a1 1 0 1 0-1.415-1.415l-2.828 2.829a1 1 0 0 0 1.414 1.414zm7.071-7.071l2.829-2.828a1 1 0 1 0-1.415-1.415l-2.828 2.829a1 1 0 0 0 1.414 1.414zm7.071-7.071l2.829-2.829a1 1 0 1 0-1.414-1.414l-2.829 2.829a1 1 0 1 0 1.414 1.414zM30.143 46.27l1.393-1.391a1 1 0 0 0-1.415-1.415l-2.828 2.829c-.39.39 2.372.457 2.85-.022zm5.635-5.634l2.829-2.828a1 1 0 1 0-1.415-1.415l-2.828 2.829a1 1 0 0 0 1.414 1.414zm7.071-7.071l2.829-2.828a1 1 0 1 0-1.415-1.415l-2.828 2.829a1 1 0 0 0 1.414 1.414z"/>
    </g>
</svg>
