<svg xmlns="http://www.w3.org/2000/svg" width="13" height="20" viewBox="0 0 13 20">
    <g fill="#4C6F8C" fill-rule="evenodd">
        <path d="M6.79 3.831L5.28 5.342 3.364 3.427 6.769.02l.022.022.021-.022 3.405 3.406-1.915 1.915-1.511-1.51z"/>
        <path d="M6.79 12.132l3.725 3.725 2.342-2.342-3.725-3.724 3.725-3.725-2.342-2.341-3.724 3.724-3.725-3.724L.725 6.066l3.724 3.725-3.724 3.724 2.341 2.342 3.725-3.725z"/>
        <path d="M6.79 15.708l1.512-1.511 1.915 1.915-3.405 3.406-.021-.022-.022.022-3.405-3.406 1.916-1.915 1.51 1.51z"/>
    </g>
</svg>
