<svg xmlns="http://www.w3.org/2000/svg" width="18" height="20" viewBox="0 0 18 20">
    <g fill="#4C6F8C" fill-rule="nonzero">
        <path d="M16.035 5.248c.322.186.52.53.522.902v7.72c0 .373-.2.717-.522.904l-6.685 3.86c-.322.185-.72.185-1.043 0l-6.685-3.86a1.043 1.043 0 0 1-.521-.904V6.15c0-.372.199-.716.521-.902l6.684-3.86c.323-.186.721-.186 1.044 0l6.685 3.86zm-2.928-.02l-.511.51.511.512.512-.511-.512-.512zm-.73.73l-.512.512.512.511.511-.511-.511-.512zm-.731.73l-.512.512.512.512.511-.512-.511-.511zm-5.774 5.775l-.512.511.512.512.512-.512-.512-.511zm-.694.694l-.512.512.512.511.511-.511-.511-.512zm-.731.73l-.512.512.512.512.511-.512-.511-.511zM13.1 6.684l-.511.511.511.512.512-.512-.512-.511zm-.73.73l-.512.512.512.512.511-.512-.511-.511zm-.695.695l-.511.512.511.511.512-.511-.512-.512zm-.73.73l-.512.512.511.512.512-.512-.512-.511zm-.732.732l-.511.511.511.512.512-.512-.512-.511zM8.79 10.995l-.511.511.511.512.512-.512-.512-.511zm-.73.73l-.512.512.511.512.512-.512-.512-.511zm-.731.732l-.512.511.512.512.511-.512-.511-.511zm-.731.73l-.512.512.512.512.511-.512-.511-.512zm-.695.695l-.511.511.511.512.512-.512-.512-.511zm5.768-4.318l-.511.511.511.512.512-.512-.512-.511zm-.73.73l-.512.512.511.512.512-.512-.512-.512zM9.513 11.72l-.512.511.512.512.512-.512-.512-.511zm-.73.73l-.512.512.511.512.512-.512-.512-.512zm2.88-1.43l-.512.51.512.512.512-.511-.512-.512zm-1.425 1.424l-.512.512.512.512.511-.512-.511-.512zm2.15-.7l-.512.512.512.511.511-.511-.511-.512zm-.731.73l-.512.512.512.512.512-.512-.512-.511zm-.694.695l-.512.512.512.511.511-.511-.511-.512zm2.15-.7l-.512.511.512.512.511-.512-.511-.511zm-.731.73l-.512.512.512.512.511-.512-.511-.511zm-.695.695l-.511.512.511.511.512-.511-.512-.512zm1.42.03l-.512.512.511.512.512-.512-.512-.512zm-1.456-8.69l-.512.51.512.512.511-.511-.511-.512zm-.731.73l-.512.512.512.511.512-.511-.512-.512zm-.694.694l-.512.512.512.512.511-.512-.511-.512zm-.731.731l-.512.512.512.511.511-.511-.511-.512zm-.731.731l-.512.512.512.511.512-.511-.512-.512zM7.34 9.545l-.512.512.512.512.511-.512-.511-.512zm-.731.731l-.512.512.512.511.512-.511-.512-.512zm-.731.731l-.512.512.512.511.512-.511-.512-.512zm-.73.73l-.512.513.511.511.512-.511-.512-.512zm-.695.695l-.512.512.512.511.511-.511-.511-.512zM8.77 6.665l-.512.511.512.512.512-.512-.512-.511zm-.73.73l-.512.512.511.512.512-.512-.512-.512zM6.614 8.821l-.512.511.512.512.512-.512-.512-.511zm-.73.73l-.512.512.511.512.512-.512-.512-.512zm1.43-2.88l-.511.511.511.512.512-.512-.512-.511zM5.89 8.096l-.511.511.511.512.512-.512-.512-.511zm.7-2.15l-.511.511.512.512.511-.512-.511-.511zm-.73.73l-.512.512.512.512.511-.512-.511-.511zm-.695.695l-.511.512.511.511.512-.511-.512-.512zm.7-2.15l-.51.512.51.511.512-.511-.511-.512zm-.73.73l-.512.513.512.511.512-.511-.512-.512zm-.694.695l-.512.512.512.511.511-.511-.511-.512zm-.03-1.419l-.512.512.511.511.512-.511-.512-.512z"/>
        <path d="M17.028 4.591c.367.212.593.603.594 1.027v8.784c0 .424-.226.816-.593 1.028l-7.607 4.392c-.367.212-.82.212-1.187 0L.63 15.43a1.187 1.187 0 0 1-.594-1.028V5.618c.001-.424.227-.815.594-1.027L8.234.2c.368-.212.82-.212 1.188 0l7.606 4.391zm-.213.142L9.406.455a1.156 1.156 0 0 0-1.156 0L.842 4.733a1.156 1.156 0 0 0-.578.999v8.556c0 .413.22.795.578 1.001l7.409 4.277c.357.207.798.207 1.156 0l7.408-4.277c.358-.206.578-.588.578-1V5.731c0-.413-.221-.793-.578-1z"/>
    </g>
</svg>
