<svg xmlns="http://www.w3.org/2000/svg" width="21" height="20" viewBox="0 0 21 20">
    <g fill="#4C6F8C" fill-rule="evenodd">
        <path d="M9.047 8.524c.061.111.143.223.234.314.507.508 1.319.508 1.816 0a1.274 1.274 0 0 0 0-1.816 1.267 1.267 0 0 0-1.177-.345h-.01a.707.707 0 0 0-.193.06c-2.78.772-3.612-2.435-3.612-2.435a3.078 3.078 0 0 0-.812-1.43A3.096 3.096 0 1 0 .909 7.245a3.08 3.08 0 0 0 3.136.761h.01c.183-.06.365-.142.548-.233 3.44-1.36 4.444.75 4.444.75m.731 4.557a1.29 1.29 0 0 0 1.674-1.228 1.29 1.29 0 0 0-2.374-.7v.01a.564.564 0 0 0-.091.172c-1.421 2.507-4.272.832-4.272.832a3.123 3.123 0 0 0-1.593-.436 3.105 3.105 0 1 0 0 6.21c1.197 0 2.242-.68 2.75-1.674v-.01c.09-.173.162-.355.223-.548 1.481-3.4 3.683-2.628 3.683-2.628M16.12 5.723a4.272 4.272 0 1 1 0 8.544 4.272 4.272 0 0 1 0-8.544M10.722 0a2.06 2.06 0 1 1 0 4.12 2.06 2.06 0 0 1 0-4.12M10.722 15.88a2.06 2.06 0 1 1 0 4.12 2.06 2.06 0 0 1 0-4.12"/>
    </g>
</svg>
