<svg xmlns="http://www.w3.org/2000/svg" width="19" height="22" viewBox="0 0 19 22">
    <path fill="#4C6F8C" fill-rule="nonzero" d="M18.205 15.052a.823.823 0 0 1 .057.385l.022.084.011-.075c.038.373-.08.683-.403.866-.271.154-1.758 1.034-4.075 2.41L11 20.396l-.927.552-.358.212c-.036.02-.096.046-.176.072-.264.085-.545.1-.813-.006a1.021 1.021 0 0 1-.141-.068c-.2-.117-1.715-1.024-4.126-2.468l-2.843-1.705-.936-.562-.363-.218a.695.695 0 0 1-.162-.166c-.205-.286-.224-.669.046-1.12.185-.312 1.58-2.778 4.069-7.189l2.755-4.884A726.23 726.23 0 0 1 8.345.511c.382-.657 1.213-.702 1.683-.007.249.384 1.717 2.973 4.023 7.076l.034.06a3681.365 3681.365 0 0 1 3.675 6.557l.347.62c.026.05.062.13.098.235zm-5.021 2.818a697.59 697.59 0 0 1 3.565-2.09l-3.01-1.467a2.54 2.54 0 0 1-.226-.187 3.915 3.915 0 0 1-.483-.53 3.359 3.359 0 0 1-.688-1.67c-.109-1.088-.674-1.834-1.545-2.308a4.11 4.11 0 0 0-1.26-.434l-.103-.015.153-.187-.145.037-.11-.102.62-.67.133-.046c2.067.328 3.15 1.937 3.518 4.042.056.322.17.586.324.8.133.183.263.291.336.332l2.532 1.245-.205-.363a3678.68 3678.68 0 0 0-3.28-5.801l-.031-.053c-1.922-3.39-3.2-5.624-3.529-6.159L9.734 7.48c.016.514-.419 1.214-1.692 1.882-.08.042-.163.084-.245.123-.707.36-1.181.881-1.463 1.525a3.833 3.833 0 0 0-.263 2.065l.048.26-1.074-.399-.097-.124c-.243-2.215.869-3.542 2.745-4.483.133-.067.254-.139.362-.214.39-.273.562-.536.6-.662 0 0 .025-5.304.021-5.298-.032.054-.4.7-1.175 2.061L5.035 8.547a1787.48 1787.48 0 0 1-3.473 6.083l2.228-1.128c.04-.025.11-.06.21-.092.685-.226 1.58-.051 2.627.81.975.918 1.72 1.189 2.214 1.128l.373-.09-.681 1.02-.156.064c-.95-.201-1.445-.434-2.012-.88.026.021-.539-.439-.735-.584-.59-.438-1.043-.537-1.378-.408-.16.06-1.189.576-2.627 1.308a37007.04 37007.04 0 0 0 3.488 2.073 2226.1 2226.1 0 0 0 3.494 2.074l.028-2.677c-.018-.413.189-.959.818-1.482a4.376 4.376 0 0 1 1.136-.66c.378-.142.715-.414 1.007-.781a3.946 3.946 0 0 0 .537-.904l.087-.224.76.82.022.176c-.545.97-.903 1.3-2.332 2.069-.65.35-.917.684-.956 1.04-.022.19-.037 1.273-.047 2.64l.162-.096.829-.488 2.526-1.488z"/>
</svg>
