<svg xmlns="http://www.w3.org/2000/svg" xmlns:xlink="http://www.w3.org/1999/xlink" width="200" height="200" viewBox="0 0 200 200">
    <defs>
        <circle id="a" cx="100" cy="100" r="100"/>
        <path id="b" d="M100.292 35l56.291 32.5v65L100.292 165 44 132.5v-65z"/>
        <path id="c" d="M125.134 80.192C119.274 72.766 110.194 68 100 68c-17.673 0-32 14.327-32 32 0 17.673 14.327 32 32 32 17.673 0 32-14.327 32-32 0-4.298-.847-8.398-2.384-12.142"/>
        <path id="d" d="M121.992 82.668C116.865 76.17 108.92 72 100 72c-15.464 0-28 12.536-28 28s12.536 28 28 28 28-12.536 28-28c0-3.76-.741-7.348-2.086-10.624"/>
    </defs>
    <g fill="none" fill-rule="evenodd">
        <g>
            <use fill="#FFF" xlink:href="#a"/>
            <circle cx="100" cy="100" r="98.5" stroke="#829AAF" stroke-width="3"/>
        </g>
        <g>
            <use fill="#FFF" xlink:href="#b"/>
            <path stroke="#B5BCC5" d="M100.292 35.577L44.5 67.79v64.422l55.792 32.212 55.791-32.212V67.79l-55.791-32.212z"/>
        </g>
        <path fill="#F2F8FC" d="M104.292 38.5l51.291 29.6V132l-55.291 32L48 133.7V71.5z"/>
        <g transform="rotate(-1 100 100)">
            <use fill="#FFF" xlink:href="#c"/>
            <path stroke="#4C6F8C" d="M124.72 80.474C118.781 72.966 109.76 68.5 100 68.5c-17.397 0-31.5 14.103-31.5 31.5s14.103 31.5 31.5 31.5 31.5-14.103 31.5-31.5a31.42 31.42 0 0 0-2.315-11.89l-4.465-7.636z"/>
        </g>
        <g transform="rotate(-1 100 100)">
            <use fill="#FFF" xlink:href="#d"/>
            <path stroke="#4C6F8C" stroke-width=".875" d="M121.63 82.915c-5.196-6.57-13.09-10.478-21.63-10.478-15.222 0-27.563 12.34-27.563 27.563 0 15.222 12.34 27.563 27.563 27.563 15.222 0 27.563-12.34 27.563-27.563 0-3.634-.704-7.169-2.027-10.403l-3.906-6.682z"/>
        </g>
        <path stroke="#4C6F8C" stroke-linecap="square" d="M83 96l16 16 37-37"/>
    </g>
</svg>
