<svg xmlns="http://www.w3.org/2000/svg" width="17" height="20" viewBox="0 0 17 20">
    <path fill="#4C6F8C" fill-rule="evenodd" d="M13.981 4.573c.574 1.445.213 2.513-.63 3.301 1.742-.07 3.042.612 3.47 2.85.533 2.778-1.265 4.076-4.085 5.059l.82 2.845-1.705.486-.81-2.807c-.441.126-.895.252-1.366.375l.814 2.82-1.704.485-.823-2.85c-.4.111-.809.22-1.222.337l-2.22.633-.252-2.145s1.268-.34 1.24-.353c.483-.138.51-.523.477-.75l-1.297-4.497c.062-.019.123-.036.18-.052-.073.01-.136.026-.184.04l-.926-3.21c-.166-.33-.507-.67-1.198-.472.014-.03-1.239.353-1.239.353L.792 5.19l2.353-.67.003.009a57.2 57.2 0 0 0 1.081-.324l-.812-2.817L5.122.902l.796 2.762c.453-.14.909-.279 1.357-.406L6.484.514 8.189.028l.814 2.818c2.257-.434 4.198-.25 4.978 1.727zm-.628 6.773c-.64-2.221-4.17-.854-5.326-.525l1.09 3.776c1.155-.33 4.852-1.122 4.236-3.251zm-2.33-5.101c-.584-2.021-3.52-.851-4.483-.577l.989 3.425c.962-.275 4.052-.91 3.494-2.848z"/>
</svg>
