<svg xmlns="http://www.w3.org/2000/svg" width="20" height="20" viewBox="0 0 20 20">
    <path fill="#4C6F8C" fill-rule="evenodd" d="M19.978 12.4c0 4.168-3.41 7.578-7.578 7.578H7.578C3.41 19.978 0 16.568 0 12.4V7.578C0 3.41 3.41 0 7.578 0H12.4c4.168 0 7.578 3.41 7.578 7.578V12.4zm-1.799-5.638c.191-.242.095-.44-.213-.44h-.783c-.309 0-.718.198-.91.44l-1.272 1.611c-.191.243-.504.243-.695 0l-1.273-1.611c-.191-.242-.6-.44-.909-.44h-.783c-.309 0-.405.198-.213.44l2.225 2.818a.748.748 0 0 1 0 .881l-2.225 2.818c-.192.243-.096.44.213.44h.783c.309 0 .718-.197.91-.44l1.272-1.611c.191-.242.504-.242.695 0l1.273 1.611c.191.243.6.44.909.44h.783c.308 0 .404-.197.213-.44l-2.225-2.818a.748.748 0 0 1 0-.881l2.225-2.818zm-9.4 6.397c0 .308.253.561.562.561h.486a.563.563 0 0 0 .561-.561V6.883a.563.563 0 0 0-.561-.562H9.34a.563.563 0 0 0-.561.562v6.276zM4.918 6.32h-.702c-.077 0-.14.253-.14.562v6.276c0 .308.253.561.561.561h.486a.563.563 0 0 0 .561-.561V8.49c0-.309.253-.561.562-.561h1.249a.563.563 0 0 0 .561-.562v-.485a.563.563 0 0 0-.561-.562H4.917zM1.874 7.368c0 .31.252.562.56.562h.487a.563.563 0 0 0 .561-.562v-.485a.563.563 0 0 0-.561-.562h-.486a.563.563 0 0 0-.561.562v.485z"/>
</svg>
