<svg xmlns="http://www.w3.org/2000/svg" width="18" height="18" viewBox="0 0 18 18">
    <path fill="#4C6F8C" fill-rule="evenodd" d="M10.683 7.805c0-1.165-.908-2.109-2.028-2.109s-2.029.944-2.029 2.109c0 .833.465 1.553 1.14 1.896v2.604h1.779V9.7a2.118 2.118 0 0 0 1.138-1.896zM8.655 15.75c-3.58 0-6.491-3.027-6.491-6.75 0-3.722 2.912-6.75 6.49-6.75 2.922 0 5.398 2.017 6.21 4.781H17.1C16.238 3.008 12.784 0 8.655 0 3.875 0 0 4.03 0 9s3.875 9 8.655 9c4.13 0 7.583-3.008 8.446-7.031h-2.237c-.813 2.765-3.288 4.781-6.21 4.781z"/>
</svg>
