<svg xmlns="http://www.w3.org/2000/svg" width="20" height="20" viewBox="0 0 20 20">
    <path fill="#4C6F8C" fill-rule="evenodd" d="M17.197 11.135c-.087 0-.17.01-.242.028-.193.047-.42.168-.477.368l-.006.02c-.121.379-.217.896-.318 1.443-.119.646-.252 1.366-.463 2.094.075-.03.149-.06.222-.093 1.138-.498 1.889-1.164 1.96-1.74l.009-.065.02-.063c.243-.796.212-1.434-.084-1.749a.84.84 0 0 0-.62-.243M9.532 1.523c-2.526 0-4.616.948-6.044 2.74-1.268 1.592-1.966 3.76-1.966 6.102 0 2.053.978 4.253 2.616 5.885 1.42 1.416 3.157 2.227 4.766 2.227h.016c1.65-.005 2.9-.392 3.795-1.18-.459.035-.919.043-1.372.026-1.98-.078-3.702-.643-4.982-1.634-1.537-1.189-2.402-2.982-2.503-5.187-.083-1.792.31-3.3 1.166-4.485.759-1.05 1.853-1.786 3.165-2.129a6.73 6.73 0 0 1 4.024.215c1.352.506 2.416 1.419 2.994 2.57.143.285.31.327.455.33.418.013.973-.357 1.238-.821.198-.348.207-.669.028-.955l-.028-.044-.02-.045c-.016-.032-.45-.93-1.545-1.81-1.491-1.198-3.443-1.805-5.803-1.805M8.906 20c-2.01 0-4.138-.973-5.842-2.671C1.117 15.389 0 12.85 0 10.365c0-2.686.816-5.19 2.298-7.05C4.025 1.146 6.528 0 9.533 0c3.435 0 5.612 1.199 6.834 2.204 1.208.994 1.755 2.01 1.876 2.253.455.756.45 1.657-.02 2.479-.548.962-1.62 1.616-2.6 1.59-.765-.02-1.413-.446-1.776-1.169-.405-.807-1.175-1.456-2.167-1.827a5.195 5.195 0 0 0-3.105-.168c-2.153.562-3.317 2.41-3.195 5.07.081 1.77.725 3.133 1.914 4.053 1.299 1.005 2.952 1.27 4.11 1.316.827.032 1.678-.035 2.49-.192.4-.925.59-1.954.763-2.891.11-.592.212-1.152.36-1.62.207-.698.797-1.226 1.58-1.415.863-.208 1.755.041 2.33.651.91.968.682 2.383.448 3.18-.175 1.127-1.185 2.147-2.852 2.876-.495.217-1.03.4-1.589.544a6.372 6.372 0 0 1-.34.537c-1.185 1.67-3.092 2.52-5.668 2.529h-.02"/>
</svg>
