<svg xmlns="http://www.w3.org/2000/svg" width="20" height="20" viewBox="0 0 20 20">
    <g fill="#4C6F8C" fill-rule="evenodd">
        <path d="M6.28 7.14C5 7.14 3.96 6.1 3.96 4.82 3.96 3.54 5 2.5 6.28 2.5c1.28 0 2.32 1.04 2.32 2.32 0 1.28-1.05 2.32-2.32 2.32m0-3.84a1.52 1.52 0 1 0-.001 3.039 1.52 1.52 0 0 0 0-3.039"/>
        <path d="M10 0C4.49 0 0 4.49 0 10s4.49 10 10 10 10-4.49 10-10S15.51 0 10 0zm0 19.2c-3.91 0-7.26-2.45-8.59-5.9.26 0 .54.01.82.01.14.04.29.06.46.06.13 0 .26-.01.37-.04.06 0 .12 0 .19.01-.02.06-.02.08-.02.1 0 .44.47.76 1.12.76.63 0 1.09-.3 1.11-.72l.31.03c2.66.29 2.84.77 2.84.79.01.04-.05.25-.59.61-1.13.78-1.52 1.25-1.42 1.74.12.59.89.74 2.06.96.33.06.7.13 1.08.22.42.09.87.18 1.3.27.78.16 1.58.32 2.22.51-1.01.38-2.11.59-3.26.59zm-7.56-6.69c.06-.18.15-.47.26-.78.11.32.21.61.26.79-.18 0-.35-.01-.52-.01zm1.65.85l.27-.81.27.81a.906.906 0 0 1-.54 0zm10.19 4.78c-.75-.37-1.89-.59-3.09-.83-.42-.08-.86-.17-1.28-.26-.39-.09-.77-.16-1.11-.22-.54-.1-1.19-.23-1.4-.35.07-.11.29-.37 1.07-.9.28-.19 1.13-.77.9-1.51-.21-.69-1.3-1.11-3.52-1.35l-.63-.06c-.11-.33-.27-.8-.5-1.48l-.38-1.11-.38 1.11c-.13.37-.23.67-.32.93-.1-.32-.28-.84-.59-1.74L2.7 9.24l-.38 1.11c-.52 1.52-.67 1.97-.71 2.14h-.46a9.79 9.79 0 0 1-.32-1.81l.92-.03 1.52-2.66h1.05l.91 2.99 2.14-.55.49.27-1.04 1.31.63.5L9.67 9.7l.26.15 1.2.44.52-.27c-.1.21-.16.44-.16.68 0 .24.15.75 1.29.94.36.06.63.37.63.74v1.3c-.16-.11-.34-.21-.54-.28h.01c-.44-.14-.85-.35-.98-.78-.1.35-.38.55-.74.69-.93.25-1.6.95-1.6 1.78 0 .3.23 1.01 2.32 1.01 2.1 0 2.32-.71 2.32-1.01v-1.57c.14.05.3.09.49.12.36.06.63.37.63.74v.9c0 .21.15.4.36.42.24.02.44-.17.44-.4v-.92c0-.37.27-.68.63-.74 1.14-.19 1.29-.69 1.29-.94 0-.67-.44-1.25-1.09-1.58h.01c-.01 0-.02-.01-.04-.01-.11-.06-.24-.1-.36-.14-.18-.09-.34-.21-.45-.36-.05-.71-.58-1.31-1.34-1.6h-.01c-.05-.02-.1-.03-.15-.05-.38-.14-.71-.35-.82-.72-.12.41-.47.62-.92.76-.03.01-.07.02-.1.04l1.25-1.33.75 1.01.6-.48h.15l1.3 1.79.92-.16 1.35 1.53c-.44 2.92-2.27 5.4-4.81 6.74zm.43-10.89l-.6-.81-1.86 1.99a2.613 2.613 0 0 1 .28-5.21c1.44 0 2.61 1.17 2.61 2.61 0 .52-.16 1.01-.43 1.42zm.61 3.39c-.14.1-.67.26-1.52.26s-1.38-.16-1.52-.26c.04-.56.72-1.02 1.52-1.02s1.48.46 1.52 1.02zm.41.98c.8 0 1.48.46 1.52 1.02-.14.1-.67.26-1.52.26s-1.38-.16-1.52-.26c.04-.56.72-1.02 1.52-1.02zm-2.33 3.41c-.14.1-.66.26-1.52.26s-1.38-.16-1.52-.26c.04-.56.72-1.02 1.52-1.02s1.48.46 1.52 1.02zm4.65-6.04l-.86.15-1.24-1.72h-.4a3.414 3.414 0 0 0-3.02-5c-1.88 0-3.42 1.52-3.42 3.4 0 1.56 1.06 2.88 2.49 3.29l-.05.05-.49.25-.8-.29-.79-.46-1.11 1.4-.89-.49-1.71.44-.86-2.82H2.8L1.27 9.87l-.47.01C.86 4.86 4.97.8 10 .8c5.07 0 9.2 4.13 9.2 9.2v.29l-1.15-1.3z"/>
    </g>
</svg>
