<svg xmlns="http://www.w3.org/2000/svg" width="18" height="19" viewBox="0 0 18 19">
    <path fill="#4C6F8C" fill-rule="evenodd" d="M8.214 3.374c.186-.357.446-.648.89-.648.355.001.817.398.944.762.06.167.032.3-.146.342-.41.098-.826.177-1.203.255-.518-.001-.705-.289-.485-.711m8.969 8.556c.28-.07.492-.312.802-.296-.465 3.821-3.542 6.864-7.357 7.283-.898.098-1.793.124-2.689-.005-.048-.053-.103-.1-.132-.17-.449-1.052-1.259-1.772-2.24-2.293-.963-.51-1.8-1.18-2.626-1.871a5.525 5.525 0 0 0-.67-.498c-.487-.295-.788-.25-1.182.17-.058.062-.111.129-.207.132A9.077 9.077 0 0 1 .047 9.55C.39 6.087 2.168 3.397 4.786 1.228 6.552-.235 8.582-.262 10.67.473c.273.096.532.23.798.346.007.036.022.077.001.106-.394.57-.335 1.22-.334 1.86.001 1.04.005 2.082-.002 3.123-.003.5-.098.555-.565.353-3.032-1.311-6.322.867-6.385 4.16-.038 2.012 1.426 4.3 3.983 4.646.908.123 1.772-.046 2.586-.445.303-.149.517-.113.742.124.324.342.728.442 1.167.264.453-.184.665-.548.671-1.03.008-.593.003-1.186.003-1.78 0-3.207-.001-6.415.003-9.623 0-.2-.057-.417.112-.587 1.882 1.377 3.601 2.892 4.393 5.183.07.203.106.42.157.63-.192.058-.318-.085-.465-.155-.623-.298-1.052-.125-1.27.529a2.199 2.199 0 0 0-.051 1.214c.16.673.178 1.36.243 2.042.048.49.237.62.726.497zM9.755 8.444c.365.163.62.424.754.792.273.751.289 1.518.056 2.277-.213.696-.78 1.078-1.513 1.074-1.24-.009-2.277-1.007-2.266-2.181.016-1.591 1.545-2.6 2.97-1.962z"/>
</svg>
