<svg xmlns="http://www.w3.org/2000/svg" width="19" height="20" viewBox="0 0 19 20">
    <path fill="#4C6F8C" fill-rule="nonzero" d="M18.22 13.158c0 .296.016.598-.052.889a3.46 3.46 0 0 1-1.015 1.76c-.238.227-.537.374-.821.54-1.931 1.11-3.857 2.223-5.787 3.335-.59.311-1.287.364-1.941.284a2.666 2.666 0 0 1-.973-.314C5.6 18.482 3.566 17.31 1.534 16.14c-.496-.273-.866-.723-1.14-1.207-.222-.42-.385-.882-.385-1.363V6.384c.038-.7.352-1.363.799-1.892.18-.223.4-.416.646-.564C3.344 2.842 5.231 1.752 7.12.662c.311-.17.606-.378.943-.492A3.553 3.553 0 0 1 9.8.075a.418.418 0 0 1 .023.06L9.82.073c.261.072.526.148.76.284 2.056 1.191 4.115 2.373 6.17 3.565.548.32.95.855 1.211 1.426.166.36.26.757.26 1.155v6.656zM7.549 5.786c-.296.277-.58.576-.748.947-.136.262-.227.56-.19.86.047.404.338.76.716.904.386.152.822.118 1.204-.03.069-.03.144-.041.22-.03-.075.474-.367.874-.598 1.283l.01.068c.209.22.429.428.637.644.053.049.102.117.174.14.241-.185.431-.428.654-.632.05-.056.151-.117.098-.204-.216-.4-.455-.805-.523-1.267.041-.094.155-.015.223.008.36.174.795.2 1.17.057.511-.193.83-.784.715-1.318a2.359 2.359 0 0 0-.692-1.256c-.538-.545-1.053-1.127-1.42-1.801a.237.237 0 0 0-.144-.133 10.712 10.712 0 0 1-1.506 1.76zm-2.173 4.75c-.608.326-1.014.965-1.113 1.644-.14.953.424 1.949 1.298 2.339.553.235 1.196.23 1.752.015.288-.114.534-.3.746-.519.08-.084.197-.159.197-.288-.011-.129-.128-.2-.204-.288-.099-.087-.178-.2-.292-.269-.182-.079-.292.118-.409.216-.46.462-1.29.466-1.763.015a1.246 1.246 0 0 1-.382-1.12c.056-.383.287-.746.632-.928.223-.11.473-.17.719-.159.348.022.665.204.9.454.803.788 1.574 1.605 2.373 2.396.424.413 1.01.678 1.608.655.455.01.894-.17 1.265-.424.545-.375.878-1.026.912-1.684.072-1.042-.692-2.093-1.722-2.294-.658-.132-1.4.004-1.907.466-.36.324-.689.688-1.044 1.021-.368-.299-.66-.677-1.019-.983a1.774 1.774 0 0 0-.526-.341c-.037-.023-.049-.034-.098-.053a2.154 2.154 0 0 0-1.923.129zm5.102 1.052c.26-.257.631-.409 1.002-.379.401.011.788.223 1.003.564.333.5.235 1.219-.193 1.631-.439.42-1.193.47-1.665.076-.352-.295-.647-.646-.984-.957-.004-.02-.008-.061-.01-.083.276-.284.563-.564.847-.852z"/>
</svg>
