<svg xmlns="http://www.w3.org/2000/svg" width="18" height="20" viewBox="0 0 18 20">
    <g fill="#4C6F8C" fill-rule="evenodd">
        <path d="M8.989 14.432l.003-4.235 3.71-2.138v4.244c-1.236.707-2.475 1.417-3.713 2.13m0 .58l1.574-.902 2.428-1.393.023-.015c.044-.026.102-.061.143-.12l.023-.032v-.038a266.832 266.832 0 0 1-.005-3.046c0-.56.003-1.122 0-1.683l3.768-2.173-.006 3.707-.009 5.412c-1.682.967-3.365 1.937-5.05 2.907l-2.895 1.668.006-4.291M4.721 8.068l3.766 2.13-.006 4.232-3.69-2.121-.07-4.241M.527 5.693L4.21 7.779l.076 4.6c-.008.143.062.272.173.321.815.47 1.632.938 2.45 1.408l1.572.903-.003 4.296L.51 14.774l.017-9.081m12.414 1.642l-4.022-2.34a.322.322 0 0 0-.362-.009l-4.075 2.36-3.7-2.091 2.581-1.51C5.153 2.696 6.944 1.65 8.738.605c1.644.95 3.289 1.893 4.936 2.836l3.015 1.732-3.748 2.162M8.731 5.47l3.705 2.156-3.698 2.132-1.26-.713C6.65 8.576 5.82 8.11 4.99 7.638l3.742-2.167m8.444-.602a1.803 1.803 0 0 1-.064-.038c-1.352-.774-2.702-1.55-4.051-2.325C11.644 1.694 10.23.88 8.814.07l-.05-.029-.052.02c-.094.036-.167.07-.234.109A5966.55 5966.55 0 0 1 4.783 2.33C3.253 3.228 1.719 4.121.2 5.015c-.19.088-.184.287-.181.406 0 .027.003.056 0 .085-.003 2.267-.006 4.533-.012 6.8L.001 14.83c-.011.152.056.28.17.333 1.755.996 3.51 1.995 5.266 2.994l3.105 1.767c.07.044.14.067.205.067a.232.232 0 0 0 .146-.05l4.504-2.594c1.279-.736 2.558-1.475 3.829-2.205.143-.064.228-.207.21-.342l.015-9.55c.02-.22-.164-.322-.275-.38"/>
        <path d="M15.821 14.754a.286.286 0 0 0 .313.046c.113-.05.192-.154.198-.257a.324.324 0 0 0-.146-.327.291.291 0 0 0-.327-.008.331.331 0 0 0-.16.271.313.313 0 0 0 .122.275m-14.432-.546a.303.303 0 0 0-.307 0 .328.328 0 0 0-.166.292.321.321 0 0 0 .312.327.33.33 0 0 0 .175-.053.319.319 0 0 0 .152-.289.31.31 0 0 0-.166-.277m13.483-.065a.314.314 0 0 0 .114-.02.305.305 0 0 0 .201-.234.317.317 0 0 0-.1-.321.304.304 0 0 0-.315-.067.325.325 0 0 0-.21.257.33.33 0 0 0 .114.315.32.32 0 0 0 .196.07m-12.607-.64a.315.315 0 0 0-.207.278.333.333 0 0 0 .154.318c.047.03.103.047.158.047.047 0 .09-.011.137-.032a.303.303 0 0 0 .182-.234.33.33 0 0 0-.117-.32.287.287 0 0 0-.307-.056m11.473-.044a.275.275 0 0 0 .082-.012.296.296 0 0 0 .213-.181.328.328 0 0 0-.055-.362.308.308 0 0 0-.327-.094.318.318 0 0 0-.22.252.327.327 0 0 0 .106.315.273.273 0 0 0 .201.082m-10.31-.646a.325.325 0 0 0-.228.249.32.32 0 0 0 .105.318.296.296 0 0 0 .272.067.31.31 0 0 0 .224-.184.32.32 0 0 0-.055-.353.298.298 0 0 0-.318-.097m5.424-8.947a.342.342 0 0 0-.354-.011.308.308 0 0 0-.166.257.308.308 0 0 0 .125.28.33.33 0 0 0 .208.07c.05 0 .1-.011.146-.032a.312.312 0 0 0 .195-.266.323.323 0 0 0-.154-.298m-.015-1.37a.337.337 0 0 0-.347.01.325.325 0 0 0-.158.25.305.305 0 0 0 .105.263.32.32 0 0 0 .225.088c.05 0 .1-.012.146-.032a.314.314 0 0 0 .198-.29.314.314 0 0 0-.169-.288m-.213-1.394a.325.325 0 0 0-.254.184.312.312 0 0 0 .017.313.331.331 0 0 0 .284.149c.02 0 .043-.003.067-.006.137-.023.24-.117.263-.237a.306.306 0 0 0-.076-.298.329.329 0 0 0-.301-.105"/>
    </g>
</svg>
