<svg xmlns="http://www.w3.org/2000/svg" width="20" height="20" viewBox="0 0 20 20">
    <g fill="#4C6F8C" fill-rule="evenodd">
        <path d="M7.584 11.026l.922 2.895H5.944l1.64-2.895zm-.708-2.227l.378 1.188-1.04 1.834.662-3.022zm5.881-1.47l-.544 1.71-1.808-3.192V4.114l2.353 3.214zM9.6 5.846L7.79 9.038l-.544-1.71L9.6 4.114v1.733zM6.65 14.72H8.76l.526 1.653L6.65 14.72zm7.14-2.9l-1.04-1.834.379-1.188.661 3.022zm-3.788 4.16l-.401-1.26h.803l-.402 1.26zm1.496-2.06l.922-2.895 1.64 2.895h-2.562zm-1.496-7.162l1.88 3.318-1.224 3.844H9.346l-1.224-3.844 1.88-3.318zm.715 9.615l.526-1.653h2.112l-2.638 1.653z"/>
        <path d="M15.134 14.421a.4.4 0 0 1-.163.231h-.001a.39.39 0 0 1-.012.008l-4.741 2.971a.4.4 0 0 1-.212.061H10a.4.4 0 0 1-.213-.061l-4.741-2.97A.39.39 0 0 1 4.9 14.5a.4.4 0 0 1-.033-.267l1.545-7.055a.402.402 0 0 1 .072-.162l3.193-4.362A.4.4 0 0 1 10 2.49h.004a.4.4 0 0 1 .323.164l3.193 4.362c.036.048.06.103.073.162l1.544 7.055a.408.408 0 0 1-.003.188M10 0C4.477 0 0 4.477 0 10s4.477 10 10 10 10-4.477 10-10S15.523 0 10 0"/>
    </g>
</svg>
