<svg xmlns="http://www.w3.org/2000/svg" width="20" height="20" viewBox="0 0 20 20">
    <path fill="#4C6F8C" fill-rule="evenodd" d="M12.623 8.672a.645.645 0 1 0 .665-.636.636.636 0 0 0-.665.636M6.077 9.923a.652.652 0 0 0-.667-.64.66.66 0 0 0-.626.655.661.661 0 0 0 .669.64.659.659 0 0 0 .624-.655m-.79 7.216c.412.225.753.436 1.113.604 4.19 1.955 9.196.199 11.247-3.937.068-.137.077-.229-.043-.348a556.098 556.098 0 0 1-3.36-3.36c-.123-.126-.216-.129-.37-.057-.36.168-.75.2-1.11.037-.237-.108-.357-.038-.513.118-1.48 1.488-2.964 2.973-4.45 4.455-.816.814-1.639 1.622-2.514 2.488m-2.07.164c.55-.529 1.109-1.048 1.648-1.586 2.252-2.245 4.5-4.494 6.741-6.749a.689.689 0 0 0 .175-.396c.07-.772.668-1.359 1.426-1.375.807-.018 1.447.532 1.549 1.313.017.132.063.287.152.377 1.051 1.069 2.113 2.127 3.173 3.187.038.038.086.067.133.103.792-2.363.265-6.144-2.617-8.613C12.464.881 8.083.744 4.84 3.207 1.646 5.634.957 9.547 1.773 12.15c.072-.058.14-.104.196-.16.602-.601 1.206-1.2 1.797-1.81a.679.679 0 0 0 .172-.366c.094-.786.665-1.34 1.44-1.374.752-.033 1.364.472 1.526 1.24.025.12.098.248.185.336.378.378.769.743 1.142 1.1l-.974.973c-.233-.244-.488-.5-.73-.767-.123-.138-.219-.18-.405-.075-.393.221-.823.262-1.237.063-.219-.106-.335-.038-.485.114-1.002 1.01-2.011 2.013-3.019 3.018-.067.067-.139.128-.21.194C-.97 10.819-.27 5.19 4.04 1.984A9.966 9.966 0 0 1 17.944 3.94a9.962 9.962 0 0 1-1.779 13.928c-4.32 3.38-9.912 2.402-12.949-.565"/>
</svg>
