<svg xmlns="http://www.w3.org/2000/svg" width="21" height="20" viewBox="0 0 21 20">
    <path fill="#4C6F8C" fill-rule="evenodd" d="M1.134 10.029H0v-.008c0-.614.056-1.227.167-1.831l1.115.205c.1-.538.249-1.066.446-1.577L.671 6.41c.222-.577.498-1.13.824-1.656l.963.597c.289-.466.62-.905.988-1.31l-.838-.763A10.08 10.08 0 0 1 3.973 2.03l.684.903c.437-.33.903-.62 1.393-.866l-.508-1.014a9.952 9.952 0 0 1 1.724-.67l.311 1.09a8.877 8.877 0 0 1 1.611-.302L9.083.043a10.044 10.044 0 0 1 1.848-.002l-.102 1.129c.545.05 1.085.149 1.612.297l.308-1.09c.595.167 1.173.39 1.726.665l-.504 1.015c.49.244.957.533 1.395.862l.682-.905c.493.372.951.788 1.368 1.244l-.836.765c.37.405.702.842.991 1.307l.962-.6c.327.525.604 1.079.828 1.654l-1.056.412c.199.51.35 1.037.451 1.576l1.115-.21c.114.607.172 1.223.173 1.84l-1.132.003v.016a8.97 8.97 0 0 1-.152 1.633l1.113.207a9.946 9.946 0 0 1-.505 1.78l-1.057-.41a8.875 8.875 0 0 1-.732 1.467l.963.598a10.059 10.059 0 0 1-1.115 1.475l-.837-.764c-.37.405-.775.775-1.212 1.106l.684.903c-.493.373-1.018.7-1.57.976l-.507-1.015a8.847 8.847 0 0 1-1.528.593l.31 1.09a9.982 9.982 0 0 1-1.818.34l-.104-1.13a9.07 9.07 0 0 1-1.64.001L9.101 20a9.983 9.983 0 0 1-1.818-.336l.308-1.092a8.847 8.847 0 0 1-1.529-.592l-.505 1.015a10.023 10.023 0 0 1-1.572-.974l.683-.904c-.437-.33-.843-.7-1.212-1.105l-.837.764c-.417-.456-.79-.949-1.116-1.473l.962-.599a8.874 8.874 0 0 1-.732-1.466l-1.057.411A9.946 9.946 0 0 1 .17 11.87l1.115-.208a8.969 8.969 0 0 1-.151-1.633zm10.753-1.76v3.448h1.002V9.823l1.288 1.894h1.007V8.27h-1.012v1.905L12.88 8.27h-.993zm-3.918 0v2.052c0 .17.034.363.1.582.04.136.118.269.228.397.11.128.232.227.365.297.133.07.299.116.497.14.182.022.365.034.549.035.29 0 .538-.039.744-.115.15-.055.292-.15.427-.285.135-.134.237-.296.3-.475.065-.185.098-.38.097-.576V8.27h-1.062v2.1c0 .191-.054.339-.158.443-.105.104-.25.156-.434.156s-.33-.053-.433-.159c-.105-.105-.158-.252-.158-.44v-2.1H7.97zm-3.106 0v3.448h1.072v-1.413h1.333v-.691H5.935V9.01h1.553V8.27H4.863zm6.171 8.78a7.053 7.053 0 0 0 1.94-.57l-.178-.387a6.627 6.627 0 0 1-1.822.535l.06.422zm6.087-7.029v-.012l-.426.002v.01c0 .637-.09 1.27-.269 1.88l.41.12a7.11 7.11 0 0 0 .285-2zm-1.133-3.847l-.358.23a6.64 6.64 0 0 1 .793 1.727l.409-.12a7.065 7.065 0 0 0-.844-1.837zm-.352 7.455a6.704 6.704 0 0 1-1.243 1.435l.278.322a7.13 7.13 0 0 0 1.324-1.527l-.359-.23zM12.962 3.557l-.177.388c.58.264 1.117.61 1.599 1.026l.278-.323a7.101 7.101 0 0 0-1.7-1.091zm-2.941-.636c-.341 0-.682.025-1.02.073l.062.422a6.76 6.76 0 0 1 1.9-.002l.059-.423a7.186 7.186 0 0 0-1.001-.07zm-.947 13.706a6.627 6.627 0 0 1-1.823-.533l-.177.388c.616.281 1.27.472 1.94.567l.06-.422zM7.064 3.565A7.102 7.102 0 0 0 5.366 4.66l.28.322a6.676 6.676 0 0 1 1.595-1.03l-.177-.387zm-1.41 11.502c-.48-.417-.9-.9-1.245-1.434l-.358.23a7.13 7.13 0 0 0 1.324 1.526l.28-.322zm-1.61-8.878a7.065 7.065 0 0 0-.839 1.838l.41.12c.178-.61.444-1.193.788-1.728l-.359-.23zm-.696 3.838h-.426c0 .677.097 1.35.287 2l.409-.12a6.681 6.681 0 0 1-.27-1.88z"/>
</svg>
