<svg xmlns="http://www.w3.org/2000/svg" width="18" height="21" viewBox="0 0 18 21">
    <g fill="#4C6F8C" fill-rule="evenodd">
        <path d="M16.647 7.235h-1.765v7.412h1.765zM13.47 6.176L9.942 4.412v14.47l3.53-3.076z"/>
        <path d="M9.941 5.125l5.721 3.316.985-1.206v-.257l-.103-.066-6.603-3.814zM9.941 16.774l5.721-3.315.985 1.205v.258l-.103.065L9.941 18.8z"/>
        <g>
            <path d="M2.118 7.294h1.765v7.412H2.118zM7.059 10.824h1.765v8.117L7.059 17.53z"/>
            <path d="M8.824 5.184L3.103 8.5l-.985-1.205v-.258l.102-.065 6.603-3.814zM8.824 16.833l-5.721-3.316-.985 1.206v.257l.102.066 6.603 3.814z"/>
        </g>
        <path fill-rule="nonzero" d="M9 1.146L.975 5.823v9.354L9 19.854l8.025-4.677V5.823L9 1.146zM9 0l9 5.245v10.51L9 21l-9-5.245V5.245L9 0z"/>
    </g>
</svg>
