<svg xmlns="http://www.w3.org/2000/svg" width="19" height="20" viewBox="0 0 19 20">
    <path fill="#4C6F8C" fill-rule="nonzero" d="M16.856 5.011l-.692.732c.557.914.72 2.082.346 3.184-.639 1.881-2.6 2.86-4.381 2.185a3.355 3.355 0 0 1-.702-.365l-2.23 2.356-1.964-2.075a3.357 3.357 0 0 1-3.15.414c-1.832-.695-2.784-2.826-2.128-4.76.1-.296.233-.568.39-.817L1.51 4.98l-.162.279A10.084 10.084 0 0 0 0 10.29C-.01 15.635 4.097 19.99 9.154 20h.018c5.047 0 9.162-4.339 9.171-9.671a10.094 10.094 0 0 0-1.326-5.038l-.161-.28zM3.382 6.961a2.027 2.027 0 0 0-.387 1.197c0 1.086.833 1.966 1.861 1.966.427 0 .82-.153 1.134-.409L3.382 6.96zm9.175 2.593c.297.212.655.335 1.041.335 1.027 0 1.861-.88 1.861-1.966 0-.408-.117-.786-.318-1.1l-2.584 2.73zm-3.346 2.08L1.642 3.607l.295-.331C3.82 1.163 6.367 0 9.108 0h.019c2.77.006 5.425 1.254 7.285 3.425l.285.331-7.486 7.878zM2.886 3.596l6.328 6.711 6.249-6.576C13.79 1.956 11.505.943 9.125.938h-.017c-2.35 0-4.543.94-6.222 2.658z"/>
</svg>
