<?xml version="1.0" encoding="UTF-8"?>
<svg width="20px" height="20px" viewBox="0 0 20 20" version="1.1" xmlns="http://www.w3.org/2000/svg" xmlns:xlink="http://www.w3.org/1999/xlink">
    <!-- Generator: Sketch 41.2 (35397) - http://www.bohemiancoding.com/sketch -->
    <title>iconSocialSlack</title>
    <desc>Created with Sketch.</desc>
    <defs></defs>
    <g id="resources" stroke="none" stroke-width="1" fill="none" fill-rule="evenodd">
        <g id="iconSocialSlack" fill="#4C6F8C">
            <g id="social" transform="translate(2.000000, 2.000000)">
                <path d="M10.88,2.57560976 L8.24,3.47317073 L7.68,1.79512195 C7.44,1.09268293 7.8,0.312195122 8.56,0.0780487805 C9.28,-0.156097561 10.08,0.195121951 10.32,0.936585366 L10.88,2.57560976 Z M10.08,8.8195122 L12.72,7.92195122 L11.8,5.15121951 L9.16,6.04878049 L10.08,8.8195122 Z M11.44,12.8 C11.64,13.3463415 12.2,13.7365854 12.76,13.7365854 C12.92,13.7365854 13.08,13.697561 13.2,13.6585366 C13.92,13.4243902 14.32,12.6439024 14.08,11.9414634 L13.6,10.5365854 L10.96,11.4341463 L11.44,12.8 Z" id="Shape"></path>
                <path d="M5.28,4.48780488 L2.64,5.38536585 L2.08,3.74634146 C1.84,3.04390244 2.2,2.26341463 2.96,2.02926829 C3.68,1.79512195 4.48,2.14634146 4.72,2.88780488 L5.28,4.48780488 Z M5.84,14.7512195 C6.04,15.297561 6.6,15.6878049 7.16,15.6878049 C7.32,15.6878049 7.48,15.6487805 7.6,15.6097561 C8.32,15.3756098 8.72,14.595122 8.48,13.8926829 L8,12.4487805 L5.36,13.3463415 L5.84,14.7512195 Z M6.16,7.10243902 L3.52,8 L4.44,10.7707317 L7.08,9.87317073 L6.16,7.10243902 Z" id="Shape"></path>
                <path d="M11.76,5.1902439 L10.88,2.61463415 L12.52,2.06829268 C13.24,1.83414634 14.04,2.18536585 14.28,2.92682927 C14.52,3.62926829 14.16,4.4097561 13.4,4.64390244 L11.76,5.1902439 Z M9.12,6.08780488 L8.24,3.51219512 L5.28,4.52682927 L6.16,7.10243902 L9.12,6.08780488 Z M0.96,5.97073171 C0.24,6.20487805 -0.16,6.98536585 0.08,7.68780488 C0.28,8.27317073 0.84,8.62439024 1.4,8.62439024 C1.56,8.62439024 1.72,8.58536585 1.84,8.54634146 L3.48,8 L2.6,5.42439024 L0.96,5.97073171 Z" id="Shape"></path>
                <path d="M4.44,10.7317073 L5.32,13.3073171 L3.44,13.9317073 C3.28,13.9707317 3.12,14.0097561 3,14.0097561 C2.4,14.0097561 1.88,13.6585366 1.68,13.0731707 C1.44,12.3707317 1.8,11.5902439 2.56,11.3560976 L4.44,10.7317073 Z M15.88,8.31219512 C15.64,7.6097561 14.84,7.2195122 14.12,7.45365854 L12.72,7.92195122 L13.6,10.5365854 L15.04,10.0682927 C15.76,9.79512195 16.16,9.01463415 15.88,8.31219512 Z M7.08,9.83414634 L7.96,12.4097561 L10.92,11.395122 L10.04,8.8195122 L7.08,9.83414634 Z" id="Shape"></path>
                <polygon id="Shape" points="11.76 5.1902439 10.88 2.57560976 8.24 3.47317073 9.12 6.08780488"></polygon>
                <polygon id="Shape" points="5.28 4.48780488 2.64 5.38536585 3.52 8 6.16 7.10243902"></polygon>
                <polygon id="Shape" points="10.08 8.8195122 10.96 11.4341463 13.6 10.5365854 12.72 7.92195122"></polygon>
                <polygon id="Shape" points="4.44 10.7317073 5.32 13.3463415 7.96 12.4487805 7.08 9.83414634"></polygon>
            </g>
        </g>
    </g>
</svg>