<?xml version="1.0" encoding="UTF-8"?>
<svg width="20px" height="20px" viewBox="0 0 20 20" version="1.1" xmlns="http://www.w3.org/2000/svg" xmlns:xlink="http://www.w3.org/1999/xlink">
    <!-- Generator: Sketch 41.2 (35397) - http://www.bohemiancoding.com/sketch -->
    <title>iconSocialTwitter</title>
    <desc>Created with Sketch.</desc>
    <defs></defs>
    <g id="resources" stroke="none" stroke-width="1" fill="none" fill-rule="evenodd">
        <g id="iconSocialTwitter" fill="#4C6F8C">
            <path d="M6.13599942,6.98286988 C8.44319899,8.14766966 10.3930486,8.08046967 10.3930486,8.08046967 C10.3930486,8.08046967 9.65384864,5.50446997 11.9386483,4.36207036 C14.2234479,3.21967057 15.7957183,5.14571963 15.7957183,5.14571963 C15.7957183,5.14571963 16.1941972,5.03633328 16.491103,4.92694693 C16.7880088,4.81756058 17.2177409,4.62222781 17.2177409,4.62222781 L16.5136894,5.87891998 L17.597822,5.76400171 C17.597822,5.76400171 17.4641997,5.95937339 17.0303119,6.35730779 C16.596424,6.75524217 16.4175975,6.96081988 16.4175975,6.96081988 C16.4175975,6.96081988 16.5725939,10.0615476 14.9391978,12.4488189 C13.3058014,14.83609 11.1953579,16.2688681 8.12959905,16.5704181 C5.06384022,16.8719682 3.06719999,15.6296183 3.06719999,15.6296183 C3.06719999,15.6296183 4.40800782,15.5530977 5.26239958,15.2264184 C6.11679139,14.8997391 7.34559919,14.0392186 7.34559919,14.0392186 C7.34559919,14.0392186 5.5983995,13.5016187 4.97119963,12.8968188 C4.34399975,12.2920189 4.18719978,11.933619 4.18719978,11.933619 L5.91199946,11.911219 C5.91199946,11.911219 4.0975998,10.9480191 3.58239989,10.1864193 C3.06719994,9.42481945 3,8.68561956 3,8.68561956 L4.32604161,9.22109969 C4.32604161,9.22109969 3.22400004,7.72241973 3.06719999,6.55761996 C2.91040002,5.39282017 3.26879995,4.76562029 3.26879995,4.76562029 C3.26879995,4.76562029 3.82879985,5.81807008 6.13599942,6.98286988 Z" id="twitter-L"></path>
        </g>
    </g>
</svg>