<svg xmlns="http://www.w3.org/2000/svg" width="18" height="14" viewBox="0 0 18 14">
    <g fill="#4C6F8C" fill-rule="nonzero">
        <path d="M17.263 6.989v.022c0 .826-.26 1.619-.77 2.355-.46.662-1.104 1.247-1.913 1.74-1.564.952-3.619 1.476-5.787 1.476a12.96 12.96 0 0 1-2.13-.174c-.43.383-.932.728-1.464 1C2.357 14.721 0 13.44 0 13.44s2.191-1.715 1.835-3.22C.855 9.293.323 8.175.323 7.011V7v-.011c0-1.164.532-2.282 1.512-3.209C2.191 2.277 0 .56 0 .56S2.357-.72 5.2.593a7.05 7.05 0 0 1 1.463 1 12.941 12.941 0 0 1 2.13-.174c2.168 0 4.223.524 5.787 1.476.81.494 1.453 1.079 1.912 1.74.512.736.771 1.529.771 2.355zM8.843 2.8c-3.954 0-7.159 1.973-7.159 4.408 0 1.06.609 2.034 1.623 2.794.174 1.586-.641 2.549-1.191 3.118 1.691.413 3.433-.864 4.224-1.781a11.21 11.21 0 0 0 2.502.277c3.953 0 7.158-1.974 7.158-4.408C16 4.773 12.795 2.8 8.842 2.8z"/>
        <g transform="translate(4.632 6)">
            <ellipse cx="4.421" cy="1" rx="1.053" ry="1"/>
            <ellipse cx="7.789" cy="1" rx="1.053" ry="1"/>
            <ellipse cx="1.053" cy="1" rx="1.053" ry="1"/>
        </g>
    </g>
</svg>
