<?xml version="1.0" encoding="UTF-8"?>
<svg width="20px" height="20px" viewBox="0 0 20 20" version="1.1" xmlns="http://www.w3.org/2000/svg" xmlns:xlink="http://www.w3.org/1999/xlink">
    <!-- Generator: Sketch 41.2 (35397) - http://www.bohemiancoding.com/sketch -->
    <title>iconSocialReddit</title>
    <desc>Created with Sketch.</desc>
    <defs></defs>
    <g id="resources" stroke="none" stroke-width="1" fill="none" fill-rule="evenodd">
        <g id="iconSocialReddit" fill="#4C6F8C">
            <path d="M14.1884677,4.77820708 C14.0374722,4.72495067 12.4018534,4.16548823 11.6931622,4.66284737 C10.9498089,5.18453248 10.9887643,6.85971285 11.0621048,6.86480133 C12.6856833,6.97744791 14.1506617,7.4676242 15.2753699,8.20816095 C15.3782106,8.27587391 16.3492963,7.43121843 17.4068951,7.60640522 C18.464494,7.781592 19.1959986,8.78993455 18.8766498,9.87790215 C18.557301,10.9658698 17.5100114,11.2965582 17.5335685,11.6155241 C17.5400371,11.7031101 17.5433114,11.7912874 17.5433114,11.88 C17.5433114,14.6635153 14.3197618,16.92 10.3433114,16.92 C6.36686097,16.92 3.14331136,14.6635153 3.14331136,11.88 C3.14331136,11.7402765 3.15143379,11.601881 3.16736616,11.4650322 C3.1692446,11.4488976 2.44129603,11.0306143 2.15283843,10.381358 C1.87758442,9.76181994 2.00549581,8.99388153 2.28790248,8.55185371 C2.73795193,7.84742857 3.29474375,7.60640522 4.04373529,7.60640522 C4.79272684,7.60640522 5.62898712,8.07038072 5.66302983,8.04997744 C6.88214898,7.31930619 8.45422746,6.86889175 10.1755412,6.84134134 C10.2313102,6.84044873 10.0425223,4.81140008 11.2157285,4.04900465 C12.3889345,3.28660914 14.3492923,4.04852532 14.3701981,4.04900465 C14.3745444,4.04910431 14.3735269,4.06649303 14.3686916,4.09585399 C14.6771049,3.44787759 15.3379044,3 16.1033114,3 C17.1636981,3 18.0233114,3.85961323 18.0233114,4.92 C18.0233114,5.98038677 17.1636981,6.84 16.1033114,6.84 C15.0429246,6.84 14.1833114,5.98038677 14.1833114,4.92 C14.1833114,4.87230961 14.1850501,4.82502533 14.1884677,4.77820708 Z M13.2233114,11.64 C13.7535047,11.64 14.1833114,11.2101934 14.1833114,10.68 C14.1833114,10.1498066 13.7535047,9.72 13.2233114,9.72 C12.693118,9.72 12.2633114,10.1498066 12.2633114,10.68 C12.2633114,11.2101934 12.693118,11.64 13.2233114,11.64 Z M7.46331136,11.64 C7.99350475,11.64 8.42331136,11.2101934 8.42331136,10.68 C8.42331136,10.1498066 7.99350475,9.72 7.46331136,9.72 C6.93311797,9.72 6.50331136,10.1498066 6.50331136,10.68 C6.50331136,11.2101934 6.93311797,11.64 7.46331136,11.64 Z M10.5833113,13.9527519 C8.85149518,13.9527519 7.92465958,13.2670465 7.92465958,13.2670465 C7.81215537,13.196916 7.67041884,13.2372445 7.61145858,13.3506296 L7.50703018,13.5514535 C7.44655825,13.6677457 7.48572802,13.838153 7.58530542,13.9136206 C7.58530542,13.9136206 8.37880979,14.732269 10.5833113,14.7322689 C12.7878128,14.7322688 13.5258194,13.8576446 13.5258194,13.8576446 C13.6238455,13.7681925 13.6393049,13.6088626 13.5554214,13.4950881 L13.4415599,13.3406531 C13.3598826,13.2298708 13.2080924,13.2038343 13.0907639,13.2816235 C13.0907639,13.2816235 12.3151274,13.952752 10.5833113,13.9527519 Z M16.1033114,5.88 C16.6335047,5.88 17.0633114,5.45019339 17.0633114,4.92 C17.0633114,4.38980661 16.6335047,3.96 16.1033114,3.96 C15.573118,3.96 15.1433114,4.38980661 15.1433114,4.92 C15.1433114,5.45019339 15.573118,5.88 16.1033114,5.88 Z" id="reddit-L"></path>
        </g>
    </g>
</svg>