<?xml version="1.0" encoding="UTF-8"?>
<svg width="20px" height="20px" viewBox="0 0 20 20" version="1.1" xmlns="http://www.w3.org/2000/svg" xmlns:xlink="http://www.w3.org/1999/xlink">
    <!-- Generator: Sketch 41.2 (35397) - http://www.bohemiancoding.com/sketch -->
    <title>iconSocialLinkedIn</title>
    <desc>Created with Sketch.</desc>
    <defs></defs>
    <g id="resources" stroke="none" stroke-width="1" fill="none" fill-rule="evenodd">
        <g id="iconSocialLinkedIn" fill="#4C6F8C">
            <path d="M5.7893351,16.96 L5.7893351,7.93230769 L3.07191834,7.93230769 L3.07191834,16.96 L5.7893351,16.96 Z M4.43062672,4 C3.55461737,4 2.98252963,4.60923077 3.00040738,5.42153846 C2.98252963,6.19692308 3.55461737,6.82461538 4.41274898,6.82461538 C5.30663607,6.82461538 5.87872381,6.19692308 5.87872381,5.42153846 C5.86084607,4.60923077 5.30663607,4 4.43062672,4 Z M7.97041961,16.96 L10.6878364,16.96 L10.6878364,11.7538462 C10.6878364,11.4953846 10.7235919,11.2184615 10.7951028,11.0523077 C10.9738802,10.5353846 11.4208238,10 12.1716889,10 C13.1549647,10 13.5482751,10.7938462 13.5482751,11.9569231 L13.5482751,16.96 L16.2656918,16.96 L16.2656918,11.6061538 C16.2656918,8.94769231 14.9248612,7.72923077 13.137087,7.72923077 C11.6889899,7.72923077 10.7951028,8.59692308 10.437548,9.16923077 L10.3839148,9.16923077 L10.2587706,7.93230769 L7.89890864,7.93230769 C7.93466413,8.72615385 7.97041961,9.68615385 7.97041961,10.8123077 L7.97041961,16.96 Z" id="linkedin-L"></path>
        </g>
    </g>
</svg>