<svg xmlns="http://www.w3.org/2000/svg" width="49" height="62" viewBox="0 0 49 62">
    <g fill="none" fill-rule="evenodd" stroke="#FFF">
        <path stroke-width="2" d="M25.143 53.143c-2.218-.807-4.365-1.96-6.402-3.444C12.283 44.996 8.43 37.39 8.43 29.353V16.326c7.72-.912 13.203-3.402 16.714-5.612 3.51 2.21 8.993 4.7 16.714 5.612v13.027c0 8.037-3.855 15.643-10.312 20.346-2.038 1.484-4.184 2.637-6.402 3.444z"/>
        <path stroke-width="3" d="M24.5 3S17.681 10.803 2 10.803v18.615c0 9.72 4.426 19.095 12.44 25.101 2.836 2.126 6.182 3.955 10.06 5.052 3.878-1.097 7.224-2.926 10.06-5.052C42.574 48.513 47 39.139 47 29.418V10.803C31.319 10.803 24.5 3 24.5 3z"/>
    </g>
</svg>
