<svg xmlns="http://www.w3.org/2000/svg" xmlns:xlink="http://www.w3.org/1999/xlink" width="16" height="14" viewBox="0 0 16 14">
    <defs>
        <path id="a" d="M15.983 13.07H.04V.028h15.943z"/>
    </defs>
    <g fill="none" fill-rule="evenodd">
        <path fill="#4C6F8C" d="M15.867 2.428l-5.05-2.41A.179.179 0 0 0 10.743 0L10.739 0a.186.186 0 0 0-.156.08L7.47 4.91l3.475 5.392 4.97-7.711a.112.112 0 0 0-.048-.163"/>
        <g transform="translate(0 .029)">
            <mask id="b" fill="#fff">
                <use xlink:href="#a"/>
            </mask>
            <path fill="#4C6F8C" d="M5.824 3.184v5.204l4.845 2.313-4.845-7.517M11.093 10.9l4.449 2.124c.242.116.441-.001.441-.26V3.312l-4.89 7.588M5.29 2.424L.334.059a.279.279 0 0 0-.12-.03.163.163 0 0 0-.127.055.222.222 0 0 0-.048.148v10.155c0 .173.133.377.295.455l4.578 2.186c.064.03.125.044.18.044.154 0 .262-.113.262-.305V2.525a.113.113 0 0 0-.066-.101" mask="url(#b)"/>
        </g>
    </g>
</svg>
