<svg xmlns="http://www.w3.org/2000/svg" width="18" height="18" viewBox="0 0 18 18">
    <path fill="#4C6F8C" fill-rule="evenodd" d="M4.378 14.967l1.924-1.924a4.517 4.517 0 0 0 2.89 1.044c2.538 0 4.595-2.102 4.595-4.696a4.74 4.74 0 0 0-.96-2.872l1.924-1.925a7.502 7.502 0 0 1 1.717 4.797c0 4.106-3.258 7.435-7.277 7.435a7.161 7.161 0 0 1-4.813-1.859zm-1.454-1.795a7.523 7.523 0 0 1-1.01-3.78c0-4.107 3.259-7.435 7.277-7.435 1.407 0 2.72.407 3.834 1.114l-2.01 2.01a4.497 4.497 0 0 0-2.952-.243c-1.993.514-3.467 2.358-3.467 4.553 0 .627.12 1.225.338 1.771l-2.01 2.01zm13.353-9.65c-.952 0-1.724-.789-1.724-1.761 0-.973.772-1.761 1.724-1.761C17.228 0 18 .788 18 1.76c0 .973-.772 1.762-1.723 1.762zM1.723 18C.772 18 0 17.212 0 16.24c0-.973.772-1.762 1.723-1.762.952 0 1.724.789 1.724 1.761 0 .973-.772 1.761-1.724 1.761z"/>
</svg>
