<svg xmlns="http://www.w3.org/2000/svg" width="12" height="20" viewBox="0 0 12 20">
    <path fill="#4C6F8C" fill-rule="evenodd" d="M4.95 8.73l5.416 5.787a.506.506 0 0 0-.063.499l-5.174 4.205a.507.507 0 0 0-.202-.087L4.769 8.808a.506.506 0 0 0 .18-.079zm.218-.419c0-.059-.01-.116-.03-.169l5.5-2.78a.51.51 0 0 0 .302.21l-.275 8.753a.505.505 0 0 0-.147.057l-5.428-5.8a.506.506 0 0 0 .078-.27zm-.407-.498V.844a.508.508 0 0 0 .262-.143l5.589 4.131a.506.506 0 0 0-.053.342L5.034 7.968a.509.509 0 0 0-.273-.155zM.692 5.188a.346.346 0 1 1-.692 0 .346.346 0 0 1 .692 0zm.64 9.217a.346.346 0 1 1 0 .692.346.346 0 0 1 0-.692zm3.5 4.883a.346.346 0 1 1 0 .692.346.346 0 0 1 0-.692zm5.941-4.812a.346.346 0 1 1 0 .692.346.346 0 0 1 0-.692zM4.647 19.16l-2.925-4.082a.507.507 0 0 0-.336-.833L.475 5.681a.509.509 0 0 0 .247-.834L4.38.77a.505.505 0 0 0 .179.074v6.969a.509.509 0 0 0 .008.998l.158 10.326a.504.504 0 0 0-.077.023zM4.313 8.311a.346.346 0 1 1 .692 0 .346.346 0 0 1-.692 0zM4.66.692a.346.346 0 1 1 0-.692.346.346 0 0 1 0 .692zm6.4 4.038a.346.346 0 1 1 0 .693.346.346 0 0 1 0-.693z"/>
</svg>
