<svg xmlns="http://www.w3.org/2000/svg" width="16" height="19" viewBox="0 0 16 19">
    <g fill="#4C6F8C" fill-rule="evenodd">
        <path d="M6.044 18.977l2.386-2.68a.067.067 0 0 0-.05-.112H5.756a.063.063 0 0 1-.05-.024l-2.228-2.5a.07.07 0 0 1-.008-.08l3.722-6.39a.069.069 0 0 0 0-.068L5.64 4.459a.067.067 0 0 0-.116 0l-5.516 9.47a.073.073 0 0 0 .008.08l4.428 4.968c.014.014.03.024.05.024h1.5a.07.07 0 0 0 .05-.024"/>
        <path d="M7.68.758L6.128 3.422a.069.069 0 0 0 0 .068l1.61 2.764 4.268 7.326a.07.07 0 0 1-.008.078L9.75 16.184h-.002l-2.406 2.702c-.038.044-.008.114.05.114h3.59a.072.072 0 0 0 .05-.022l4.426-4.97a.07.07 0 0 0 .01-.08L7.796.758a.067.067 0 0 0-.116 0"/>
    </g>
</svg>
