<svg xmlns="http://www.w3.org/2000/svg" width="23" height="20" viewBox="0 0 23 20">
    <g fill="#4C6F8C" fill-rule="evenodd">
        <path d="M5.41 1.745L2.513 3.772a2.557 2.557 0 0 0 0 4.191l14.536 10.19 2.898-2.027a2.557 2.557 0 0 0 0-4.19L5.411 1.744zm11.635 18.153L1.694 9.13a3.979 3.979 0 0 1 0-6.514L5.414 0l15.35 10.77a3.979 3.979 0 0 1 0 6.513l-3.719 2.615z"/>
        <path d="M20.77 2.603L17.06 0l-4.59 3.212 1.23.868 3.354-2.348 2.895 2.031a2.557 2.557 0 0 1 0 4.19l-7.489 5.232 1.23.867 7.078-4.944a3.978 3.978 0 0 0 0-6.514l.003.01zM5.399 18.135l-2.895-2.03a2.557 2.557 0 0 1 0-4.191l7.49-5.23-1.231-.869-7.068 4.936a3.979 3.979 0 0 0 0 6.514l3.708 2.603 4.587-3.21-1.23-.867-3.36 2.344z"/>
    </g>
</svg>
