<svg xmlns="http://www.w3.org/2000/svg" width="18" height="20" viewBox="0 0 18 20">
    <path fill="#4C6F8C" fill-rule="nonzero" d="M8.616.049a.366.366 0 0 1 .364 0l8.039 4.617a.362.362 0 0 1 0 .628l-6.993 4.034a1.61 1.61 0 0 0-.952-.54V6.595a1.604 1.604 0 0 0 1.336-1.579c0-.885-.72-1.603-1.608-1.603-.888 0-1.608.718-1.608 1.603 0 .789.572 1.442 1.324 1.577V8.79a1.608 1.608 0 0 0-.938.537L.586 5.307a.362.362 0 0 1 0-.627L8.615.05zm8.426 5.817a.364.364 0 0 1 .546.313l.007 8.968c0 .13-.07.249-.182.313l-7.785 4.49a.363.363 0 0 1-.546-.312l-.006-7.694c.385-.066.725-.267.964-.555l1.945 1.115a1.607 1.607 0 0 0 1.78 1.992 1.604 1.604 0 0 0 1.368-1.811 1.607 1.607 0 0 0-2.913-.687l-1.905-1.093a1.592 1.592 0 0 0-.025-1.145l6.752-3.894zM.008 6.18a.363.363 0 0 1 .545-.313l6.76 3.899a1.59 1.59 0 0 0-.023 1.14l-1.905 1.093a1.607 1.607 0 0 0-2.913.687 1.604 1.604 0 0 0 1.367 1.81 1.607 1.607 0 0 0 1.78-1.991l1.945-1.115c.238.285.573.485.955.553l-.006 7.696a.363.363 0 0 1-.546.313L.181 15.46A.362.362 0 0 1 0 15.146l.008-8.968z"/>
</svg>
