<svg xmlns="http://www.w3.org/2000/svg" width="16" height="20" viewBox="0 0 16 20">
    <path fill="#4C6F8C" fill-rule="nonzero" d="M7.828 1.6l-.814.481-.09.046c-1.63.905-3.304 1.9-4.978 2.85l6.063 3.485 6.063-3.485-5.565-3.212-.362-.198v1.374h-.317v-1.34zM1.312 12.884l1.177-.667.135.272-1.179.668.32.191 2.896 1.675 1.402.814.09.045v1.494l-.27-.136-1.901-1.086-3.665-2.127-.227-.136-.09-.045v-9.23l.09-.046.227-.18A611.736 611.736 0 0 0 7.647.135l.272-.09.09-.046.09.045.227.136 7.33 4.253.226.136.09.045v9.231l-.09.045-.226.136-3.665 2.127-1.855 1.086-.226.136v-1.493l.09-.046 1.403-.814 2.624-1.494.604-.34-1.237-.7.135-.272 1.222.693V6.154L8.688 9.638v10.045l-.09.046-.227.135-.271.09-.091.046-.09-.045-.227-.136-.226-.136-.09-.045V9.593L1.312 6.109V12.884zm5.25-2.974l.135.045v.18l-1.267.725-.136-.227 1.267-.723zm-3.304 1.9l1.267-.724.136.226-1.267.724-.136-.226zm6.199-1.9l1.267.723-.136.227-1.267-.724v-.181l.136-.045zm3.303 1.9l-.136.226-1.267-.724.136-.226 1.267.724zM8.145 5.294h-.317V3.801h.317v1.493zm0 2.353l-.136.045-.18-.045V6.154h.316v1.493z"/>
</svg>
