<svg xmlns="http://www.w3.org/2000/svg" width="18" height="20" viewBox="0 0 18 20">
    <path fill="#4C6F8C" fill-rule="nonzero" d="M17.328 15.013L8.651 20 0 15.013v-10L8.651 0l8.677 5.013v10zM12.036 4.35h-6.82l-.763 3.486h8.397l-.814-3.486zM6.438 10.28L4.402 9.008l-2.265 1.704 3.105 5.42h1.247l1.45-1.4v-.686l-1.501-1.45V10.28zm6.412-1.298l-1.985 1.298v2.315l-1.527 1.45v.713l1.476 1.349h1.222l3.104-5.395-2.29-1.73zm-6.412-.636l.738 1.934-.23 2.188 3.385-.025-.204-2.163.713-1.934H6.438z"/>
</svg>
