<svg xmlns="http://www.w3.org/2000/svg" width="18" height="20" viewBox="0 0 18 20">
    <path fill="#4C6F8C" fill-rule="evenodd" d="M16.702 11.543c-.115-.001-.188-.011-.186-.16.008-.47-.002-.939.006-1.408.002-.15-.029-.223-.198-.21-.194.015-.39.007-.584.002-.12-.002-.201.032-.187.169.019.172-.096.15-.206.157-.126.007-.169-.046-.158-.165.006-.073-.001-.148.001-.221.006-.178.124-.298.303-.3a71.87 71.87 0 0 1 1.067 0c.204 0 .32.117.32.322.003.275.001.55.001.825 0 .275-.006.55.003.825.005.143-.06.166-.182.164m-.313 1.395c-.032.064-.088.052-.139.052h-2.032c-.064 0-.15.017-.151-.083-.003-.123-.047-.26.092-.346.176-.11.35-.223.525-.334.249-.156.497-.313.747-.468.103-.063.326.003.378.109.035.071-.021.093-.066.122-.249.157-.497.314-.745.473-.048.03-.092.066-.175.125h1.35c.198 0 .304.175.216.35m-1.691 1.427c-.164.002-.228-.051-.187-.203-.034-.16.026-.212.18-.209.146.003.222.034.221.202 0 .16-.06.207-.214.21m-.96.87c-.15.186-.27.396-.415.614-.206-.31-.415-.596-.59-.9-.103-.178-.024-.392-.003-.608l.458.685c.133.2.134.202.267.002.16-.242.319-.485.5-.762.077.394.003.695-.218.97m-1.166-2.238c.003-.268-.005-.536.003-.803.004-.131-.04-.179-.172-.173-.2.009-.402.007-.603 0-.131-.003-.208.038-.194.182.017.163-.097.138-.197.144-.116.007-.18-.027-.167-.156.007-.073 0-.148.002-.221.005-.19.12-.307.314-.309.354-.002.71-.002 1.064 0 .197.002.35.156.353.353.003.154 0 .308 0 .462 0 .174-.002.348 0 .522.003.147-.092.154-.202.154-.11 0-.202-.01-.2-.155m-1.106 3.776c.147-.004.14.086.14.185 0 .1.005.186-.14.182-.303-.007-.605.001-.907-.004-.07 0-.183.046-.195-.075-.012-.115-.055-.254.07-.335.442-.288.883-.58 1.338-.847.158-.093.245.113.416.166l-1.075.69c.13.068.246.04.353.038m-1.24-1.405c-.087-.011-.118-.035-.09-.127.136-.467.269-.936.4-1.404.026-.093.075-.13.172-.124.14.007.283.012.422-.001.157-.015.23.05.268.197.113.425.23.85.358 1.27.047.153.027.216-.143.183-.16.04-.209-.064-.243-.192-.084-.315-.17-.63-.258-.945-.024-.086-.053-.162-.173-.15-.105.01-.125.068-.147.155-.078.31-.175.616-.248.927-.043.184-.147.232-.318.21m-.5 2.773c-.149.024-.224-.007-.22-.172.003-.157.039-.232.214-.23.173.001.194.085.197.227.003.154-.052.214-.191.175m-.605-3.745c-.09-.198-.209-.381-.318-.576.38-.063.38-.063.552.228.08.138.156.279.239.415.056.094.032.128-.073.14-.185.023-.316-.022-.4-.207m.147 2.5c0 .206-.116.32-.32.324-.067.001-.135-.002-.202 0-.113.005-.212.01-.206-.159.005-.14.041-.222.195-.203.131.016.18-.037.174-.17a7.023 7.023 0 0 1 0-.604c.006-.154-.062-.198-.206-.195-.396.006-.792-.004-1.188.005-.142.003-.184-.045-.184-.185 0-.139.042-.19.184-.183.242.01.484.002.725.002h.705c.206.003.322.117.323.321.002.35.002.698 0 1.047m-.51 2.182c-.126-.01-.183-.036-.176-.172.01-.2.008-.401 0-.602-.005-.124.044-.168.164-.159.11.009.243-.026.24.155v.32c0 .074-.007.15.003.221.025.184-.044.25-.232.237m-1.18-.956c-.092.056-.26.078-.333-.026a3.616 3.616 0 0 1-.396-.712c-.055-.139.117-.047.149-.073.169-.039.246.027.304.155.066.144.156.278.234.417.044.077.145.176.041.24M6.12 16.655c-.214 0-.429-.008-.643.003-.15.007-.165-.074-.156-.188.008-.099-.04-.222.143-.22.435.007.87.005 1.306.001.178-.001.157.118.165.233.009.132-.04.179-.172.173-.214-.008-.429-.002-.643-.002m-1.195-1.653c-.071 0-.19.044-.198-.072-.01-.123-.074-.274.072-.368.422-.27.844-.542 1.27-.806.202-.126.265.106.424.163l-.988.639.014.043c.432 0 .864.002 1.297-.002.129 0 .194.033.202.18.008.17-.036.233-.22.23-.625-.013-1.249-.004-1.873-.007m-.2 1.054c-.152.001-.17-.068-.172-.194-.004-.144.049-.197.187-.17.145-.03.18.038.183.175.005.156-.055.187-.198.189m-.718-2.195c-.175-.268-.355-.533-.521-.806-.12-.197-.032-.42-.016-.644.173.258.35.514.518.776.078.123.13.13.21.002a9.42 9.42 0 0 1 .494-.733c.01.258.084.514-.1.753-.159.206-.294.43-.428.652-.064.107-.107.075-.157 0m-.236 1.185a6.033 6.033 0 0 0-.642.001c-.16.01-.192-.058-.187-.2.004-.128.006-.226.178-.208.112.012.227.002.34.002.108 0 .215.006.322-.001.142-.01.221.014.216.19-.005.17-.065.224-.227.216M2.58 10.575c.01-.327.009-.655 0-.982-.004-.178.113-.142.216-.147.108-.005.2-.005.192.15-.01.167-.003.334-.003.501 0 .16-.008.322.003.481.012.17-.094.157-.205.159-.116 0-.209.004-.203-.162m-.177 2.54c-.235-.01-.47-.004-.705-.003h-.684c-.206-.003-.323-.117-.324-.321a93.167 93.167 0 0 1 0-1.087c.001-.203.078-.28.277-.284.073-.002.147 0 .221 0 .095 0 .194-.016.188.134-.005.12.007.243-.169.227-.128-.011-.16.049-.157.166.007.215.008.43 0 .645-.005.126.047.16.166.159.396-.005.792.003 1.188-.005.142-.003.183.046.183.185 0 .14-.042.19-.184.183m-.741-3.126c-.003.151-.051.21-.195.18-.129.015-.218.008-.22-.165 0-.167.061-.2.21-.198.136.002.208.02.205.183M.886 7.47c.536.007 1.071 0 1.606.005.072 0 .188-.046.201.067.014.11.071.255-.047.337-.269.185-.541.368-.827.525-.129.071-.204-.098-.282-.167-.085-.075.055-.104.098-.146.093-.089.234-.117.352-.256-.395 0-.746-.005-1.097.003-.136.002-.207-.018-.206-.182 0-.16.061-.188.202-.186m.89-1.282c.003-.11-.016-.212.156-.209.475.01.951.009 1.427 0 .175-.002.19.089.194.228.005.143-.046.186-.185.18-.235-.009-.47-.002-.704-.002-.24 0-.483-.008-.723.003-.162.008-.17-.08-.165-.2m1.911 1.499c.264-.17.517-.359.793-.504.179-.093.395-.015.608.004l-.899.585.91.598c-.398.077-.562.044-.87-.16-.178-.118-.359-.232-.54-.346-.093-.059-.1-.115-.002-.177m.352-1.71c.163-.001.204.055.2.208-.005.132-.016.21-.182.205-.149-.004-.213-.046-.183-.193-.013-.127-.01-.22.165-.22m.92 5.687c-.24-.011-.482-.003-.724-.003-.234 0-.47-.004-.704.002-.143.004-.186-.06-.186-.194 0-.135.027-.215.188-.212.476.006.953.008 1.429-.001.168-.004.159.091.16.205 0 .116.005.211-.162.203m-.035-1.254c-.094-.335-.195-.667-.278-1.004-.026-.106-.076-.118-.166-.123-.114-.007-.134.072-.154.148-.088.322-.172.645-.258.967-.04.154-.227.239-.373.175-.059-.026-.033-.066-.024-.1l.405-1.425c.026-.09.078-.133.176-.127.087.007.174.002.261.002.067 0 .135.005.202-.001.123-.012.174.043.206.162.112.42.239.834.352 1.253.02.075.126.18-.028.233-.165.057-.278-.005-.321-.16m-.319-6.117c-.142.008-.22-.015-.217-.192.002-.172.086-.177.213-.174.254.005.51-.004.763.004.082.002.21-.06.231.08.018.125.047.266-.104.357-.319.194-.63.4-.95.593-.263.159-.266.153-.545-.086l.877-.554c-.102-.05-.188-.033-.268-.028m1.12 1.922c-.01.093-.001.187-.001.28 0 .08-.005.161 0 .24.01.138-.007.22-.186.22-.192.002-.18-.102-.178-.228.003-.174.008-.348-.001-.521-.008-.136.033-.186.178-.188.153-.002.203.05.188.197m.244-1.62c.157.243.32.483.47.73.084.138.137.138.22 0 .138-.228.289-.448.434-.671.025-.039.042-.085.113-.088.012.291.047.574-.172.826-.156.18-.274.394-.403.597-.053.083-.081.137-.157.012-.16-.262-.345-.508-.498-.774-.112-.193-.034-.41-.007-.632m1.05-2.48c.102.008.233-.028.233.14.003.503 0 1.005.002 1.508 0 .172-.126.118-.215.124-.093.006-.193.019-.19-.132.007-.254.002-.509.002-.763 0-.241.006-.483-.002-.724-.004-.13.056-.162.17-.153m.441 4.15c.096.028.078.102.074.163-.01.124.043.165.164.16.207-.007.416-.009.623.001.14.007.188-.04.184-.182-.008-.376-.001-.751-.003-1.127 0-.125-.017-.232.177-.23.181 0 .192.084.188.22-.007.222-.002.443-.002.665 0 .228.002.456 0 .684-.002.219-.113.329-.334.33H7.466c-.215-.001-.288-.075-.291-.289v-.181c0-.202.093-.268.286-.213m.636-2.174c.133-.02.208.005.211.171.004.175-.074.19-.215.193-.142.002-.2-.032-.199-.188 0-.16.065-.2.203-.176M7.901 1.67c.015-.17.112-.27.283-.277.188-.009.376-.002.563-.002.182 0 .363-.003.544 0a.29.29 0 0 1 .3.303c.002.342-.006.685.003 1.027.004.144-.064.163-.183.163-.117-.001-.19-.014-.185-.161.01-.255-.002-.51.004-.765.003-.118-.03-.171-.158-.167a9.72 9.72 0 0 1-.643 0c-.116-.003-.18.026-.168.156.016.174-.105.166-.225.17-.149.007-.138-.089-.137-.186.001-.087-.006-.174.002-.261m1.004 2.14c-.192.025-.314-.044-.393-.221-.066-.146-.152-.283-.232-.421-.032-.057-.106-.11-.072-.174.036-.067.123-.02.184-.031.15-.028.238.04.303.173.087.18.187.354.29.525.065.108.033.134-.08.149m.048 4.061c.142-.001.201.03.2.187 0 .159-.062.203-.2.177-.133.018-.21-.002-.214-.17-.003-.173.072-.192.214-.194m-1.217 5.66c-.002-.145.085-.138.184-.138.098 0 .188-.007.183.139-.008.207-.002.414-.002.622 0 .207-.007.415.002.622.007.156-.087.147-.193.15-.11.002-.176-.015-.174-.15.007-.415.006-.83 0-1.244m-.289-5.294c-.234 0-.469-.008-.702.003-.149.007-.18-.056-.178-.189.001-.122.026-.181.166-.18.482.008.964.008 1.445 0 .139-.001.167.054.168.179 0 .13-.026.197-.176.19-.24-.011-.482-.003-.723-.003m-1.432 4.547c.144-.003.198.035.198.19 0 .16-.068.197-.204.174-.134.02-.206-.007-.21-.172-.004-.176.077-.189.216-.192m.595-3.788c.006.094 0 .175-.131.168-.127-.006-.254 0-.38 0h-.281c-.215-.002-.236-.03-.216-.246.008-.085.04-.118.123-.117a35 35 0 0 0 .761 0c.155-.003.12.107.124.195M6.574 12c.003.156-.055.19-.199.19-.146-.001-.214-.026-.212-.198.01-.63.003-1.26.007-1.89 0-.071-.046-.189.065-.201.123-.014.278-.077.37.065.332.508.663 1.018.98 1.536.083.133.025.301.027.454.001.038-.028.057-.065.063-.057.009-.084-.029-.11-.07l-.278-.44-.549-.86-.04.01c0 .446-.006.894.004 1.34m1.809-1.323v.261c0 .242-.047.28-.28.241-.08-.013-.121-.052-.122-.13 0-.255-.003-.51 0-.763.003-.172.14-.102.226-.112.087-.01.181-.015.176.122-.004.127 0 .254 0 .381M9.75 9.113c.003.349.002.698 0 1.046 0 .221-.11.331-.33.334h-.16c-.105.004-.2.012-.197-.147.004-.135.006-.244.189-.216.106.016.14-.041.138-.142a10.523 10.523 0 0 1 0-.624c.006-.147-.048-.204-.197-.202-.383.007-.765-.002-1.147.005-.132.002-.192-.026-.193-.176 0-.152.047-.2.197-.192.234.01.47.003.704.003.228 0 .456-.002.684 0 .193.003.31.119.312.311m.04-5.619c.127-.009.277-.073.378.092.245.398.5.79.75 1.184.124.194.299.37.243.632-.016.072.046.18-.062.207-.11.028-.137-.088-.18-.156-.234-.366-.463-.734-.695-1.1-.024-.038-.054-.072-.11-.145 0 .48-.005.91.002 1.338.003.155-.01.245-.209.242-.187-.002-.2-.083-.198-.231.005-.617 0-1.233.004-1.85.001-.075-.053-.203.076-.213m.91-.736c.227.009.455.012.681-.001.159-.009.188.058.188.2 0 .146-.026.228-.197.208-.119-.013-.24-.002-.36-.002-.107 0-.215-.009-.32.002-.163.017-.219-.036-.221-.208-.003-.186.08-.205.229-.2m1.071 1.238c.002.165-.074.193-.208.172-.137.023-.201-.014-.206-.175-.005-.18.084-.184.219-.189.148-.005.194.041.195.192m.34.535c.55.006 1.098.006 1.647 0 .181-.002.136.12.143.22.008.111-.004.193-.154.188-.274-.01-.549-.003-.823-.003-.268 0-.536-.007-.803.003-.152.005-.161-.078-.154-.19.007-.1-.036-.22.145-.218m.678 3.792c.156-.034.182.046.19.187.009.196-.111.166-.232.175-.143.01-.175-.05-.181-.184-.01-.182.084-.198.223-.178m-1.633-1.347c-.003-.152.05-.192.196-.192.149 0 .174.061.175.19.002.14-.04.203-.184.174-.14.027-.184-.032-.187-.172m-.518 2.549a93.903 93.903 0 0 1 0-1.086c.001-.2.08-.276.28-.28.073-.002.148.007.22-.002.161-.021.192.057.188.199-.004.116-.03.182-.159.165-.135-.019-.174.045-.17.173.009.208.01.416 0 .624-.005.132.043.174.174.172.396-.007.791.004 1.187-.006.15-.003.176.061.176.192 0 .126-.032.182-.17.177-.24-.01-.482-.003-.724-.003-.228 0-.456.002-.684 0-.203-.003-.317-.118-.318-.325m.045 1.498c-.146-.004-.216-.027-.213-.198.004-.173.072-.212.23-.214.16-.003.2.064.176.205.031.157-.031.211-.193.207m-.76.796c.089-.055.343.04.37.135.024.086-.06.099-.102.126-.263.173-.53.338-.796.506-.02.013-.039.031-.104.083.506 0 .954.005 1.403-.002.135-.002.195.031.189.179-.006.136-.015.23-.193.229-.65-.007-1.302-.003-1.953-.003-.08 0-.182.01-.186-.1-.004-.118-.067-.256.08-.346.431-.267.86-.539 1.292-.807m.026-.846c.159.004.205.06.21.214.005.166-.056.22-.211.19-.167.036-.2-.046-.202-.198-.001-.156.042-.21.203-.206m-.2-4.209c-.001-.127.067-.143.165-.136.1.007.233-.034.238.134.005.18.001.36.001.54 0 .168-.002.335.001.501.003.146-.09.155-.2.155-.109 0-.204-.006-.203-.152.002-.348.004-.695-.001-1.042m3.17 4.296c-.32-.006-.642-.002-.964-.002-.182 0-.142-.134-.152-.243-.01-.124.04-.167.162-.161.16.008.322.002.482.002.154 0 .309.007.462-.002.161-.01.148.096.144.198-.004.093.035.21-.134.208m.98.342c0 .187-.007.374.002.561.006.142-.077.147-.18.143-.094-.002-.188.014-.186-.134.005-.381.005-.763 0-1.144-.002-.15.095-.129.188-.133.105-.004.184.005.178.145-.009.187-.002.374-.002.562m.003-3.972c-.149.037-.2-.055-.233-.178-.082-.309-.17-.616-.25-.926-.024-.095-.035-.182-.165-.183-.133-.001-.147.094-.172.183-.09.314-.177.629-.264.943-.025.086-.048.16-.165.167-.24.015-.256-.001-.19-.23.12-.417.24-.833.35-1.251.035-.133.095-.199.236-.174.032.006.067 0 .1 0 .49 0 .489.001.62.47.092.334.178.67.283 1 .052.162.008.208-.15.179m1.645.887c.14-.002.167.055.168.178 0 .132-.028.197-.177.19-.24-.01-.482-.003-.722-.003-.235 0-.47-.008-.703.003-.149.007-.179-.057-.177-.189 0-.123.027-.181.166-.18.482.008.964.008 1.445 0m-.52-.928c.162.002.201.067.205.217.005.167-.055.224-.204.185-.182.04-.202-.053-.208-.199-.005-.163.052-.204.207-.203m-.203-1.798c-.002-.151.099-.134.19-.129.09.005.217-.047.214.125-.002.173 0 .347 0 .521 0 .167-.006.334.002.501.007.164-.103.142-.201.14-.095-.002-.208.031-.205-.136.006-.34.005-.681 0-1.022m1.602 1.015c.065.124.135.246.204.368.066.118.058.178-.103.182-.154.004-.258-.023-.328-.183-.09-.206-.218-.397-.328-.594-.008-.016-.004-.038-.006-.058.382-.042.393-.036.561.285m1.137.064a.78.78 0 0 0-.322-.66c-.91-.668-1.823-1.332-2.734-1.997L11.58 1.87C10.816 1.313 10.053.75 9.286.194c-.37-.268-.675-.254-1.042.025-.218.166-.441.324-.663.486L3.94 3.359C2.759 4.221 1.578 5.084.398 5.948c-.255.187-.402.42-.398.761.013 1.094.005 2.188.005 3.282 0 1.12.002 2.241-.001 3.362-.001.237.075.448.258.585.776.579 1.562 1.144 2.344 1.714.89.649 1.782 1.297 2.671 1.947 1.003.733 2.002 1.47 3.008 2.198.397.287.65.263 1.037-.029.42-.318.849-.626 1.275-.936 1.107-.806 2.215-1.61 3.32-2.416 1.03-.752 2.056-1.51 3.09-2.256.312-.225.56-.47.56-.888-.002-2.202 0-4.403-.002-6.604"/>
</svg>
