<svg xmlns="http://www.w3.org/2000/svg" width="20" height="20" viewBox="0 0 20 20">
    <path fill="#4C6F8C" fill-rule="nonzero" d="M10 0C4.477 0 0 4.477 0 10s4.477 10 10 10 10-4.477 10-10S15.523 0 10 0zM8.032 15.993a2.316 2.316 0 0 1-2.312-2.32c0-1.28 1.035-2.319 2.312-2.319a2.316 2.316 0 0 1 2.313 2.32c0 1.28-1.036 2.319-2.313 2.319zm2.134-6.368a2.319 2.319 0 0 1-3.036 1.24 2.322 2.322 0 0 1 .902-4.458h2.312v.702h-.656c.65.667.838 1.658.478 2.516zm2.805 1.42a2.316 2.316 0 0 1-2.313-2.318c0-1.281 1.036-2.32 2.313-2.32a2.316 2.316 0 0 1 2.312 2.32c0 1.28-1.035 2.319-2.312 2.319zm0-3.934c-.891 0-1.613.723-1.613 1.616 0 .893.723 1.617 1.613 1.617a1.617 1.617 0 0 0 0-3.233zM8.032 7.11c.89 0 1.611.724 1.613 1.617 0 .892-.723 1.616-1.613 1.616S6.42 9.62 6.42 8.726c0-.892.722-1.616 1.612-1.616zm0 4.947a1.617 1.617 0 0 1 0 3.234c-.89 0-1.612-.724-1.612-1.617s.722-1.617 1.612-1.617z"/>
</svg>
