<svg xmlns="http://www.w3.org/2000/svg" width="21" height="20" viewBox="0 0 21 20">
    <path fill="#4C6F8C" fill-rule="evenodd" d="M17.894 7.57c.58 0 1.05.47 1.05 1.05v3.817c0 .579-.47 1.05-1.05 1.05h-4.051c-.292 0-.564.089-.79.241-2.884-1.398-5.325-3.676-6.992-6.541.277-.258.452-.622.452-1.03V2.107c0-.579.471-1.05 1.05-1.05h3.818c.58 0 1.05.471 1.05 1.05v4.052c0 .778.633 1.411 1.412 1.411h4.051zM5.63 7.464c1.687 2.891 4.14 5.202 7.04 6.647-.15.225-.24.496-.24.787v4.05c0 .58-.47 1.051-1.05 1.051H7.564c-.579 0-1.05-.471-1.05-1.05v-4.051c0-.779-.633-1.412-1.412-1.412h-4.05c-.58 0-1.051-.471-1.051-1.05V8.619c0-.579.471-1.05 1.05-1.05h4.051c.187 0 .365-.038.529-.104zm8.785-2.248v-.2c0-6.012 5.946-4.943 5.946-4.943 0 5.945-5.946 5.143-5.946 5.143z"/>
</svg>
