<svg xmlns="http://www.w3.org/2000/svg" width="20" height="20" viewBox="0 0 20 20">
    <path fill="#4C6F8C" fill-rule="evenodd" d="M17.526 9.85c-.165 0-.152-.084-.12-.2.124-.444.243-.89.358-1.31.498.498.994.997 1.502 1.508-.573 0-1.156-.003-1.74.001zm.141.945c-.104.049-.134.007-.172-.09-.195-.499-.182-.523.341-.523h1.001l.014.065c-.395.182-.79.363-1.184.548zm.105.888c-.165-.505-.165-.505.345-.74l.713-.328.017.04-1.075 1.028zm.441 2.917l-1.739-1.002 1.164-1.125.575 2.127zm-2.38.868l.441-1.61c.584.337 1.15.663 1.78 1.028l-2.221.582zm-.32-.039c-.026.104-.081.155-.184.181-.387.098-.773.202-1.15.302l1.639-1.629c-.1.372-.206.758-.305 1.146zm-.72 2.66l-.941-1.623c-.054-.093 0-.133.08-.154l1.44-.377-.58 2.153zm-.62-.254c-.328-.231-.651-.471-.987-.692-.158-.103-.148-.165-.022-.291.343-.342.337-.348.577.07.167.29.332.581.497.872a3.441 3.441 0 0 1-.065.041zm-.385.223l-1.303-.34c-.043-.01-.095-.045-.07-.076.095-.118.2-.233.312-.335.084-.076.151.01.215.055.292.205.582.413.873.62l-.027.076zm-1.908-.509c-.408-.101-.814-.212-1.22-.32l.01-.05c.417-.11.843-.198 1.25-.338.23-.079.348.051.497.15.023.016.048.047.05.074.01.09-.488.509-.587.484zm-1.76 1.841v-1.967l1.567.418-1.568 1.549zm-.346-2.399c-.98-.256-1.958-.518-2.939-.77-.198-.05-.244-.106-.127-.3.379-.63.736-1.271 1.108-1.905.046-.078.059-.244.236-.119 1.22.87 2.446 1.735 3.737 2.649-.651.174-1.227.331-1.805.48-.063.016-.14-.016-.21-.035zm.01 2.39l-1.554-1.55c.456-.121.943-.248 1.43-.38.104-.03.125.014.124.103v1.827zm-1.79-1.826c-.12.033-.172-.042-.236-.106a9.39 9.39 0 0 1-.786-.86l2.237.59.004.052c-.406.107-.814.21-1.22.324zm-2.624.698c.337-.585.639-1.106.939-1.629.055-.096.104-.067.166-.007.344.336.69.67 1.087 1.053l-2.192.583zm-.065-.846c.027-.34.063-.677.077-1.017.009-.198.094-.22.253-.16.077.028.158.052.239.062.206.025.194.116.104.265-.208.343-.405.692-.606 1.04-.152-.018-.073-.117-.067-.19zm-.136-2.565c-.426-.427-.834-.837-1.243-1.245a.503.503 0 0 1-.118-.247c-.263-.978-.526-1.955-.798-2.93-.052-.187-.03-.25.183-.247.735.012 1.47.008 2.205.002.162-.002.248.022.229.217-.141 1.452-.275 2.905-.412 4.357-.001.018-.017.036-.046.093zm-.06.852c-.041.113-.178-.008-.274-.012-.344-.016-.495-.203-.55-.536-.049-.3-.157-.589-.24-.883l.055-.048c.337.345.68.685 1.009 1.037.123.132.049.312 0 .442zm-.053.885l-.06.644c-.048.033.01.16-.114.124l-.362-1.36c.028-.014.046-.032.06-.029.521.104.522.105.476.62zm-3.23-1.694l1.648-.953c.082-.047.137-.074.17.059.121.476.254.95.398 1.48l-2.215-.586zm.437-2.481c.376.373.72.714 1.063 1.057.047.047.126.105.018.169-.547.318-1.094.634-1.686.976l.605-2.202zM.579 10.258l.036-.08h1.76c.111 0 .141.041.11.153-.118.416-.232.834-.34 1.253-.039.156-.099.124-.182.041L.579 10.258zM1.951 8.41c.094-.09.146-.128.2.044.126.39.136.388-.245.562-.233.107-.467.213-.702.315-.024.01-.059-.004-.199-.018.355-.338.652-.62.946-.903zm-.287-2.987c.602.348 1.13.655 1.659.958.12.069.064.127.001.189L2.262 7.628l-.598-2.205zm2.136-.81c.177-.05.246-.028.184.18-.132.444-.247.893-.378 1.375L1.83 5.143c.716-.193 1.344-.359 1.97-.53zm.547.048c.037-.143.096-.225.255-.26.371-.082.736-.192 1.104-.29L4.063 5.705c.087-.315.191-.678.284-1.045zm.74-2.724c.332.573.635 1.099.94 1.623.073.126-.028.14-.104.16-.457.122-.914.24-1.419.371l.584-2.154zm.738.357c.288.197.572.401.867.589.15.095.162.155.028.287-.348.345-.343.353-.58-.06-.137-.241-.267-.486-.4-.73-.017-.073.011-.101.085-.086zm1.637.03c-.185.434-.325.482-.673.236l-.83-.587c.566.062 1.023.25 1.503.35zm1.038.274c.217.103.47.134.797.222-.54.144-.99.268-1.44.384-.222.057-.316-.144-.467-.233.278-.427.612-.611 1.11-.373zM9.772.656v1.95l-1.547-.412L9.772.656zm.132 2.341c.046-.012.102.007.151.02l3.24.861-1.347 2.333L8.09 3.48c.643-.172 1.228-.33 1.814-.483zm.213-2.363l1.55 1.556-1.55.413V.634zm1.928 1.873l.885.848-.055.075-2.201-.583-.019-.05c.406-.107.813-.213 1.218-.322.065-.017.121-.017.172.032zm.477-.21c.637-.163 1.273-.335 1.986-.524l-1.005 1.744L12.48 2.48c-.083-.085-.115-.142.042-.182zm2.076.11c-.036.408-.077.817-.106 1.227-.012.174-.072.235-.245.164-.094-.038-.198-.052-.298-.077-.118-.03-.143-.085-.076-.198.224-.376.44-.757.658-1.137l.067.02zm.071 2.74l1.296 1.297a.458.458 0 0 1 .107.22c.263.977.526 1.954.794 2.93.046.167.06.264-.176.26a65.15 65.15 0 0 0-2.205-.002c-.2.003-.244-.062-.225-.25.139-1.461.27-2.922.41-4.454zm.084-.779a.113.113 0 0 1 .048-.072c.098-.054.674.17.705.28.113.406.219.814.327 1.22-.338-.323-.658-.644-.996-.945-.169-.15-.113-.313-.084-.483zm.075-.89c.018-.267.048-.532.073-.798.067-.038.08.022.106.059l.353 1.299c-.037.015-.056.031-.071.028-.492-.102-.494-.103-.46-.588zm1.258 1.137c.627.17 1.254.338 1.961.528l-1.772 1.026c-.132-.48-.255-.937-.383-1.392-.057-.206.051-.2.194-.162zm1.087 4.666h-.06l-.627-2.316c.36.362.656.66.955.956.084.082.057.164.031.255-.102.368-.2.736-.3 1.105zm-.138 1.795c.026-.15.011-.274.132-.363.036.14.151.289-.132.363zm-.18.602c.05-.221.221-.247.371-.322.023-.011.06-.016.082-.006.104.051.203.679.117.77-.283.297-.571.59-.857.884a10.09 10.09 0 0 1-.054-.048c.116-.425.247-.848.341-1.278zm-4.513 2.176c-.068-.117-.125-.203.056-.285 1.36-.618 2.718-1.245 4.124-1.89-.164.612-.311 1.158-.454 1.706a.618.618 0 0 1-.184.28c-.708.71-1.419 1.418-2.12 2.136-.15.154-.217.154-.325-.041-.356-.641-.728-1.273-1.097-1.906zm-4.145-.518c.18-.45.462-.629.967-.586.636.054 1.281.013 1.996.013-.265.46-.505.866-.736 1.278-.057.1-.178.209-.07.335.121.141.25.02.363-.03.35-.154.696-.316 1.042-.48.101-.048.176-.08.25.052.418.736.844 1.467 1.28 2.226-.339.093-.654.178-.968.267-.116.033-.199-.025-.284-.086-1.257-.89-2.513-1.784-3.775-2.668-.148-.103-.123-.175-.065-.321zM6.47 9.845c-.103-.002-.206-.006-.309 0-.149.01-.168-.069-.152-.19.028-.232.05-.465.084-.79.19.327.329.577.476.822.08.132.024.16-.099.158zm1.065-3.681c.078.133.115.217-.071.301-1.329.601-2.653 1.213-3.979 1.82-.024.012-.054.013-.12.029.165-.61.32-1.197.487-1.78.017-.064.086-.115.136-.167.709-.713 1.42-1.423 2.124-2.14.136-.139.204-.19.323.026.353.645.728 1.277 1.1 1.91zm4.121.582c-.188.41-.45.56-.907.528-.655-.045-1.316-.011-2.028-.011.26-.452.496-.86.729-1.27.064-.112.185-.234.055-.36-.113-.11-.235-.003-.343.045-.349.155-.696.314-1.04.482-.124.06-.191.056-.267-.078a154.75 154.75 0 0 0-1.177-2.04c-.067-.115-.08-.187.078-.208.04-.005.081-.02.119-.036.552-.248.999-.128 1.487.25 1.028.799 2.113 1.525 3.182 2.269.186.129.211.213.112.43zm-3.042-.46c.101-.047.204-.09.384-.167l-.537.948c-.406-.525-.406-.525.153-.782zm4.022 3.52c.094.158.081.273-.008.424-.39.658-.776 1.318-1.146 1.987-.101.183-.218.238-.417.23-.372-.015-.745-.005-1.117-.005-.394 0-.787-.007-1.18.004-.161.004-.262-.036-.346-.187a87.47 87.47 0 0 0-1.178-2.04c-.093-.157-.08-.274.008-.424.394-.667.785-1.336 1.162-2.013.09-.163.196-.204.368-.202.776.007 1.552.01 2.328-.002.183-.002.276.063.362.216.38.676.767 1.347 1.164 2.013zm.757.376c.093-.001.186.004.279-.002.156-.011.234.032.19.21-.053.217 0 .45-.104.72-.165-.285-.305-.531-.45-.776-.06-.104-.033-.151.085-.152zM11.7 13.483c-.136.197-.42.294-.69.319-.008 0-.017-.01-.056-.032l.48-.83c.108.202.354.416.266.543zm.228-1.426c.368-.532.66-1.118 1.007-1.716.261.45.503.869.747 1.286.06.105.104.247.268.198.14-.042.12-.176.13-.287.039-.39.083-.781.11-1.173.01-.15.072-.187.212-.186.776.006 1.551.007 2.327 0 .171-.002.189.064.149.203-.066.227-.132.456-.184.687-.033.146-.111.228-.245.29-1.4.639-2.798 1.28-4.192 1.929-.16.074-.21.022-.309-.103-.304-.382-.307-.715-.02-1.128zm2.22-7.918c.12-.006.246-.03.29.121.006.023-.015.077-.029.08-.156.024-.166-.14-.261-.201zm-2.376 3.045c.251-.526.251-.526.73-.186l.357.256h-1.082c-.003-.03-.013-.054-.005-.07zm1.428.398c.118 0 .269.04.315-.121.045-.159-.103-.21-.198-.28-.31-.224-.622-.448-.94-.66-.13-.087-.149-.156-.066-.294.39-.659.773-1.322 1.147-1.99.098-.175.16-.153.288-.03.649.623.638.619.547 1.519a169.348 169.348 0 0 0-.334 3.71c-.023.293-.077.425-.424.429-.38.003-.594-.11-.768-.45-.31-.605-.673-1.184-1.046-1.832.53 0 1.004.002 1.479-.001zM3.199 8.908c.03-.13.114-.184.221-.233 1.399-.642 2.798-1.283 4.193-1.932.15-.07.21-.045.315.089.305.392.313.73.015 1.153-.368.521-.652 1.1-.998 1.698-.255-.439-.49-.848-.73-1.253-.064-.108-.1-.278-.282-.23-.162.045-.117.199-.13.316-.04.38-.078.76-.113 1.142-.009.097-.008.186-.145.186-.856-.003-1.712-.002-2.591-.002.089-.336.174-.633.245-.934zm-.46 1.73c.225.837.421 1.573.636 2.377-.334-.326-.607-.597-.887-.86-.095-.09-.12-.181-.085-.304.108-.377.21-.755.337-1.214zm-.077-2.95c.212-.178.388-.4.58-.602l.106.039c-.123.45-.233.903-.374 1.347-.046.142-.233.193-.364.202-.148.012-.092-.174-.14-.266-.152-.293-.054-.515.192-.72zm-.633 2.156H1.026l-.011-.06c.395-.182.792-.364 1.187-.55.097-.045.14-.025.184.077.204.483.173.533-.357.533zm6.044 3.078c-.043.07-.09.139-.122.214-.072.172-.156.214-.315.08-.171-.144-.363-.263-.545-.393l.026-.063c.285 0 .57.002.855 0 .129-.001.176.04.101.162zm-1.436-.479c-.102 0-.22-.018-.265.106-.053.142.06.203.153.27.33.232.656.47.99.697.12.08.136.143.06.272-.396.668-.783 1.34-1.163 2.017-.086.152-.136.154-.262.034-.673-.644-.665-.64-.572-1.542.13-1.267.25-2.535.352-3.805.02-.258.109-.302.35-.326.432-.044.672.106.864.498.29.59.65 1.147 1.015 1.779H6.637zM17.614 7.64c-.38-.384-.725-.735-1.073-1.084-.074-.074-.087-.12.02-.18.528-.3 1.052-.605 1.653-.952l-.6 2.216zM19.77 9.8c-.577-.566-1.137-1.15-1.717-1.713-.14-.136-.162-.255-.111-.433.215-.766.402-1.541.634-2.303.095-.316 0-.419-.292-.49-.774-.19-1.54-.41-2.312-.604-.174-.043-.254-.115-.3-.294-.199-.78-.425-1.556-.624-2.337-.062-.241-.167-.294-.398-.23-.778.217-1.56.417-2.338.626-.123.033-.23.065-.34-.048-.64-.66-1.287-1.316-1.932-1.973h-.186c-.64.649-1.283 1.294-1.918 1.948-.114.118-.22.116-.361.078-.769-.209-1.543-.397-2.307-.621-.29-.085-.386.007-.453.272-.193.762-.413 1.517-.608 2.278-.044.174-.117.255-.294.3-.792.2-1.578.427-2.371.621-.275.068-.318.191-.246.442.221.775.421 1.557.641 2.333.051.182.02.301-.117.435C1.264 8.63.73 9.196.167 9.73c-.236.224-.212.362.01.574.554.53 1.08 1.089 1.631 1.622.147.143.181.266.126.46-.213.747-.408 1.497-.61 2.246-.114.423-.111.427.292.534.77.205 1.537.415 2.31.61.165.04.235.115.277.277.194.752.404 1.498.607 2.247.11.405.108.405.499.303.73-.192 1.464-.37 2.188-.585.24-.07.376-.01.537.157.547.566 1.116 1.111 1.66 1.68.194.203.315.186.501-.008.56-.583 1.141-1.145 1.706-1.724.132-.136.248-.167.435-.114.747.21 1.504.383 2.247.605.318.095.42-.008.49-.295.185-.743.399-1.479.587-2.22.05-.194.135-.29.335-.339.793-.198 1.578-.425 2.37-.623.243-.06.292-.163.226-.395-.219-.766-.412-1.539-.632-2.304-.064-.221-.049-.368.132-.54.57-.543 1.112-1.116 1.675-1.667.162-.159.171-.27.004-.432z"/>
</svg>
