<svg xmlns="http://www.w3.org/2000/svg" width="21" height="18" viewBox="0 0 21 18">
    <path fill="#4C6F8C" fill-rule="evenodd" d="M16.758 9.242h1.47l-1.232 3.846-.238-3.846zm-.455-1.187l-.002.045-1.751-3.256 2.003-.878-.25 4.09zm-.934 5.456l-.82-.356 1.754-3.258v.01l.25 4.126-1.184-.522zm-2.526 3.509l1.478-3.419 2.018.878-3.496 2.541zm-.649.238l-2.329-3.19 3.924-.494-1.595 3.684zm-5.127.241L9.419 14.3l2.335 3.2H7.067zM5.03 13.573l3.924.495-2.329 3.19-1.595-3.685zm-2.55.906l2.018-.878 1.478 3.419-3.496-2.541zm.036-4.57v-.011l1.753 3.258-2.004.878.251-4.124zm-.693 3.18L.591 9.241H2.062l-.238 3.846zm0-8.177l.238 3.846H.592l1.232-3.846zm1.626-.423l.82.356L2.519 8.1l-.002-.043-.25-4.09 1.183.522zM5.977.979L4.5 4.4 2.48 3.52 5.977.98zm.649-.236l2.329 3.189-3.924.495L6.626.743zM11.754.5L9.418 3.7 7.067.5h4.687zm2.035 3.925l-3.924-.494 2.329-3.19 1.595 3.684zm-1.168 4.332l1.602-3.473 1.871 3.473h-3.473zm.576 1.763l-.578-1.28h3.475l-1.872 3.475-1.025-2.195zm-2.838 2.215l1.848-3.2 1.63 3.533-3.964.495.486-.828zm-2.138-1.424l-1.197-2.07h4.772l-2.378 4.14-1.197-2.07zm-1.994-.913l.402-.863 2.32 4.029-3.95-.496 1.228-2.67zm-.01-1.157l-1.602 3.473-1.872-3.473h3.474zM5.64 7.53l.575 1.227H2.743l1.871-3.472L5.641 7.53zm2.871-2.335L6.631 8.464 5 4.93l3.949-.495-.437.76zm1.36-.76l3.966.495-1.631 3.534-2.335-4.03zm.726 2.251l1.198 2.071H7.024l2.394-4.14 1.18 2.07zm5.74-3.166l-2.017.878-1.478-3.42 3.496 2.542zm.658 1.39l1.233 3.847h-1.47l.237-3.846zm3.701 12.669l-.007-.01-3.575-3.232 1.7-5.255.005-.015v-.136l-1.74-5.41a.12.12 0 0 0-.015-.042v-.014l-.048-.047a.115.115 0 0 0-.063-.057L12.374.02 12.347 0h-5.79c-.033 0-.04.005-.113.057l-.15.106-.528.38-1.598 1.153-2.32 1.677-.006.005-.088.088v.061L.005 8.917 0 8.931v.136l1.755 5.405a.135.135 0 0 0 .04.1l.048.049 4.569 3.304a.11.11 0 0 0 .088.056c.02.012.044.018.068.018h5.744l.02-.02a.119.119 0 0 0 .036-.015h.004l4.444-3.22 3.517 3.192c.023.022.05.039.081.049a.32.32 0 0 0 .187 0 .175.175 0 0 0 .095-.08.234.234 0 0 0 .053-.157c0-.06-.018-.12-.052-.17z"/>
</svg>
