<svg xmlns="http://www.w3.org/2000/svg" width="26" height="20" viewBox="0 0 26 20">
    <path fill="#4C6F8C" fill-rule="nonzero" d="M25.294 17.136c.263 0 .477.214.477.478V20l-8.088-.003-.028-2.07a.466.466 0 0 1 .167-.36.443.443 0 0 1 .114-.115 9.008 9.008 0 0 0 3.972-7.477C21.908 5 17.861.952 12.885.952S3.862 4.999 3.862 9.975a9.031 9.031 0 0 0 3.831 7.38c.05.035.087.08.119.127a.478.478 0 0 1 .301.447L8.086 20H0v-2.386a.478.478 0 0 1 .954 0v1.431h6.19l.012-.902-.012-.005a9.99 9.99 0 0 1-4.236-8.16C2.908 4.477 7.384 0 12.885 0c5.502 0 9.978 4.477 9.978 9.978a9.96 9.96 0 0 1-4.248 8.163l.012.904h6.19v-1.431c0-.264.213-.478.477-.478zm-6.376-6.468c1.063 1.316 1.392 2.482.928 3.283-.352.61-1.116.931-2.207.931-.608 0-1.302-.101-2.046-.288-.588 2.042-1.56 3.355-2.682 3.355-1.121 0-2.094-1.313-2.682-3.355-.743.187-1.437.288-2.045.288-1.092 0-1.855-.322-2.207-.93-.56-.97.091-2.467 1.568-3.995-.232-.24-.445-.48-.638-.718-1.062-1.315-1.393-2.48-.93-3.282.353-.609 1.115-.93 2.208-.93.608 0 1.302.1 2.045.287.588-2.042 1.56-3.355 2.683-3.355 1.121 0 2.094 1.313 2.682 3.355.743-.187 1.437-.288 2.045-.288 1.091 0 1.855.322 2.207.93.463.802.134 1.968-.93 3.283-.192.238-.405.477-.635.715.23.237.444.476.636.714zM17.64 5.621c-.56 0-1.204.094-1.895.268.162.681.284 1.43.358 2.226a16.34 16.34 0 0 1 1.754 1.422c.217-.225.416-.448.597-.672.883-1.094 1.204-2.046.877-2.61-.303-.525-1.087-.634-1.69-.634zm-3.389 6.648c.446-.257.875-.526 1.284-.807a19.815 19.815 0 0 0 0-3.019 19.63 19.63 0 0 0-2.622-1.51c-.446.213-.894.447-1.34.704-.455.263-.882.532-1.282.804a20.506 20.506 0 0 0 0 3.021 19.734 19.734 0 0 0 2.622 1.51c.445-.212.893-.447 1.338-.703zm1.21-.042a19.668 19.668 0 0 1-1.846 1.063c.533.228 1.058.42 1.563.572.117-.5.212-1.048.283-1.635zm-3.25 1.064a20.286 20.286 0 0 1-1.846-1.063c.07.587.166 1.134.283 1.636.505-.154 1.03-.346 1.563-.573zm-2.544-2.276a19.838 19.838 0 0 1 0-2.129c-.476.355-.902.711-1.278 1.063.386.362.815.719 1.278 1.066zm.697-3.335c.293-.19.597-.377.91-.558.312-.179.623-.347.936-.506a15.256 15.256 0 0 0-1.563-.571 15.059 15.059 0 0 0-.283 1.635zm3.25-1.064A20.618 20.618 0 0 1 15.46 7.68a15.327 15.327 0 0 0-.282-1.635c-.505.153-1.03.345-1.563.572zm2.545 2.276a20.726 20.726 0 0 1 0 2.123c.461-.345.888-.701 1.273-1.061-.385-.36-.812-.716-1.273-1.062zm-3.246-6.337c-.781 0-1.594 1.083-2.117 2.915.68.205 1.395.478 2.117.808a16.605 16.605 0 0 1 2.117-.808c-.523-1.831-1.337-2.915-2.117-2.915zm-6.419 3.7c-.326.564-.006 1.516.877 2.61.18.224.38.448.598.673.51-.481 1.098-.96 1.753-1.423.075-.798.196-1.546.358-2.226-.69-.174-1.334-.268-1.895-.268-.605 0-1.388.11-1.691.633zm1.69 8.031c.562 0 1.205-.094 1.897-.266a16.126 16.126 0 0 1-.358-2.227 16.426 16.426 0 0 1-1.76-1.426c-1.325 1.368-1.859 2.612-1.469 3.287.303.523 1.086.632 1.69.632zm4.729 3.067c.78 0 1.593-1.084 2.117-2.916a16.413 16.413 0 0 1-2.117-.807 16.57 16.57 0 0 1-2.117.808c.523 1.83 1.337 2.915 2.117 2.915zm6.418-3.7c.327-.565.007-1.517-.877-2.61a10.08 10.08 0 0 0-.597-.672c-.517.486-1.109.965-1.754 1.421a16.22 16.22 0 0 1-.358 2.227c.69.174 1.334.267 1.895.267.604 0 1.388-.11 1.69-.633zm-6.418-5.961a2.266 2.266 0 0 1 2.266 2.262 2.266 2.266 0 0 1-4.532 0 2.266 2.266 0 0 1 2.266-2.262zm0 3.93c.92 0 1.669-.75 1.67-1.668a1.67 1.67 0 0 0-3.34 0c0 .919.75 1.667 1.67 1.667z"/>
</svg>
