<svg xmlns="http://www.w3.org/2000/svg" width="20" height="20" viewBox="0 0 20 20">
    <path fill="#4C6F8C" fill-rule="evenodd" d="M18.126 10a8.08 8.08 0 0 0-1.313-4.42L20 2.395 17.606 0 14.42 3.187A8.081 8.081 0 0 0 10 1.874a8.081 8.081 0 0 0-4.42 1.313L2.395 0 0 2.394 3.187 5.58A8.081 8.081 0 0 0 1.874 10c0 1.631.485 3.147 1.313 4.42L0 17.605 2.394 20l3.187-3.187A8.082 8.082 0 0 0 10 18.126a8.081 8.081 0 0 0 4.42-1.313L17.605 20 20 17.606l-3.187-3.187A8.08 8.08 0 0 0 18.126 10M5.24 10A4.764 4.764 0 0 1 10 5.241 4.764 4.764 0 0 1 14.759 10c0 .69-.152 1.346-.417 1.938l-3.14-3.14-2.404 2.404 3.14 3.14c-.609.274-1.27.416-1.938.417A4.764 4.764 0 0 1 5.241 10"/>
</svg>
