<svg xmlns="http://www.w3.org/2000/svg" width="14" height="20" viewBox="0 0 14 20">
    <path fill="#4C6F8C" fill-rule="evenodd" d="M12.417 6.451c.485 1.485.715 3.055.653 4.615H8.91a4.96 4.96 0 0 0 .023-.624c-.044-1.471-.5-2.914-1.22-4.192C6.943 4.881 5.87 3.7 4.648 2.72 3.318 1.65 1.82.806.26.124.174.084.083.052 0 .006h8.161c.098-.03.15.06.213.11a14.904 14.904 0 0 1 2.059 2.39 15.116 15.116 0 0 1 1.984 3.945zm-9.397.882c1.396 2.51 2.79 5.02 4.181 7.533.335.606.674 1.21 1.006 1.817C6.476 17.785 4.75 18.897 3.019 20c.001-4.222.002-8.445.001-12.667z"/>
</svg>
