<svg xmlns="http://www.w3.org/2000/svg" width="22" height="19" viewBox="0 0 22 19">
    <path fill="#4C6F8C" fill-rule="evenodd" d="M19.37 11.182c-.72 3.028-2.55 5.165-5.546 6.171-4.991 1.677-9.746-1.25-11.004-5.622-.06-.211-.014-.343.127-.495 1.126-1.217 2.463-2.143 3.988-2.812 1.975-.864 4.048-1.318 6.206-1.411.127.01.283-.12.374.072-.605.598-1.206 1.202-1.82 1.792-.145.139-.14.217.005.341.188.162.364.338.53.52.111.121.179.098.286-.006 1.1-1.068 2.204-2.133 3.314-3.192.128-.122.107-.184-.008-.295-.698-.675-1.366-1.382-2.088-2.03-.59-.53-1.14-1.097-1.712-1.642-.113-.107-.18-.147-.302-.01-.178.199-.375.38-.57.564-.088.081-.113.139-.012.237.82.8 1.635 1.605 2.473 2.43C9.477 6 5.667 7.049 2.543 9.958a4.921 4.921 0 0 1 0-1.184c.44-3.48 2.318-5.884 5.66-7.133 1.652-.617 3.361-.64 5.064-.169 3.03.839 4.972 2.78 5.949 5.694.085.253.05.428-.138.629-1.617 1.722-3.612 2.814-5.885 3.462a19.647 19.647 0 0 1-4.749.75c.003-.117.105-.163.171-.229.564-.557 1.127-1.115 1.699-1.664.13-.124.146-.199.002-.322a8.092 8.092 0 0 1-.573-.561c-.092-.096-.15-.088-.241.002a969.326 969.326 0 0 1-3.289 3.227c-.1.098-.104.163-.002.263a933.588 933.588 0 0 1 3.797 3.728c.113.112.174.082.258-.014.213-.243.628-.425.624-.703-.004-.222-.38-.443-.597-.657-.62-.612-1.243-1.22-1.926-1.89 2.098-.077 4.083-.41 6-1.066 1.926-.66 3.652-1.66 5.153-3.11a6.567 6.567 0 0 1-.15 2.17m2.317-6.32c-.324-.162-.66-.037-.84.324-.189.378-.388.75-.65 1.143-.06-.142-.106-.25-.15-.359a9.05 9.05 0 0 0-2.067-3.107C15.612.552 12.748-.368 9.464.132 6.06.653 3.672 2.6 2.147 5.565c-.863 1.679-1.058 3.5-.768 5.363a.517.517 0 0 1-.108.434 10.874 10.874 0 0 0-1.19 1.936c-.174.36-.06.702.27.846.316.138.629 0 .806-.35.19-.373.384-.745.645-1.118.254.535.484 1.045.782 1.53 2.383 3.874 6.75 5.642 11.172 4.405 4.667-1.306 7.597-5.804 6.869-10.547a.538.538 0 0 1 .12-.453c.457-.598.846-1.238 1.171-1.913.17-.35.076-.682-.23-.836"/>
</svg>
