<svg xmlns="http://www.w3.org/2000/svg" width="19" height="20" viewBox="0 0 19 20">
    <path fill="#4C6F8C" fill-rule="evenodd" d="M12.23.538a4.223 4.223 0 0 0-2.093 3.636c0 .772.31 1.55.698 2.244.31.62.462 1.702-.62 2.244-.772.462-1.782.154-2.244-.62-.462-.62-1.004-1.24-1.702-1.702a4.059 4.059 0 0 0-4.179 0A4.227 4.227 0 0 0 0 9.98c0 1.471.772 2.865 2.09 3.639a4.059 4.059 0 0 0 4.179 0c.698-.388 1.24-1.004 1.624-1.702.31-.542 1.162-1.24 2.244-.62.772.462 1.004 1.472.62 2.244-.388.698-.62 1.472-.62 2.244 0 1.472.772 2.864 2.092 3.636a4.059 4.059 0 0 0 4.179 0 4.223 4.223 0 0 0 2.092-3.636 4.22 4.22 0 0 0-2.092-3.638c-.698-.388-1.472-.542-2.322-.542-.699 0-1.625-.462-1.625-1.625 0-.93.698-1.624 1.625-1.624.772 0 1.624-.154 2.322-.542A4.223 4.223 0 0 0 18.5 4.178c0-1.47-.774-2.864-2.092-3.636C15.788.154 15.016 0 14.318 0c-.694-.004-1.472.154-2.088.538"/>
</svg>
