<svg xmlns="http://www.w3.org/2000/svg" width="22" height="12" viewBox="0 0 22 12">
    <g fill="#4C6F8C" fill-rule="nonzero">
        <path d="M12.964 6.68l-1.973 3.61-2.53-4.568v-.018l-.51-.886-.577.904L11 11.937l3.616-6.215-.566-.904z"/>
        <path d="M11 0l-.444.672-2.049 3.26.52.93L11 1.882l1.936 2.982.528-.976-1.718-2.732z"/>
        <path d="M11 1.773c-6.071 0-11 4.29-11 4.299 0 0 4.929 4.298 11 4.298s11-4.298 11-4.298c0 .009-4.929-4.299-11-4.299zm0 7.648C6.27 9.42.925 6.08.925 6.07c0 0 5.345-3.349 10.075-3.349 4.73 0 10.075 3.269 10.075 3.35-.01.08-5.354 3.349-10.075 3.349z"/>
    </g>
</svg>
