<svg xmlns="http://www.w3.org/2000/svg" width="18" height="18" viewBox="0 0 18 18">
    <path fill="#4C6F8C" fill-rule="evenodd" d="M3 0h12a3 3 0 0 1 3 3v12a3 3 0 0 1-3 3H3a3 3 0 0 1-3-3V3a3 3 0 0 1 3-3zm10.997 6.045c-.057-1.003-.622-1.774-1.656-1.95a6.54 6.54 0 0 0-2.314.017c-1.964.387-3.57 2.182-3.691 4.03 1.594.078 3.13.182 4.666.215.52.01 1.066-.09 1.56-.257.956-.323 1.486-1.142 1.435-2.055zM5.543 9.701c-1.025.2-1.587 1.116-1.54 2.046.054 1.07.687 1.85 1.797 2.013.676.1 1.397.098 2.07-.02 1.937-.337 3.607-2.122 3.822-4.003-1.006-.082-1.952-.213-2.899-.22-1.085-.007-2.194-.022-3.25.184z"/>
</svg>
