<svg xmlns="http://www.w3.org/2000/svg" width="19" height="20" viewBox="0 0 19 20">
    <g fill="none" fill-rule="evenodd">
        <path fill="#4C6F8C" d="M17.977 2.657a11.929 11.929 0 0 0-.348-1.665c-.212-.72-.346-.83-.413-.877L17.21.11c-.065-.046-.201-.142-.965-.1-.498.029-1.091.11-1.67.23-1.464.305-2.539.78-3.182 1.127-1.217.654-2.14 1.491-2.745 2.489-.787 1.3-1.54 2.593-2.191 3.735-1.687-.245-4.027.207-6.361 3.2-.12.155-.18.389.147.287.75-.233 2.26-.497 4.097.287l-.039.068c-.149.26-.329.658-.162 1.09.1.262.309.496.689.775a2.59 2.59 0 0 0-.366.42c-.02.028-.037.058-.056.088-1.43 2.111-1.67 4.45-.522 5.263 1.148.815 3.254-.2 4.746-2.268.021-.027.044-.053.064-.081a2.6 2.6 0 0 0 .271-.494c.415.29.718.418 1.008.426H10c.175 0 .348-.047.5-.135a1.68 1.68 0 0 0 .444-.387c.023-.027.05-.06.083-.097 1.393 1.46 1.658 2.975 1.691 3.756.014.338.213.205.318.042 2.067-3.23 1.639-5.584.806-7.06.845-.996 1.795-2.133 2.74-3.305 1.737-2.153 1.62-5.19 1.395-6.809"/>
        <path fill="#FFF" d="M8.384 15.933c-1.05 1.423-2.526 2.127-3.326 1.574-.8-.554-.622-2.158.386-3.61.013-.02.024-.04.039-.06l.036-.05.09.064 1.312.928.05.035 1.473 1.043-.014.02c-.015.02-.03.038-.046.056M14.682 3.845l-.003-.002a2.612 2.612 0 0 0-4.116 2.132 2.616 2.616 0 0 0 3.06 2.584 2.594 2.594 0 0 0 1.69-1.07 2.618 2.618 0 0 0-.631-3.644"/>
    </g>
</svg>
