<svg xmlns="http://www.w3.org/2000/svg" width="18" height="20" viewBox="0 0 18 20">
    <g fill="#4C6F8C" fill-rule="evenodd">
        <path d="M16.15 15.467a1.308 1.308 0 0 1-1.447-1.327c.004-.134-.04-.205-.155-.27-.708-.402-1.412-.81-2.115-1.219-.076-.044-.13-.042-.207.003-.532.321-1.088.364-1.66.118a.444.444 0 0 0-.325-.012c-.26.073-.528.125-.795.172-.1.018-.154.041-.154.157.003 1.297.003 2.596 0 3.894 0 .092.042.135.117.173.557.286.765.858.707 1.29-.085.64-.484 1.054-1.092 1.173-.69.135-1.405-.39-1.513-1.086-.092-.6.247-1.16.698-1.377.086-.04.115-.094.115-.189a1004.45 1004.45 0 0 1 0-4.009c0-.101-.032-.153-.127-.192-.168-.068-.327-.158-.494-.229a.309.309 0 0 0-.187-.024 2.291 2.291 0 0 1-1.649-.132c-.09-.042-.156-.034-.238.014-.853.495-1.706.989-2.563 1.476-.116.066-.154.14-.153.273.007.737-.554 1.329-1.292 1.334-.84.007-1.36-.697-1.328-1.385.028-.586.531-1.262 1.358-1.24.248.006.476.092.689.22.045.028.132.033.176.008.807-.46 1.61-.925 2.415-1.39.012-.006.022-.017.037-.03-.659-1.124-.557-2.154.348-3.113l-.404-.234C4.124 7.86 3.336 7.407 2.55 6.95c-.091-.054-.153-.05-.243.008a1.314 1.314 0 0 1-2-.883 1.304 1.304 0 0 1 1.095-1.517A1.292 1.292 0 0 1 2.89 5.612c.01.07.032.144.022.213-.025.172.047.263.196.347 1.045.593 2.083 1.198 3.127 1.793.071.041.17.045.257.047.036 0 .059-.003.093-.002.354 0 .591-.12.846-.33.22-.183.498-.297.758-.428.086-.044.135-.08.135-.186a705.885 705.885 0 0 1 0-4.024c0-.11-.055-.148-.135-.191-.52-.284-.735-.79-.692-1.245.057-.59.377-.996.95-1.17a1.302 1.302 0 0 1 1.567.738 1.287 1.287 0 0 1-.527 1.635c-.159.092-.198.19-.197.36.006 1.216.003 2.433.003 3.65 0 .231 0 .23.225.259.666.083 1.25.345 1.736.813.074.072.125.083.218.03 1.03-.6 2.062-1.196 3.097-1.788.102-.059.134-.124.133-.238-.008-.673.403-1.185 1.058-1.33.746-.165 1.493.404 1.557 1.166a1.308 1.308 0 0 1-1.075 1.412 1.26 1.26 0 0 1-.947-.195c-.08-.054-.136-.053-.218-.006a632.8 632.8 0 0 1-3.06 1.764c-.1.057-.12.113-.071.218.063.132.512.85.608.953.49.525.628 1.134.425 1.818-.032.107-.018.16.081.216.674.384 1.345.772 2.015 1.163.089.052.149.038.232-.013.791-.489 1.77-.08 1.986.823.18.755-.37 1.501-1.144 1.583m.65-2.697c-.094-.053-.12-.115-.12-.217.003-1.695.003-3.39 0-5.086 0-.11.033-.168.129-.225.52-.312.79-.776.806-1.397-.007-.093-.005-.2-.027-.302-.237-1.095-1.413-1.625-2.383-1.072-.102.058-.174.055-.272-.002a882.863 882.863 0 0 0-4.29-2.474c-.156-.089-.23-.173-.23-.373 0-.09-.014-.131-.023-.198C10.286.705 9.604.104 8.876.09A1.616 1.616 0 0 0 7.2 1.72c0 .105-.035.164-.124.215-1.477.85-2.953 1.7-4.428 2.554-.076.044-.132.046-.208-.002a1.525 1.525 0 0 0-1.06-.222c-.698.1-1.235.609-1.353 1.303-.118.699.172 1.322.789 1.68.093.054.12.114.12.216-.003 1.695-.004 3.39 0 5.086 0 .12-.043.177-.14.234-.615.362-.894 1.004-.765 1.69a1.599 1.599 0 0 0 2.403 1.063c.081-.049.144-.049.224-.002 1.48.855 2.959 1.71 4.44 2.561.077.045.101.098.103.185.003.127.012.258.04.383.181.813.922 1.34 1.76 1.255.786-.08 1.415-.79 1.414-1.605 0-.116.037-.18.137-.237 1.46-.839 2.92-1.681 4.377-2.525.098-.056.17-.067.274-.004.34.209.717.268 1.105.194a1.606 1.606 0 0 0 1.29-1.306 1.6 1.6 0 0 0-.798-1.665"/>
        <path d="M11.645 9.95c.434.247.684.782.598 1.227-.111.576-.49.976-1.024 1.06a1.172 1.172 0 0 1-.817-.14c-.113-.07-.201-.062-.317-.014-.744.313-1.465.26-2.15-.17a.325.325 0 0 0-.307-.035c-.965.315-1.969-.232-2.214-1.195-.28-1.103.6-2.17 1.73-2.12.207.018.31-.051.461-.192.653-.607 1.424-.795 2.27-.514.832.277 1.347.868 1.518 1.735.034.17.1.272.252.358zm4.368 3.846c.204.001.378.17.38.37.003.192-.184.378-.377.378a.37.37 0 0 1-.371-.376c0-.216.155-.373.368-.372zM8.809 2.072a.387.387 0 0 1-.375-.377c0-.209.164-.37.375-.37.21 0 .372.16.373.37 0 .202-.175.38-.373.377zM1.605 13.796c.212 0 .367.158.366.374a.37.37 0 0 1-.372.374.399.399 0 0 1-.376-.38c-.001-.196.177-.368.382-.368zm7.208 4.16c.21.002.37.162.37.37a.362.362 0 0 1-.378.363.366.366 0 1 1 .008-.732zM1.596 5.486c.22-.003.372.143.375.36a.35.35 0 0 1-.362.372.372.372 0 0 1-.386-.36.37.37 0 0 1 .373-.372zm14.412.733a.352.352 0 0 1-.363-.373c.002-.216.155-.363.375-.36a.37.37 0 0 1 .373.372.372.372 0 0 1-.385.36z"/>
    </g>
</svg>
