<svg xmlns="http://www.w3.org/2000/svg" width="22" height="9" viewBox="0 0 22 9">
    <g fill="#4C6F8C" fill-rule="evenodd">
        <path d="M4.36 2.81a.805.805 0 1 0 0-1.611.805.805 0 0 0 0 1.61"/>
        <path d="M15.969 8.305c-2.489-.015-4.905-1.108-7.02-2.762 2.402-2.086 4.833-4.474 7.696-4.474 5.581 0 5.725 7.279-.676 7.236m.748-8.156c-3.28 0-5.984 2.632-8.43 4.818-.704-.618-1.495-1.38-2.1-2.1-.057-.072-.143-.086-.186-.057a.123.123 0 0 0-.015.187c.561.69 1.31 1.525 2.014 2.23-1.31 1.236-3.308 2.732-4.92 2.732-3.25 0-3.265-4.502-.417-5.35.13-.03.13-.188 0-.144-3.725.92-3.524 6.17.49 6.17 1.913 0 3.667-1.28 5.437-2.79 1.913 1.726 4.33 3.136 7.436 3.136 7.883 0 7.653-8.832.691-8.832"/>
    </g>
</svg>
