<svg xmlns="http://www.w3.org/2000/svg" width="18" height="18" viewBox="0 0 18 18">
    <g fill="#4C6F8C" fill-rule="evenodd">
        <path d="M1.945 4.797h.022-.002a2.738 2.738 0 0 0 2.747-2.73c0-1.069.87-1.934 1.944-1.934C7.73.133 8.6.998 8.6 2.066S7.73 4 6.656 4h-.021.001A2.739 2.739 0 0 0 3.89 6.73c0 1.509 1.23 2.731 2.746 2.731 1.074 0 1.944.866 1.944 1.934 0 1.067-.87 1.933-1.944 1.933a1.939 1.939 0 0 1-1.944-1.933c0-1.509-1.23-2.731-2.747-2.731A1.939 1.939 0 0 1 .001 6.73c0-1.068.87-1.933 1.944-1.933z"/>
        <path d="M11.332 9.404l-.021.002.001-.002a2.738 2.738 0 0 1-2.746-2.73c0-1.068-.87-1.934-1.945-1.934a1.939 1.939 0 0 0-1.944 1.934c0 1.068.87 1.933 1.944 1.933l.021-.001v.001a2.739 2.739 0 0 1 2.746 2.73c0 1.509-1.23 2.731-2.747 2.731a1.939 1.939 0 0 0-1.944 1.933c0 1.068.87 1.934 1.944 1.934A1.939 1.939 0 0 0 8.586 16c0-1.508 1.23-2.73 2.746-2.73a1.939 1.939 0 0 0 1.944-1.933c0-1.068-.87-1.934-1.944-1.934z"/>
        <path d="M8.572 16.017v-.02a2.738 2.738 0 0 1 2.73-2.746c1.069 0 1.934-.87 1.934-1.945a1.939 1.939 0 0 0-1.933-1.944c-1.068 0-1.933.87-1.933 1.944v.022-.001a2.739 2.739 0 0 1-2.73 2.746 2.738 2.738 0 0 1-2.731-2.746 1.939 1.939 0 0 0-1.934-1.945c-1.067 0-1.933.87-1.933 1.945 0 1.073.866 1.944 1.933 1.944 1.508 0 2.73 1.23 2.73 2.746 0 1.074.867 1.945 1.934 1.945 1.068 0 1.933-.871 1.933-1.945zM13.238 1.998l-.001.021v-.001a2.738 2.738 0 0 0 2.731 2.746c1.068 0 1.934.87 1.934 1.945a1.939 1.939 0 0 1-1.934 1.944 1.939 1.939 0 0 1-1.933-1.944l.001-.021a2.739 2.739 0 0 0-2.731-2.746 2.738 2.738 0 0 0-2.73 2.747A1.939 1.939 0 0 1 6.64 8.633a1.939 1.939 0 0 1-1.933-1.944c0-1.074.865-1.945 1.933-1.945 1.508 0 2.73-1.23 2.73-2.746 0-1.074.866-1.944 1.934-1.944 1.067 0 1.933.87 1.933 1.944z"/>
    </g>
</svg>
