<svg xmlns="http://www.w3.org/2000/svg" width="22" height="14" viewBox="0 0 22 14">
    <path fill="#4C6F8C" fill-rule="evenodd" d="M18.906 7.289c-.064.13-.256.348-.256.348l-2.71 2.892-3.499-3.654 3.444-3.707s1.984 2.019 2.893 3.103c.077.096.168.185.207.304.083.235.03.497-.079.714zm-12.82 3.278s-2.14-2.244-3.168-3.402c-.16-.186-.106-.478.043-.653.626-.7 3.131-3.34 3.131-3.34l3.49 3.64-3.496 3.755zm15.824-3.99a1.118 1.118 0 0 0-.215-.296C19.793 4.167 15.922 0 15.922 0l-4.917 5.281L6.025.05S2.109 4.253.19 6.39c-.25.242-.25.678-.026.936.997 1.115 5.894 6.42 5.894 6.42l4.94-5.318 4.905 5.322 5.917-6.43s.125-.126.152-.212c.058-.176.017-.37-.063-.532z"/>
</svg>
