<svg xmlns="http://www.w3.org/2000/svg" width="20" height="16" viewBox="0 0 20 16">
    <path fill="#4C6F8C" fill-rule="evenodd" d="M5.311 6.612a63.756 63.756 0 0 1 8.918-.001l-.227 3.564c-.31-.015-.6-.026-.888-.043a55.827 55.827 0 0 0-6.68.001c-.24.015-.48.044-.72.039-.073-.001-.205-.089-.209-.144-.082-1.102-.149-2.204-.218-3.306-.001-.025.01-.051.024-.11zm2.636 6.226c1.257.007 2.514.007 3.77.01.016 0 .032.014.077.035L11.692 16h-3.82c-.02-.486-.044-.974-.06-1.462-.016-.49-.023-.98-.035-1.47-.003-.122-.01-.23.17-.23zM0 .828c6.532-1.11 13.03-1.097 19.562 0l-.607 4.177a3.054 3.054 0 0 0-.053.012c-.192-.404-.39-.806-.571-1.214-.07-.157-.17-.222-.34-.245-3.017-.416-6.047-.641-9.094-.587a64.23 64.23 0 0 0-6.773.497c-.468.058-.736.237-.928.642-.154.326-.36.63-.576 1.002L0 .828z"/>
</svg>
