<svg xmlns="http://www.w3.org/2000/svg" width="32" height="32" viewBox="0 0 32 32">
    <g fill="#4C6F8C" fill-rule="evenodd">
        <path d="M9.945 11.797h.022-.002a2.738 2.738 0 0 0 2.747-2.73c0-1.069.87-1.934 1.944-1.934 1.074 0 1.944.865 1.944 1.933S15.73 11 14.656 11h-.021.001a2.739 2.739 0 0 0-2.746 2.73c0 1.509 1.23 2.731 2.746 2.731 1.074 0 1.944.866 1.944 1.934 0 1.067-.87 1.933-1.944 1.933a1.939 1.939 0 0 1-1.944-1.933c0-1.509-1.23-2.731-2.747-2.731a1.939 1.939 0 0 1-1.944-1.933c0-1.068.87-1.933 1.944-1.933z"/>
        <path d="M19.332 16.404l-.021.002.001-.002a2.738 2.738 0 0 1-2.746-2.73c0-1.068-.87-1.934-1.945-1.934a1.939 1.939 0 0 0-1.944 1.934c0 1.068.87 1.933 1.944 1.933l.021-.001v.001a2.739 2.739 0 0 1 2.746 2.73c0 1.509-1.23 2.731-2.747 2.731a1.939 1.939 0 0 0-1.944 1.933c0 1.068.87 1.934 1.944 1.934A1.939 1.939 0 0 0 16.586 23c0-1.508 1.23-2.73 2.746-2.73a1.939 1.939 0 0 0 1.944-1.933c0-1.068-.87-1.934-1.944-1.934z"/>
        <path d="M16.572 23.017v-.02a2.738 2.738 0 0 1 2.73-2.746c1.069 0 1.934-.87 1.934-1.945a1.939 1.939 0 0 0-1.933-1.944c-1.068 0-1.933.87-1.933 1.944v.022-.001a2.739 2.739 0 0 1-2.73 2.746 2.738 2.738 0 0 1-2.731-2.746 1.939 1.939 0 0 0-1.934-1.945c-1.067 0-1.933.87-1.933 1.945 0 1.073.866 1.944 1.933 1.944 1.508 0 2.73 1.23 2.73 2.746 0 1.074.867 1.945 1.934 1.945 1.068 0 1.933-.871 1.933-1.945zM21.238 8.998l-.001.021v-.001a2.738 2.738 0 0 0 2.731 2.746c1.068 0 1.934.87 1.934 1.945a1.939 1.939 0 0 1-1.934 1.944 1.939 1.939 0 0 1-1.933-1.944l.001-.021a2.739 2.739 0 0 0-2.731-2.746 2.738 2.738 0 0 0-2.73 2.747 1.939 1.939 0 0 1-1.934 1.944 1.939 1.939 0 0 1-1.933-1.944c0-1.074.865-1.945 1.933-1.945 1.508 0 2.73-1.23 2.73-2.746 0-1.074.866-1.944 1.934-1.944 1.067 0 1.933.87 1.933 1.944z"/>
    </g>
</svg>
