<svg xmlns="http://www.w3.org/2000/svg" width="32" height="32" viewBox="0 0 32 32">
    <g fill="#4C6F8C" fill-rule="evenodd">
        <path d="M21.868 12.056L17.404 7.58a1.985 1.985 0 0 0-2.804 0l-4.455 4.467a.665.665 0 0 0 0 .937l1.351 1.355.9.834a.69.69 0 0 0 .942 0l1.799-1.668a1.283 1.283 0 0 1 1.748 0l1.8 1.668a.69.69 0 0 0 .94 0l.9-.834 1.343-1.346a.666.666 0 0 0 0-.937z"/>
        <path d="M7.604 17.406L14.6 24.42c.77.773 2.032.773 2.804 0l6.995-7.015c1.213-1.215.358-1.576-.531-2.42l-1.098-1.043a.687.687 0 0 0-.941 0l-1.8 1.669a1.283 1.283 0 0 1-1.748 0l-1.8-1.67a.69.69 0 0 0-.94 0l-1.8 1.67a1.283 1.283 0 0 1-1.749 0l-1.799-1.67a.69.69 0 0 0-.941 0l-1.008.936c-.93.862-1.907 1.259-.64 2.529z"/>
    </g>
</svg>
