<svg xmlns="http://www.w3.org/2000/svg" width="32" height="32" viewBox="0 0 32 32">
    <g fill="#4C6F8C" fill-rule="evenodd">
        <path d="M10.568 9.006c-.173-.088-2.363 1.763-2.363 3.124-.003 1.86 2.555 6.077 2.985 7.707.37 1.4-.628 3.078-.354 3.154.251.165 2.637-2.306 2.73-3.359.12-1.677-2.786-6.567-3.018-7.83-.268-1.474.213-2.763.02-2.796zM16.034 7.08c-.22-.111-3.014 2.246-3.014 3.985-.003 2.372 3.259 7.75 3.808 9.827.472 1.783-.802 3.924-.453 4.02.321.209 3.363-2.938 3.482-4.283.154-2.138-3.553-8.373-3.848-9.986-.343-1.875.27-3.52.025-3.562zM21.675 9.006c-.171-.088-2.362 1.763-2.362 3.124-.003 1.86 2.554 6.077 2.985 7.707.37 1.4-.628 3.078-.354 3.154.252.165 2.639-2.306 2.73-3.359.12-1.677-2.786-6.567-3.018-7.83-.268-1.474.213-2.763.02-2.796z"/>
    </g>
</svg>
