<svg xmlns="http://www.w3.org/2000/svg" width="32" height="32" viewBox="0 0 32 32">
    <path fill="#4C6F8C" fill-rule="evenodd" d="M22.96 14.04c-.225 1.539-1.072 2.284-2.196 2.545 1.544.809 2.33 2.05 1.58 4.202-.928 2.673-3.133 2.898-6.067 2.34L15.565 26l-1.72-.432.702-2.835c-.445-.112-.901-.23-1.37-.359l-.706 2.85-1.718-.433.712-2.88c-.402-.103-.81-.213-1.226-.318L8 21.031l.854-1.984s1.268.34 1.25.315c.487.121.704-.199.789-.412l1.125-4.543.182.045a1.419 1.419 0 0 0-.18-.057l.803-3.243c.021-.369-.105-.833-.801-1.008.027-.018-1.25-.313-1.25-.313l.458-1.85 2.372.596-.002.009c.357.089.725.174 1.099.26L15.404 6l1.72.432-.692 2.79c.462.106.926.213 1.379.327l.686-2.772 1.72.432-.705 2.846c2.172.754 3.76 1.884 3.449 3.985zm-3.93 5.552c.556-2.244-3.184-2.824-4.35-3.117l-.944 3.814c1.166.292 4.763 1.455 5.294-.697zm.532-5.583c.506-2.042-2.622-2.497-3.593-2.74l-.857 3.46c.972.243 3.965 1.238 4.45-.72z"/>
</svg>
