<svg xmlns="http://www.w3.org/2000/svg" width="32" height="32" viewBox="0 0 32 32">
    <g fill="#4C6F8C" fill-rule="evenodd">
        <path d="M13.375 6.333c-.417.125-.417.125-.625.209-.375.125-.375.125-.625.25-.333.125-.333.125-.5.208-.292.167-.292.167-.458.25-.292.167-.292.167-.417.25-.292.167-.292.167-.417.292-.333.208-.375.208-.5.333-.333.25-.333.25-.5.417.709-.667 1.792-1.334 2.917-1.792.375-.208.75-.333 1.125-.417M8.583 22.417c-.166-.209-.375-.417-.5-.625.167.208.417.5.584.708a.09.09 0 0 0-.084-.083M7.833 10.25c.125-.167.209-.333.375-.5l-.125.167c-.166.166-.333.458-.458.666a.907.907 0 0 1 .208-.333"/>
        <g>
            <path d="M8.792 9.125c.125-.208.333-.375.541-.583.334-.292.334-.292.5-.417.292-.25.292-.25.459-.333.291-.209.291-.209.416-.292.292-.167.292-.167.417-.25.292-.167.292-.167.458-.25.334-.167.334-.167.5-.208.334-.125.375-.167.625-.25.417-.125.417-.125.625-.209 1.25-.333 2.042-.166 1.875.542-.041.25-.208.5-.458.75-.208.083-.667 0-.75-.083.208-.25.333-.459.375-.625.167-.709-.875-.75-2.375-.125-1.167.5-2.25 1.25-2.75 1.875-.167.166-.333.291-.458.458"/>
            <path d="M15.208 6.042c.25 0 .584-.042.834-.042.875 0 1.291.333 1.125 1-.209.792-1.334 1.917-2.792 2.917-.292.125-.583-.25-.5-.417 0-.042.042-.042.042-.042 1.291-.875 2.25-1.833 2.458-2.541.167-.667-.375-.959-1.333-.875h.166M20.208 7c.5.25.709.667.542 1.292-.5 1.875-4.167 4.75-8.167 6.458-.75.333-1.5.583-2.166.792-.375.041-.417-.459-.25-.709.041-.083.083-.083.125-.125.625-.166 1.291-.416 2-.708 3.791-1.625 7.25-4.375 7.708-6.125.167-.625-.083-1.042-.625-1.25.25.125.583.25.833.375M24.542 11.125l.125.208c.125.334.125.334.125.5v.042c-.125-.042-.375-.542-.417-.75 0-.25-.042-.417-.167-.583l.334.583M25.417 13.333c.041.209.041.459-.042.75-.5 1.834-3.625 4.542-7.417 6.5-.416.167-.666-.125-.583-.416a.427.427 0 0 1 .208-.25c3.834-2 7.042-4.75 7.542-6.625.083-.334.083-.625 0-.875.125.333.25.666.292.916M25.708 15.083v.334c0 .166 0 .291-.041.5-.292 1.125-1.667 2.583-3.542 4-.292.208-.458-.084-.417-.292a.76.76 0 0 1 .209-.333c1.958-1.459 3.375-2.959 3.666-4.125.042-.209.084-.417.042-.625l.083.541M12.75 8.958c.042.042.083.167 0 .25-.417.25-.875.5-1.375.667-1.458.625-2.625.708-2.917.292.167-.209.375-.417.542-.625.25.333 1.167.25 2.333-.25.375-.167.75-.334 1.084-.542.125-.042.291.167.333.208M10.792 11.375c0 .208-.042.5-1.834.75-.5.083-1.208.042-1.541-.333.125-.25.25-.459.416-.709.334.417 1.375.417 2.792-.041.167-.042.167.333.167.333"/>
            <path d="M18.042 6.25c.166.042.291.083.375.083.541.209.75.584.583 1.167-.417 1.583-3.542 4.042-6.958 5.5-2.709 1.125-4.792 1.333-5.334.542l.25-.75c.5.708 2.417.541 4.875-.5 3.125-1.375 6-3.625 6.375-5.042.125-.542-.041-.875-.5-1.042.084-.041.084-.041.334.042M6.833 15.417c-.041.125-.083.291-.166.25-.417-.209-.584-.542-.542-1.042a.954.954 0 0 0 .167.708c.041-.25.083-.541.125-.791.083.125.208.208.375.291.125.167.041.584.041.584"/>
            <path d="M21.583 7.792l.417.291c.333.292.458.709.333 1.25-.541 2.084-4.625 5.292-9.083 7.167-4.25 1.833-7.333 1.75-7.125-.042-.042.292.042.584.167.792-.042-.25-.042-.542-.042-.792C9.042 19.417 21.583 11.75 21.708 8.5c.042-.583-.291-.792-.458-.917l.333.209"/>
            <path d="M23.5 9.542c.25.291.292.666.167 1.166-.584 2.209-4.875 5.584-9.625 7.584-4.5 1.958-7.792 1.875-7.542-.042-.042.333.042.625.208.833-.083-.25-.166-.5-.208-.791.75 1.041 3.583.791 7.208-.75 4.625-1.959 8.834-5.292 9.417-7.459.125-.541.042-.916-.25-1.208.208.208.417.458.625.667"/>
            <path d="M22.417 15a.57.57 0 0 1-.084.542c-1.833 1.666-4.541 3.333-7.375 4.541-4.208 1.75-7.375 1.875-7.666.375-.042-.125 0-.041.041-.083 0 .042 0 .25.167.5-.042-.083-.083-.125-.125-.208-.042-.042-.042-.084-.083-.125-.084-.125-.125-.292-.209-.417.792 1.042 3.709.833 7.459-.792 2.833-1.208 5.541-2.916 7.375-4.541.333-.167.458.083.5.208M11.875 22.625c.042.083.083.25-.083.292-1.5.25-2.584.125-3.084-.417-.166-.208-.416-.5-.583-.708.458.583 1.583.75 3.208.5.292 0 .5.25.542.333M16.458 22.792c.042.041.042.208-.208.333-2.875 1.125-5.125 1.375-6.042.75-.208-.167-.5-.375-.708-.542.875.75 3.25.5 6.333-.708.459-.125.625.167.625.167"/>
            <path d="M25.708 16.75c-.041.25-.083.542-.083.75 0 .042 0 .083-.042.125-.5 1.792-4.041 4.583-7.916 6.25-2.542 1.083-4.584 1.375-5.584 1-.25-.125-.583-.25-.791-.375 3.416 1.417 13.958-4.333 14.458-7.875l-.042.125"/>
            <path d="M25 19.583c-1.458 3-8.208 6.334-10.875 5.917a5.913 5.913 0 0 1-.917-.208c.959.291 2.75-.042 4.917-.959 3.5-1.5 6.708-4 7.208-5.625-.083.25-.208.625-.333.875"/>
            <path d="M22.833 22.583c0 .042-.083.167-.25.292-.916.75-2.166 1.5-3.458 2.042-1.083.458-2.042.708-2.75.75h-1.042c.834.041 2.042-.25 3.5-.834 1.459-.625 2.875-1.458 3.917-2.333.042 0 .042-.042.083-.042 0 0 0 .042.042.042 0 0 0 .042-.042.083M8.458 10.208c-.041-.125-.083-.208-.041-.375 0-.041 0-.083.041-.125.125-.166.334-.333.542-.5-.042.125-.042.25.042.334-.209.208-.375.416-.584.666M7.417 11.792c-.084-.125-.125-.292-.125-.5 0-.042 0-.084.041-.167.125-.208.292-.417.417-.625-.042.25-.042.417.083.542-.166.291-.291.5-.416.75"/>
            <path d="M8.417 9.75c0-.042.041-.125.041-.167.084-.166.167-.291.292-.458.167-.125.333-.292.5-.417a1.408 1.408 0 0 0-.25.5c-.208.167-.417.334-.583.542M7.333 11.167c0-.084.042-.167.084-.25.041-.125.125-.209.208-.334.125-.208.292-.5.458-.666l.125-.167a2.47 2.47 0 0 0-.458.792c-.125.208-.292.416-.417.625"/>
        </g>
    </g>
</svg>
