<svg xmlns="http://www.w3.org/2000/svg" width="32" height="32" viewBox="0 0 32 32">
    <g fill="#4C6F8C" fill-rule="evenodd">
        <path fill-rule="nonzero" d="M16 6.6l-8.227 4.7v9.4L16 25.4l8.227-4.7v-9.4L16 6.6zm0-1.152l9.227 5.272v10.56L16 26.552 6.773 21.28V10.72L16 5.448z"/>
        <path d="M8.818 12.294h1.765v7.412H8.818zM13.759 15.824h1.765v8.117l-1.765-1.412z"/>
        <path d="M15.524 10.184L9.803 13.5l-.985-1.205v-.258l.102-.065 6.603-3.814zM15.524 21.833l-5.721-3.316-.985 1.206v.257l.102.066 6.603 3.814z"/>
        <g>
            <path d="M23.187 12.294h-1.765v7.412h1.765zM20.01 11.235l-3.529-1.764v14.47l3.53-3.077z"/>
            <path d="M16.481 10.184l5.721 3.315.985-1.205v-.258l-.103-.065-6.603-3.814zM16.481 21.833l5.721-3.316.985 1.206v.257l-.103.066-6.603 3.814z"/>
        </g>
    </g>
</svg>
