<svg xmlns="http://www.w3.org/2000/svg" width="19" height="20" viewBox="0 0 19 20">
    <g fill="#4C6F8C" fill-rule="evenodd">
        <path d="M16.438 16.615a7.736 7.736 0 0 0 1.949-7.356 7.919 7.919 0 0 0-2.102-3.63c-.092-.089-.183-.18-.292-.272l-.091-.091a2.85 2.85 0 0 0-.197-.167l-.115-.087-.183-.14-.108-.074-.214-.15-.136-.09a.832.832 0 0 0-.183-.106l-.135-.091c-.061-.03-.122-.078-.183-.105l-.14-.078c-.06-.03-.121-.062-.196-.092h-.047c.17.135.339.288.488.437a7.42 7.42 0 0 1 .045 10.494l-.045.045a9.586 9.586 0 0 1-13.478 0c-.14-.135-.261-.271-.397-.406l-.108-.123a4.174 4.174 0 0 1-.227-.284c2.494 4.908 8.495 6.866 13.404 4.372a9.99 9.99 0 0 0 2.528-1.833.54.54 0 0 0 .163-.173"/>
        <path d="M4.566 15.598a6.77 6.77 0 0 1-.488-.437 7.435 7.435 0 0 1 0-10.553 9.603 9.603 0 0 1 13.492 0c.259.26.503.534.732.82C15.776.518 9.747-1.416 4.836 1.11A10.006 10.006 0 0 0 2.37 2.9c-.053.057-.11.109-.17.157a7.776 7.776 0 0 0-.868 9.772 8.17 8.17 0 0 0 3.234 2.77"/>
        <path d="M10.214 12.75V7.78h.654a2.797 2.797 0 0 0 2.688-2.013H7.888c-2.691 0-3.145 2.014-3.145 2.014h3.342v7.478s2.129-.64 2.129-2.509"/>
    </g>
</svg>
