<svg xmlns="http://www.w3.org/2000/svg" xmlns:xlink="http://www.w3.org/1999/xlink" width="20" height="20" viewBox="0 0 20 20">
    <defs>
        <path id="a" d="M19.931 19.931V0H0v19.931z"/>
    </defs>
    <g fill="none" fill-rule="evenodd">
        <path fill="#4C6F8C" d="M15.824 8.507c0-.643-.491-.85-1.04-.85h-1.503v1.682h1.532c.548 0 1.011-.198 1.011-.832"/>
        <mask id="b" fill="#fff">
            <use xlink:href="#a"/>
        </mask>
        <path fill="#4C6F8C" d="M16.519 12.868c-.52.397-1.144.454-1.787.454h-2.666V6.609h2.666c.539 0 1.097.076 1.55.369.492.321.776.88.776 1.456 0 .548-.256 1.163-.823 1.418.634.293.965.888.965 1.513 0 .595-.199 1.135-.681 1.503zm-7.09.445h1.24V6.609h-1.24v6.704zm-1.257.009H6.395L2.73 6.618h1.31l2.892 5.204V6.618h1.239v6.704zM0 0v19.931l19.931-.01V0H.001z" mask="url(#b)"/>
        <path fill="#4C6F8C" d="M14.823 10.313H13.28v1.862h1.504c.567 0 1.182-.208 1.182-.889 0-.718-.502-.973-1.144-.973" mask="url(#b)"/>
    </g>
</svg>
