<svg xmlns="http://www.w3.org/2000/svg" width="18" height="18" viewBox="0 0 18 18">
    <g fill="#4C6F8C" fill-rule="evenodd">
        <path d="M14.868 5.056L10.404.58A1.985 1.985 0 0 0 7.6.58L3.145 5.047a.665.665 0 0 0 0 .937l1.351 1.355.9.834a.69.69 0 0 0 .942 0l1.799-1.668a1.283 1.283 0 0 1 1.748 0l1.8 1.668a.69.69 0 0 0 .94 0l.9-.834 1.343-1.346a.666.666 0 0 0 0-.937z"/>
        <path d="M.604 10.406L7.6 17.42c.77.773 2.032.773 2.804 0l6.995-7.015c1.213-1.215.358-1.576-.531-2.42L15.77 6.941a.687.687 0 0 0-.941 0l-1.8 1.669a1.283 1.283 0 0 1-1.748 0l-1.8-1.67a.69.69 0 0 0-.94 0l-1.8 1.67a1.283 1.283 0 0 1-1.749 0L3.193 6.94a.69.69 0 0 0-.941 0l-1.008.936c-.93.862-1.907 1.259-.64 2.529z"/>
    </g>
</svg>
